<?xml version="1.0" standalone="no"?>
<!DOCTYPE svg PUBLIC "-//W3C//DTD SVG 1.1//EN" "http://www.w3.org/Graphics/SVG/1.1/DTD/svg11.dtd" >
<svg>
<metadata>
Created by FontForge 20090914 at Fri Feb 24 04:12:01 2012
 By root
Copyright (c) 2008 by N&#195;&#169;stor Alejandro Ferranti. All rights reserved.
</metadata>
<defs>
<font id="Dilana" horiz-adv-x="0" >
  <font-face 
    font-family="Dilana Experimentype"
    font-weight="400"
    font-stretch="normal"
    units-per-em="1000"
    panose-1="2 0 5 3 0 0 0 2 0 2"
    ascent="750"
    descent="-250"
    x-height="314"
    cap-height="641"
    bbox="-30.5556 -289 1144 882"
    underline-thickness="50"
    underline-position="-50"
    unicode-range="U+0020-U+2212"
  />
<missing-glyph 
 />
    <glyph glyph-name=".notdef" 
 />
    <glyph glyph-name=".null" 
 />
    <glyph glyph-name="nonmarkingreturn" 
d="M834 105l24 -73l-8 -23l-29 41l-7 -13l-12 -70l-15 3l-32 -6l22 33q2 8 1 20q-2 11 -6.5 28.5t-17.5 45.5t-29 48t-31 34q-18 16 -36 26q-5 2 -11 6q-5 3 -12 6.5t-15 8.5q-28 11 -61 20l-65 17v-4v-36v-58v-52l11 -33l13 -26l17 -14l13 1l25 16l10 3l-16 -27l-2 -8
l-9 -11l-14 -6h-18l-23 6q-16 2 -34 2h-38q-27 0 -52.5 -1.5t-50.5 -5.5q-5 -1 -11.5 -1.5t-15.5 -0.5q-1 6 -1 11v8v5t1 7l26 9q29 9 48 20q4 12 4 24v10q-1 7 -1 16.5v21.5l-1 122q-16 3 -34.5 6t-34 6t-27 5t-12.5 2q-14 2 -27 4.5t-27 5.5l-32.5 8.5t-33.5 11.5
q-33 13 -62 34q-28 21 -47 49q-20 28 -21 66q-2 1 0 3v3q3 17 12 32q10 16 23 24q13 10 30 15q16 6 33 3q5 -1 9 -2t9 -3l9 -3.5l9 -3.5q19 14 37 17q17 4 40 1q10 -1 22 -6l10 -6t10 -7q9 -9 13 -18q4 -10 3 -23q-3 -19 -12 -28q-12 -8 -21 -11q-6 -2 -11.5 -3t-10.5 -3
q-10 -1 -16 -11q0 -4 2 -7q1 -5 3 -6v-1l4 -6q-6 2 -12 4.5t-11 7.5q-10 10 -9 23q1 14 13 21q6 3 12 5.5t12 4.5q7 2 12.5 4l11.5 4q10 4 12 15q1 5 -2 12q-4 6 -10 10q-5 4 -13 7l-12 3q-32 5 -61 -15q7 -8 12 -20q4 -12 3 -23q-2 -12 -9 -22q-6 -9 -15 -18q4 -4 12 -11
l17 -14.5l17 -14t13 -9.5q23 -14 39 -19.5t27 -10.5q21 -8 43.5 -13t45.5 -8l-2 70q-3 97 -5 107q-3 14 -10 19l-32 13q-2 1 -4.5 1t-4.5 1l1 1l-21 8l18 -1l-31 31l-3 14l27 -13v8l-13 40l8 2l16 12l-3 -24q1 -4 5 -10q4 -5 11 -13t21 -19l36 -2l47 1h17h34.5t49.5 2
q17 1 24.5 2t11.5 1q2 0 5 -0.5t5 -0.5l-1 -1l117 -23l51 -37l24 -29l34 -63l8 -35l-1 -19l-7 -19l-11 -19l-28 -26l-16 -7l-51 -16l-55 -5l-53 7q27 -9 55 -20t51 -24l3 -1l35 -19l36 -29l90 -103zM737 315q7 3 15 9l-86 -17l-69 -3q-8 -2 -29.5 -1.5t-39.5 0.5l8 -2t9 -3
h61l24 -2l45 2l42 9zM356 559q1 0 1 1q1 2 -8 4.5t-17 4.5l3 -3zM750 347q2 2 5 4.5t5 5.5l-15 -8l-9 -8zM543 560q-8 -5 -5 -8.5t11 -5.5l35 3l-2 4l-41 3zM495 524q-2 -2 -2.5 -5t-1.5 -5l3 -191q3 1 20 1.5t37 1t36.5 1t16.5 1.5l16 2l47 8l34 7l43 26l23 24l1 15l-22 44
l-12 14l-41 37l-42 19l-39 7l-70 1zM314 595l6.5 -10.5t7.5 -10.5h13zM142 469q-1 -8 2 -18q1 -4 2.5 -8t3.5 -8q4 2 7.5 5t7.5 6q7 8 8 17q1 10 -3 21q-4 10 -13 17q-5 -5 -9 -15q-5 -11 -6 -17zM237 285q4 -1 19 -3.5l35 -6l42 -7.5t41 -7v17q-20 2 -43.5 5t-52.5 11
q-11 3 -30 10.5t-30 12.5t-21.5 11.5t-20.5 13.5q-10 8 -18.5 15.5t-16.5 17.5q-15 17 -25 41q-14 6 -26 18q-12 13 -10 30q3 13 11 21l9.5 7.5t9.5 6.5l5 -13q-7 -3 -14 -10q-5 -5 -7 -14q-1 -9 4 -20q6 -10 16 -13q-1 2 -1 10q-1 4 -1 8q2 8 4 17t7 18q4 9 8.5 17t10.5 14
q-6 4 -12 6q-4 2 -14 4q-15 1 -30 -3q-14 -5 -26 -15q-5 -5 -10 -11t-9 -13q-7 -12 -10 -28q-3 -23 4 -43q7 -19 22 -37q13 -16 32 -30q18 -13 37 -22l-10.5 6t-10.5 8q-11 9 -16 18q-8 12 -11 22q-3 14 -1 25v2q1 1 1 3h7q3 -1 4 -4q2 -2 2.5 -3t1.5 -2q-1 -4 -4 -8
q-2 -2 -2.5 -3t-2.5 -3q2 -11 8 -19l12 -15q0 4 2 6t3 4l5 4q12 -5 20 -17q8 -11 5 -25q21 -16 45 -23q27 -8 53 -12zM492 70v3q0 -2 -0.5 -3t-0.5 -3l4 -18q7 -12 13 -16zM635 219q56 -41 92 -56.5t42 -17.5l-43 25l-70 45zM791 30q-1 13 -2.5 29t-5.5 31l-34 36z" />
    <glyph glyph-name="space" unicode=" " horiz-adv-x="316" 
 />
    <glyph glyph-name="space" unicode="&#xa0;" horiz-adv-x="316" 
 />
    <glyph glyph-name="E" unicode="E" horiz-adv-x="852" 
d="M843 90l-44 -43l25 2l-103 -40l-3 -1q1 -2 2 -2.5t2 -2.5h-13.5t-14.5 1l-9 -2l-33 -1l-26 5h-5l5 -13l-30 14q-26 0 -54.5 0.5t-60.5 0.5q-26 0 -57.5 -1.5t-69.5 -3.5h-18l-52 -2v29q5 2 13 2.5t20 2.5q46 6 62 14q4 11 4 31v25v13v52l-19.5 -9.5l-19.5 -9.5
q-29 -13 -57 -17q-13 -3 -33 -1q-18 2 -33 7q-16 6 -28 17q-13 10 -21 26l-1 5q-1 4 -0.5 8t1.5 8q2 10 7 15l18 -3q-4 -3 -11 -12q-5 -8 -3 -14q1 -11 11 -21q10 -9 24 -15q13 -6 27 -9q15 -3 24 -2h7q2 0 3.5 0.5t3.5 0.5q28 4 57 17q21 9 43 20v65q-2 -1 -4 -1
q-17 -2 -33.5 -3.5t-33.5 -3.5q-41 -3 -85 0t-85 18q-40 13 -73 40q-31 27 -49 70q0 1 -0.5 1.5t0.5 2.5q0 2 -1 3q-3 21 3 41q4 19 17 37q15 18 30 29q18 12 39 15q5 1 11 1h12q5 -1 11 -1t12 -1q14 20 37 33q21 10 47 15q12 2 28 0q8 0 14.5 -2t13.5 -5q14 -7 22 -16
q9 -10 12 -26q3 -25 -5 -37q-8 -14 -21 -21q-10 -8 -23 -15q-12 -6 -15 -18v-1q2 -4 5 -7q3 -5 6 -6v-1l6 -5q-13 -3 -31 5q-17 8 -18 24q-3 17 8 29q10 12 24 21l13 9t12 9q12 8 9 21q0 8 -7 13q-7 7 -15 8q-4 2 -8 2.5t-9 1.5h-15q-39 -6 -67 -40q13 -8 21 -19
q9 -10 12 -25q1 -8 0.5 -15t-2.5 -14q-5 -15 -12 -27q14 -7 28 -12t29 -9q28 -7 59 -12q15 -2 30.5 -3l30.5 -2q1 0 2.5 -0.5t3.5 -0.5h3l-1 52l-2 101v13l-20 7h12l-21 19l-1 10l17 -9v6l-8 25l5 1l10 8l-2 -15q0 -1 1 -3t2.5 -4.5t4.5 -5.5q9 -1 14 -0.5t15 0.5
q8 0 27.5 0.5t51.5 1.5q45 2 78 2.5t35 0.5q10 0 21 -0.5t21 -0.5q11 -1 22 -1l34.5 -4t29.5 -7q9 -6 17.5 -17.5t15 -24t11 -22.5t5.5 -13q3 -8 5.5 -16.5t4.5 -17.5t4 -16.5l4 -15.5q0 -2 0.5 -4.5t0.5 -4.5q-2 -2 -5 -2t-5 -1q3 9 3 19q-1 13 -8 30q-4 8 -8 15t-9 14
t-10 11.5t-10 8.5q-8 6 -14 9t-17 6q0 1 -27 8.5t-77 9.5h-13q-23 0 -46 -0.5t-47 -1.5q-1 -5 -1.5 -26t-0.5 -58l2 -73v-23q14 -1 38.5 -2.5t49 -3.5t44.5 -4.5t26 -4.5q28 -11 47 -30q13 -13 21 -35q-2 -9 -3 -18t-1 -18q-20 26 -46 35q-8 3 -32 5.5t-52.5 4.5t-54.5 3.5
t-37 2.5v-6v-6q20 -2 43 -5t34 -6q31 -8 60 -30l-5 -5q-3 -3 -4 -5q-5 5 -17 8q-5 2 -10.5 2t-11.5 1q-3 0 -12 1t-19.5 1.5t-19.5 1t-12 0.5q-6 -1 -10.5 -1.5t-9.5 -0.5q-2 -1 -3 -1t-3 -1v-53v-92q0 -16 11 -22q13 -7 51 -8h5q4 0 7 -0.5t8 -0.5h19t17 1q9 0 17 1
q17 1 35 5q16 4 34.5 12t38.5 23t30 25.5t15 18.5q5 9 7 15l-4 33l21 -17l12 -3l-18 -55l1 -12l36 19zM503 228h1q2 1 6 1t9 1q3 0 11.5 -0.5t19 -1.5t19.5 -1.5t12 -0.5h10.5t10.5 -1q9 0 15 -2q-19 11 -49.5 17t-53.5 8q-8 0 -11 1v-21zM379 545l-7 6q2 -2 3.5 -5t3.5 -6
v5zM162 451q-1 -13 0 -22q1 -10 8 -20q6 -9 14 -17q4 4 7 9l6 10q5 11 3 22q-1 12 -10 24q-9 10 -21 15q-4 -6 -7 -21zM339 247q11 2 21.5 3t21.5 3v17h-9.5t-9.5 1q-14 1 -28.5 3l-29.5 4t-29.5 5.5t-28.5 8.5t-27 11.5t-26 14.5q-12 8 -23 18t-20 22q-18 1 -38 12
q-18 10 -21 32q-3 14 5 28q7 12 17 23l10 -13q-8 -8 -12 -17q-6 -9 -3 -19q2 -13 11 -22q12 -10 23 -9l-2 4l-3 6q-3 9 -3 10q-3 19 -1 45q3 23 12 43q-8 3 -16 3h-8.5t-8.5 -1q-22 -3 -35 -14q-14 -10 -25 -27q-9 -16 -14 -34q-4 -18 -1 -37q2 -14 7 -26t13 -23
q17 -21 38 -35t49 -24q14 -5 26.5 -8t24.5 -5q-16 3 -29 9q-15 7 -26 15q-13 10 -20 22q-8 10 -11 29v3v3l8 3q2 0 3.5 -1t3.5 -2q2 -2 2.5 -3t2.5 -3q0 -6 -1 -9q-2 -2 -2.5 -4.5t-1.5 -4.5q6 -13 16 -20q5 -4 10 -7t10 -7q-2 6 0 8q0 1 2 7l4 6q17 -2 30 -13
q14 -10 14 -28q29 -10 62 -10q16 0 32.5 1t33.5 3zM736 43q-2 1 -14 2t-33 1l5 -5h2zM767 77q9 9 16 20l13 20l-67 -53z" />
    <glyph glyph-name="G" unicode="G" horiz-adv-x="971" 
d="M904 170l-10 -50l3 -59l-9 -91l-21 3l-35 31l-3 28l-173 -40l-5 -1q-30 -1 -61 1q-26 2 -56 6.5t-55 15.5l-14 5q-4 2 -7 3t-7 3l-186 74q-10 5 -19 9t-17 9l-20 12t-21 14q-10 7 -19.5 15l-18.5 16l-16 18t-14 20q-14 21 -18 45q-13 7 -24 23q-10 13 -5 31q5 12 14 19
l10.5 6t10.5 5l3 -14q-7 -1 -15 -7q-7 -6 -10 -14q-3 -9 2 -20q3 -10 13 -15q0 5 1 10v8q6 17 16 34q10 15 24 28q-5 5 -11 8q-7 3 -13 5q-17 5 -31 2q-13 -3 -28 -11q-7 -5 -6 -12t-4 -13q-5 -7 -8.5 -13t-5.5 -14q-6 -24 -2 -44q5 -21 16 -40q6 -9 6.5 -16t8.5 -15
q16 -17 33 -27q-11 7 -18 16q-10 12 -14 21q-3 6 -5 11.5t-3 12.5q-1 12 3 25q0 2 1 2q0 2 1 3l7 -1q3 -3 4 -5q0 -2 2 -6q-2 -5 -5 -6l-6 -6q0 -10 5 -20l5.5 -9l5.5 -9q0 4 2 6q1 1 1.5 2t2.5 3l5 3q12 -7 18 -20q7 -13 1 -26q18 -18 42 -30q12 -6 24.5 -10.5l26.5 -9.5
l54 -18q2 0 3 -1q-1 -2 -1.5 -2.5t-1.5 -2.5l-12.5 4l-12.5 4l-27 9.5t-26 9.5q-32 10 -63 30q-34 19 -57 43q-13 13 -16 24.5t-11 27.5q-15 32 -11 69v3q1 1 1 3q7 18 17 30q10 13 26 21q8 5 9.5 9t9.5 6q18 3 34 -3q5 -1 9 -3t9 -4q4 -2 8 -4.5t8 -5.5q10 6 19.5 8.5
t19.5 3.5q11 0 20.5 -1t20.5 -5q10 -3 21 -9q10 -6 18 -15q8 -10 11 -20q3 -12 0 -24q-5 -18 -17 -26q-9 -6 -23 -8q-6 -2 -12 -2t-11 -1q-11 0 -17 -8v-1q-1 -2 1 -7l2 -6v-1l3 -7q-12 4 -22 16q-9 11 -5 24q5 15 16 19t26 7q7 1 13 1.5t12 2.5q11 3 14 13q2 4 0 12
q-3 6 -9 12q-5 5 -11 8q-4 2 -6.5 3.5t-5.5 2.5q-32 9 -63 -7q6 -9 9 -21q2 -14 -1 -23q-3 -12 -12 -21q-6 -8 -18 -16q8 -10 16.5 -19t18.5 -17l19.5 -15t20.5 -14q11 -8 22 -14l22 -12l17.5 -9.5l17.5 -9.5l40 -17q-11 19 -18 37q-21 60 -21 120q0 64 31 135q1 2 1.5 2.5
t1.5 2.5t1.5 3.5t2.5 3.5q3 8 7 13q1 2 2 3.5t2 3.5q2 4 4.5 7t4.5 6q15 21 33 39q44 43 99 66t122 25q18 1 43 0t50 -3t47.5 -5.5t36.5 -8.5q10 -7 20.5 -21t19 -29t14 -27.5t6.5 -15.5l6 -20l6 -21q4 -21 9 -39q0 -3 0.5 -5.5t1.5 -5.5q-5 -1 -13 -3q4 10 3 22
q-2 20 -10 37q-4 10 -9 18.5t-11 16.5q-12 16 -24 24q-9 7 -16.5 11t-20.5 8q-18 6 -42 10q-20 4 -49 6.5t-64 1.5q-71 -2 -114 -55q-11 -14 -19.5 -29.5t-15.5 -33.5q-24 -62 -24 -150q0 -62 23 -122q18 -49 53 -81q6 -5 17 -13t28.5 -15.5t40 -12t50.5 -3.5h19l18 2l50 15
l43 22l3 10l-9 99q-21 12 -50 12h-102l-34 35l6 15l21 3l60 -15l84 6l-140 22l-22 9l25 12l227 -12v9l22 16l12 -18l34 -32l-34 -28l3 -43zM134 288q1 -5 2 -8.5t2 -8.5q7 2 17 9q9 9 10 16q3 12 1 21q-4 13 -10 19q-7 -5 -12 -13q-3 -5 -5 -9l-4 -8q-1 -5 -1.5 -9t0.5 -9z
M820 126q-5 48 -16 71l9 -102z" />
    <glyph glyph-name="H" unicode="H" horiz-adv-x="966" 
d="M915 -199l-12 -11l-12 18l-37 305l-13 -15l13 -185l-29 -27l-8 -23l-20 8l-20 29l-15 263v-2q-3 3 -9.5 7t-12.5 6q-3 0 -27.5 5.5l-53.5 12l-54 12t-28 5.5t-10.5 0.5t-16 1.5t-16 1h-10.5q-6 -1 -11 -1t-9 -1q-22 -3 -45 -12v-126q1 -8 2.5 -11t3.5 -6l11 -5l15 -6
l26 17l11 5l-17 -30l-2 -9l-10 -12l-15 -7h-20l-13 3h-16q-11 2 -26 2h-35h-9q-9 0 -14 -0.5t-7 -0.5q-27 -3 -84 -3q0 13 3 31l54 10l12.5 2.5t11.5 3.5q3 2 5 7l2 6v75q-3 -2 -5.5 -3t-5.5 -2q-14 -7 -28 -11t-29 -7q-8 -1 -16.5 -1.5t-17.5 0.5q-15 1 -33 8q-8 3 -15 7
t-13 10q-12 9 -22 26v5q-2 8 0 16q1 5 3 8.5t4 7.5l18 -3q-2 -3 -5 -6t-5 -7q-5 -9 -4 -15q1 -12 12 -21q10 -8 24 -15q11 -5 27 -9q7 -2 13 -2h11t7 1q5 0 8 1q32 5 57 16q4 2 7.5 3.5t7.5 3.5v76q-11 -2 -22 -2.5t-22 -1.5q-20 -2 -41.5 -2.5t-44.5 1.5q-44 3 -85 18
q-43 15 -73 41q-33 27 -49 71q-1 1 -1 3q0 3 -1 4q-3 21 3 41q3 11 7 20t11 18q11 16 30 28q18 12 39 15q9 3 23 1q5 0 11 -0.5t12 -1.5q16 22 37 34q22 10 48 15q6 1 13 1h15q13 -1 28 -8q13 -6 22 -16q10 -10 12 -26q4 -23 -4 -38q-9 -14 -21 -21q-12 -9 -24 -15
q-10 -5 -15 -18l1 -1q0 -4 4 -7l6 -6v-1l7 -6q-15 -1 -31 6q-18 8 -19 24q-3 18 8 29q11 13 25 21l13 9t12 9q10 9 9 22q-2 9 -7 13q-4 3 -7.5 4.5t-7.5 3.5q-5 2 -9 2.5t-9 1.5h-15q-43 -8 -67 -41q11 -5 21 -19q9 -12 12 -25q2 -15 -3 -29q-2 -8 -4.5 -14.5t-6.5 -12.5
q25 -14 57 -22q15 -4 30 -6.5t30 -4.5q11 -2 21.5 -3l21.5 -2v173q-2 18 -8 22t-4 3l-32 13l12 -1l-21 20l-1 9l17 -8v5l-8 26l5 1l10 8l-2 -15q0 -3 3 -7q2 -4 7 -9t14 -12q4 -2 7 -4t7 -4q14 -1 19.5 0t14.5 1h12t11 -1h21h16l13 1l7 -2l9 -3l7 -7l3 -7l-1 -5l3 -18l-4 4
l-11 14l-7 -2l-8 -1v-201q17 -2 35 -3t28 -3q8 -1 33.5 -2.5t54 -3.5t53 -4.5t31.5 -5.5q28 -11 47 -30q11 -10 18 -28l-7 309l33 25l12 -38l12 -122l4 14l-12 196l12 20l53 -438l12 -5h13q2 -5 2.5 -9t2.5 -8l-22 -1l25 -25h2q3 -14 5 -29l4 -29l-28 1zM760 216v1v-1z
M317 580q3 -5 6 -9.5t8 -9.5l16 -6v1zM154 442q-2 -14 0 -23q2 -13 8 -20q3 -5 6 -9t7 -8q9 9 13 19q6 10 4 22q-1 13 -11 24q-9 10 -21 15q-4 -6 -6 -20zM332 235q10 2 16 2v23q-12 2 -24.5 3.5t-25.5 3.5q-28 4 -59 14q-14 5 -27.5 11.5t-25.5 14.5q-25 16 -44 41
q-19 0 -38 12q-19 11 -22 32q-1 15 6 28q7 12 17 23l10 -13q-8 -8 -12 -17q-6 -8 -4 -20q3 -12 12 -21q10 -10 23 -10q-1 2 -2 4.5t-3 6.5q-3 7 -3 10q-3 21 0 45q1 24 11 43q-4 2 -8 2.5t-8 1.5h-8.5t-8.5 -1q-19 -3 -35 -14q-8 -6 -14 -13t-11 -15q-10 -14 -15 -34
q-2 -10 -2.5 -19t1.5 -18q5 -29 21 -50q15 -20 38 -36q22 -15 50 -24q13 -5 26 -8t25 -5q-15 3 -30 9q-16 7 -26 16q-13 10 -20 22q-10 13 -11 29v3v4l7 2q5 0 8 -3q2 -2 2.5 -3t2.5 -2q0 -7 -1 -10q-2 -2 -2.5 -4.5t-1.5 -4.5q6 -13 16 -20q5 -4 10.5 -7t10.5 -7q-2 7 -1 8
t1 2.5t1 3.5l5 7q16 -2 30 -13t14 -28q31 -11 62 -11q17 0 33.5 1t33.5 3zM728 182q9 0 15 -2q-6 3 -23 9.5t-41.5 13.5t-53.5 14.5t-58.5 13.5t-57.5 9t-50 2v-35q10 3 19.5 5.5t19.5 4.5q3 0 7 0.5t9 0.5h15t20.5 -1t18.5 -1.5t9 -0.5q2 0 13.5 -2.5t27.5 -6.5t34.5 -8
l34.5 -7.5l27.5 -6t13.5 -2.5zM575 238q7 -2 32.5 -8.5t55.5 -15t57.5 -18t40.5 -17.5l-1 27q-19 25 -48 36q-8 3 -33.5 5.5t-55 4.5t-56 3.5t-35.5 2.5q-11 0 -32 1t-41 1v-10h11q9 0 23.5 -1t30 -3t29.5 -4t22 -4zM805 -92l-4 3l4 -15v12z" />
    <glyph glyph-name="I" unicode="I" horiz-adv-x="344" 
d="M323 49l-16 -28l-2 -7l-9 -11l-14 -7h-18l-23 7q-4 0 -8.5 0.5t-9.5 0.5l-79 1q-12 0 -28.5 -1t-39.5 -3q-31 -2 -38 -3v33q4 2 11 3.5l17 3.5q28 7 42 15q12 10 10 20q-2 0 -3 0.5t-3 0.5h-17h-17q-10 2 -15 4q-2 2 -3.5 3t-3.5 3q-4 3 -5 8q-2 6 -2 10q0 8 1 13l1 1
q2 4 4 6l1 1q-7 5 -12.5 10t-10.5 11l-9 15q-2 4 -3 8l-2 8q-2 9 0 17q2 10 6 17l2 1q2 2 7 4q6 2 9 1l3 -9q-2 1 -4 1t-4 1q-4 0 -8 -2q-4 -4 -6 -11q-1 -7 0 -14q0 -8 3 -15q1 -5 5 -11q1 -1 1 -1.5t1 -1.5l3 -3q9 -13 22 -21q6 -5 12 -9t13 -8q5 -3 9.5 -6.5t9.5 -6.5
l-1 2q0 2 -0.5 3t-0.5 3q1 2 1 4t1 4q2 4 5 7l1 1q2 2 4 3q1 0 1.5 0.5t2.5 0.5v17v-1l2 334l11 108l8 3l-10 -301l19 221q8 16 11 37l-12 32l15 -16l11 30l22 22l20 29l12 -3l-3 -31l-8 -2l-3 -32l18 -31l-1 -250l-1 -22l10 -177l8 -24l12 -27l17 -13h13l24 16zM187 130
q3 -1 5.5 -1t5.5 -1l5 106l8 147zM104 103l2 -4v-1q1 -1 1 -2q2 -4 9 -7h1v33h-3q-1 0 -2 -0.5t-2 -0.5q-2 -2 -4 -6q-1 -2 -1 -3t-1 -3v-6zM112 77q4 0 6 -1q-3 8 -8 11l-2 2l-13 9t-13 8l-11.5 7.5t-10.5 7.5l-2 -2q-3 -1 -4 -4q-2 -3 -2 -9t1 -9q2 -6 4 -8q1 -2 4 -5
q1 0 2 -1l1 -1q6 -2 16 -4h16q11 0 16 -1zM248 28v1v-1z" />
    <glyph glyph-name="J" unicode="J" horiz-adv-x="569" 
d="M508 557q28 3 38 3v-33q-5 -1 -12 -3t-17 -4q-27 -7 -43 -15q-6 -4 -7.5 -12t-0.5 -22v-54l1 -77v-30v-55l1 -38v-36v-17v-39q-1 -33 -3 -59t-5 -46q-8 -54 -25 -84q-23 -45 -44 -66q-18 -17 -38 -29l-13.5 -7.5t-12.5 -5.5q-17 -6 -31 -5l-15 1l-104 42l26 -2l-45 43
l-3 20l37 -19v12l-18 55l12 3l21 16l-4 -32q0 -6 6 -15q5 -8 15.5 -18.5t30.5 -25.5q11 -9 23 -15l23 -11q2 -2 4 -2.5t3 -1.5q10 -4 17 -4q6 0 11 5q2 1 2.5 2t2.5 3q10 17 10 47l2 148l-1 158v11t-1 9v113l-1 10q-8 10 -17 20l-9 9t-8 7q-13 12 -26.5 21.5t-29.5 17.5
q-15 8 -30.5 14.5l-31.5 13.5q-17 7 -32 14l-31 15q-30 15 -56 38q-14 14 -25 29q-11 18 -17 35q-6 19 -5 37q0 18 8 37l3 4q7 7 15 12q8 4 19 4l10 -18q-8 1 -18 0q-10 0 -16 -7q-8 -8 -10 -25q0 -8 1 -15.5t3 -15.5q3 -17 11 -31q6 -13 15 -23q2 -2 3 -3.5t3 -2.5l6 -6
q26 -23 56 -38q15 -8 30 -15l31 -15l31 -14t30 -15q26 -13 51 -35v4q0 5 1 8l-18 21q-8 9 -14.5 18t-14.5 18q-4 5 -7 11t-7 12q-8 3 -15.5 6.5t-14.5 8.5q-18 11 -32 30l-6 11l-4 8q-2 8 -2 7q-3 13 -1 33q3 19 9 32l6 10q10 15 27 24q14 8 35 11q5 1 10 1.5t11 -0.5
q10 -2 21 -6q8 -3 16 -12q8 -8 9 -19q3 -19 -4 -27q-6 -10 -15 -16q-5 -3 -9 -6t-8 -5q-9 -5 -11 -14q0 -2 3 -5l5 -5v-1l5 -4q-6 -1 -11.5 0.5t-11.5 3.5q-11 5 -14 16q-2 -6 -2 -9q-2 -5 -2 -9v-9q5 -2 9.5 -3t9.5 -3q23 -6 44 -9q8 -1 17 -1.5t17 -1.5h16h78q12 0 29 1
t40 3zM239 575q1 3 1 9q1 12 8 24q2 4 4.5 7t4.5 6l1 1l2 2l4 4h1q3 3 11 9q5 4 9.5 7t8.5 6q8 7 7 16q0 7 -5 10q-4 4 -11 6q-6 3 -13 3h-11q-31 -5 -50 -30l-6 -9q-4 -8 -5 -16q-1 -10 0 -16q1 -9 6 -15q4 -8 10 -13l9 -5q4 -2 7.5 -3t6.5 -3zM303 462l7.5 -9.5l7.5 -9.5
q1 1 1.5 2t1.5 2q6 6 10 9h2q4 2 7 2h5l-2 39q-9 1 -18 1.5t-19 2.5t-20 4.5t-20 5.5l4.5 -6.5l4.5 -6.5l13.5 -18t14.5 -18zM331 408q3 -3 5.5 -6t5.5 -6q-8 14 -16 25q-2 3 -4 5.5t-4 5.5v-7v-2q1 -1 1 -2t1 -2zM331 426q10 -14 18 -32l-3 59v-1q-2 1 -3 1t-3 1h-6
q-2 -2 -4 -3t-4 -3q-4 -4 -5 -8v-1q2 -3 4.5 -6t5.5 -7zM205 -67q6 -8 13.5 -19t15.5 -21l38 -12zM293 -142h5q5 2 5 3v2q-17 -1 -26.5 -2t-11.5 -2z" />
    <glyph glyph-name="K" unicode="K" horiz-adv-x="899" 
d="M754 23l-21 -6l51 -52l-35 -6l-96 53l16 -42l-91 116l-17 22l-39 31l-33 4l-38.5 43.5l-39.5 42.5l26 -5l-14 19l-11 13l-10 -8q-1 -5 -1 -9.5v-9.5q0 -8 0.5 -41t1.5 -68l5 -28l6 -28l16 -27l16 -13h13l25 16l10 4l-16 -27l-2 -8l-9 -11l-14 -6l-18 -1l-22 7h-1
q-10 2 -17 2l-78 1q-12 0 -29 -1t-40 -3q-29 -3 -38 -3v32q5 2 11.5 4t17.5 4q27 7 42 15q4 6 6 17h-1q3 7 3 52q-4 -4 -5 -6q-9 -11 -19.5 -20.5l-21.5 -19.5q-12 -9 -24 -17t-25 -14q-28 -13 -54 -14q-28 -3 -56 11q-1 0 -1.5 0.5t-1.5 0.5q0 1 -0.5 1t-0.5 1
q-12 9 -18 21q-7 12 -9 26q-2 15 1 27q3 14 12 26q3 4 10 11q8 6 12 10q-3 18 3 33q5 16 15 29q6 7 13 13q9 7 17 10q10 3 19 2q9 0 17 -6q13 -11 15 -21q3 -10 0 -19q-1 -5 -2 -9.5t-2 -8.5q-2 -7 1 -16h1q2 -2 5 -2h6h6q-6 -7 -17 -12q-12 -3 -21 3q-9 7 -9 18v10.5
t2 10.5l2 10.5t1 10.5q2 10 -5 14q-4 4 -10 3q-5 0 -11 -3q-2 -2 -5 -3t-5 -3l-7 -7q-16 -22 -13 -51q8 3 19 1q10 -2 17 -7q7 -6 12 -15q2 -5 4 -9t3 -9q11 3 20 7t18 9l17 10.5t17 11.5q8 7 16 13t16 13l26 26v7q-5 4 -10 6.5t-10 5.5q-16 8 -31.5 15l-31.5 14l-31.5 13.5
t-31.5 14.5q-15 8 -29 17.5t-27 21.5q-13 11 -24 29q-6 8 -10 16.5t-7 17.5q-4 9 -5 18.5t-1 18.5q0 17 8 38l4 4q7 7 15 11q8 5 18 5l10 -18h-18q-11 -2 -16 -7q-9 -10 -10 -26q0 -16 4 -31q2 -8 4.5 -15.5t6.5 -15.5q5 -7 8.5 -12.5t7.5 -9.5q2 -2 2.5 -3.5t2.5 -3.5
q2 -1 6 -5q25 -23 56 -39q15 -8 30 -15l31 -14l31 -15t30 -15q5 -2 9 -4.5l9 -5.5v183q-1 12 -1 22t-1 19q-2 15 -4.5 26t-4.5 16l-41 17l12 -1l-22 21l-1 10l18 -9v6l-9 28l6 1l11 8l-2 -16q0 -2 3 -6q2 -3 6 -8t12 -12q7 0 10 -1q30 -3 82 -3h15l25 1l13 -1l17 -7l11 -11
l5 -14l-1 -8l6 -31l-9 7l-17 24l-13 -3l-6 -1q-5 -4 -5 -15v-163l173 151l47 41t47 29q12 3 28 0t31.5 -7.5t27.5 -9t15 -5.5q17 -8 35 -20q9 -5 16.5 -10l15.5 -10l9 -6q-3 -5 -7 -11q-2 8 -12 18q-13 10 -32 18q-16 7 -36 10q-10 1 -18 1.5t-15 -1.5q-11 -2 -18.5 -4
t-18.5 -8q-11 -5 -25 -14l-28 -19t-34 -27l-14.5 -15t-17.5 -17q-7 -6 -21.5 -20.5l-29.5 -30.5l-39 -39l-2 -8l147 -129l34 -30l15 -11.5t15 -10.5q35 -25 59.5 -36.5t39.5 -16.5q18 -5 28 -4l53 24l-17 -45l1 -21zM123 161q-10 0 -17 -3q0 -3 2 -6t4 -7q3 -4 5.5 -6.5
l4.5 -4.5q8 -5 14 -6q4 0 7 -0.5t7 -0.5q0 5 -2 15q-3 7 -9 12q-7 5 -16 7zM289 149l-27 -21q-18 -12 -35 -20q-18 -9 -37 -12q-18 -4 -40 -1q-9 -9 -24 -12q-13 -3 -25 5q-8 7 -10 16q-3 10 -3 19l11 -1q0 -9 2 -14q2 -6 8 -11q7 -5 15 -5q10 0 16 6q-4 2 -8 3q-5 3 -6 3
q-12 10 -21 22q-5 6 -8.5 12.5t-6.5 13.5l-9 -6q-5 -5 -8 -9q-7 -10 -10 -22q-2 -15 1 -25q3 -13 9 -23q8 -13 17 -18q15 -12 32 -15q20 -2 35 1q17 3 35 11q8 5 16 9t15 9q-9 -6 -19 -9q-5 -2 -9.5 -3t-9.5 -2q-12 -2 -20 1q-10 1 -19 9q-1 0 -1 0.5t-1 0.5q0 1 -0.5 1
t-0.5 1l2 5q2 1 3 1t2 1h6l3 -6l3 -6q9 -3 16 -2q5 1 8.5 1.5t8.5 1.5q-4 2 -4 3q-1 1 -1 2t-1 2l-1 6q10 7 20 8q13 0 20 -7q10 4 18.5 9.5t16.5 13.5q7 7 13 14l13 15v6v18zM284 527l-33 27l6 -10t8 -10zM295 516l-1 2q-11 0 -13 -2h14zM457 192l14 2q-1 5 -9 9zM531 206
l-29 30l-30 25l26 -30zM628 133q6 7 13 13q-6 2 -11.5 4.5t-10.5 5.5l-31 14zM686 81q20 -10 42.5 -16.5l40.5 -11.5l-124 86z" />
    <glyph glyph-name="L" unicode="L" horiz-adv-x="826" 
d="M819 77l-44 -43h27l-106 -37l-38 -4l-34 1q-7 1 -15 1h-16l4 -8l-24 9q-32 1 -64 1h-58l-87 -1h-21q-8 1 -18 2t-24 4q-11 2 -20.5 5t-20.5 7q-11 3 -20.5 8t-18.5 11q-19 13 -32 30l-6 10q-1 2 -1.5 4t-2.5 4q-1 2 -1 5q0 1 -1 2q-3 16 0 34q1 17 8 32l6 9q9 12 16 17
q-13 7 -24.5 15t-21.5 18q-13 12 -23 33t-11 43t5 49q7 26 24 52l6 7q9 9 24 19q7 4 13.5 6.5t12.5 3.5l7 -22q-5 0 -10.5 -1t-13.5 -3q-15 -3 -23 -13q-16 -16 -22 -37q-6 -20 -6 -41q0 -11 1 -20.5t4 -18.5q4 -17 12 -28q4 -6 5 -7q4 -4 7 -6q22 -23 54 -37l12.5 4t13.5 3
q5 1 10.5 1h10.5q10 -1 21 -6t16 -12q7 -7 9 -19q0 -4 1 -6q7 -2 14 -4.5t14 -5.5l1 23v36l1 43l-1 45l2 81l-7 8.5t-6 6.5l-9 9l-7 7q-26 24 -57 39q-15 8 -30.5 15l-31.5 14l-31.5 13.5t-31.5 14.5q-15 8 -29 17.5t-27 21.5q-7 6 -13 13.5l-12 15.5q-11 15 -17 34t-5 37
q0 17 8 38l4 4q7 7 15 11q8 5 18 5l10 -18h-18q-11 -2 -16 -7q-9 -10 -10 -26q0 -16 4 -31q3 -14 11 -31q4 -7 7.5 -12.5t8.5 -9.5q1 -3 5 -7q2 -1 6 -5q25 -23 56 -39q15 -8 30 -15l31 -14l31 -15t30 -15q14 -7 26.5 -15.5t24.5 -18.5v3q0 6 1 8q-5 6 -9 11.5t-9 10.5
q-8 9 -14.5 18t-14.5 18q-7 9 -12 19l-10 21q-5 12 -6 25q-2 12 0 26q1 11 8 24q7 12 16 20l4 1q8 2 12 2q7 1 13 -3v-13q-2 2 -4.5 2.5t-6.5 2.5q-6 3 -11 1q-9 -3 -14 -13q-6 -9 -7 -19q-3 -12 -3 -22q1 -6 1 -10.5t2 -8.5q0 -2 0.5 -3t0.5 -2q1 -2 1 -2.5t1 -2.5
q9 -23 22 -40l13.5 -18t14.5 -18q4 -5 7.5 -10t7.5 -10q1 2 1.5 2.5t1.5 2.5q6 6 10 8l2 1q2 1 3.5 1t3.5 1q4 0 6 -1q-3 34 -5 38q-3 5 -25 12q-2 0 -17 6q-11 5 -19 6q-15 4 -21 9q-1 6 -1 10v7v11q6 2 8 2q5 0 24 -1.5t51 -3.5l62 1l45 -1h15l20 1l13 -2l16 -6l11 -11
l5 -13l-1 -8l5 -31l-8 7l-17 23l-12 -3h-1l-19 -4q-1 -1 -3 -1.5t-4 -2.5q-1 -2 -3.5 -5t-3.5 -5l-1 -40v-91q0 -35 0.5 -65.5t0.5 -34.5l-1 -206q0 -6 1 -8q17 -5 43.5 -5.5t51.5 1.5q29 2 59 5q13 -1 29 3q14 3 30.5 11t36.5 23q19 15 29 26t15 19q5 9 6 16l-6 36l23 -20
l13 -4l-15 -60l1 -13l37 18zM327 435q2 -4 5 -7t5 -7q10 -13 15 -25l1 39v6q-1 3 -1 8v-1q-2 0 -2.5 0.5t-2.5 0.5q-4 1 -7 0q-5 -2 -8 -5q-4 -6 -5 -8v-1zM332 417q-4 6 -8 10v-7v-2q1 0 1 -2l1 -1q2 -2 4.5 -5t6.5 -7q3 -3 5.5 -6t5.5 -6l-7.5 13.5t-8.5 12.5zM258 186
q-5 0 -11 -2l25.5 -9.5l26.5 -9.5q0 2 -1 3q0 5 -5 10q-4 4 -11 6q-3 1 -6.5 1.5t-6.5 1.5q-8 0 -11 -1zM222 82q11 -5 21.5 -9t21.5 -6q21 -6 44 -9q9 -2 19 -2.5t20 -1.5q0 2 0.5 2.5t0.5 1.5l-1 56v17q-7 2 -14 5t-15 5q0 -2 -2 -6q-7 -11 -16 -16l-9 -5.5t-8 -4.5
q-8 -4 -11 -14q0 -3 3 -6q2 -2 3 -2.5t2 -1.5v-1l5 -4q-12 -2 -23 4q-13 6 -14 18q-3 13 6 22q7 7 18 15q5 3 8.5 6t7.5 5q-17 5 -32.5 10.5l-31.5 11.5q-11 -7 -16 -15l-7 -10q-3 -5 -5 -15v-17q1 -8 6 -15q2 -3 5 -6t5 -6zM710 34q-5 2 -35 2.5t-87 -4.5l16 -8l64 7z
M740 68q8 10 15 21.5t12 20.5l-67 -52z" />
    <glyph glyph-name="M" unicode="M" horiz-adv-x="860" 
d="M773 81l28 -197l-18 15l-2 -107l-15 -18l-1 -52l-60 354l-17 47l-26 19l-24 114l19 -17l-6 62l-19 70l-129 -216q-1 -1 -1 -2l-6 -6t-5 -6l-11 -13q-4 -4 -6 -7q0 35 -19 64q-19 30 -51 55q-16 13 -32.5 24.5l-33.5 22.5q-18 11 -33 22t-29 23q-18 15 -35 32l-1 -40
l33.5 -18t33.5 -17l34.5 -20t32.5 -21q30 -22 55 -51q24 -28 36 -68q-5 0 -8 -1q-4 0 -8 -2q-2 10 -10 18q-4 5 -8.5 9l-10.5 9q-5 4 -11 7.5t-11 7.5q-13 8 -20 11q-16 8 -31.5 13.5t-32.5 9.5l-34 6t-34 5q-3 1 -8 1l-2 -117q0 -31 11 -47q13 -14 52 -23l20 -5v-31
q-13 1 -26 1.5t-27 2.5q-29 3 -75 3q-5 0 -25.5 -1t-57.5 -3l1 29q54 8 67 22q5 5 8.5 18t6.5 34l5 124q-5 1 -9 1.5t-9 2.5q-17 3 -33 8.5t-31 13.5q-19 10 -32 22q-8 6 -14 13t-11 15q-11 17 -15 35q-5 19 -2 38l2 5q4 7 12 15q8 6 17 9l14 -15q-4 0 -8.5 -1t-9.5 -3
q-9 -5 -13 -11q-6 -12 -3 -27q3 -13 11 -30q9 -15 20 -26q10 -11 20 -18q2 -2 3.5 -3t3.5 -2q4 -1 8 -4q32 -16 63 -23q5 -1 8.5 -1.5t7.5 -1.5l1 15l3 83q-19 11 -37 24.5t-36 28.5q-20 17 -36.5 35.5t-30.5 38.5q-27 41 -39 86q-12 46 1 97q0 2 2 4t2 4q12 21 30 36
q17 14 41 22q21 7 47 7q24 -2 45 -12q11 -5 22 -15l10.5 -8t10.5 -9q29 9 56 6q27 -5 54 -18l12.5 -8.5l13.5 -9.5q6 -6 11 -12t10 -14q7 -14 9 -30q3 -14 -6 -31q-11 -24 -29 -32q-17 -6 -34 -6q-8 1 -15.5 1.5t-15.5 1.5q-16 2 -26 -7v-1q-2 -4 -1 -10q1 -4 1 -9v-1l2 -10
q-14 7 -25 26q-10 19 -1 35q9 18 27 21q18 4 37 3h35q15 0 23 14q4 6 2 17l-3.5 9t-4.5 8l-7 8.5t-7 6.5q-6 6 -14 10q-42 21 -89 8q7 -14 7 -32q1 -15 -6 -31q-4 -8 -9.5 -14t-12.5 -11q-15 -12 -28 -17q8 -16 17.5 -30.5t20.5 -27.5q11 -14 22.5 -26.5t24.5 -24.5l26 -23
l27 -22l27 -22l27 -22l23.5 -21l25.5 -23q27 -23 44 -51q1 -2 2 -3.5t2 -3.5l63 113l3 12q1 5 1.5 8t1.5 6q2 10 -3.5 21.5t-6.5 21.5q-2 11 -3 20.5t-3 20.5q-2 10 -3 20l-2 20q-3 22 1 41l2 10.5t3 11.5q2 5 5 9.5t6 9.5q8 10 16 15q10 7 20 8h3q2 -1 10 -3t11 -4
q4 -3 7 -8l-5 -11q-1 3 -5 9q-2 3 -9.5 6t-9.5 3q-8 1 -15 -3q-8 -5 -14 -12q-3 -4 -6 -7.5t-5 -8.5q-5 -9 -6 -15q0 -2 -0.5 -2.5t-0.5 -2.5q0 -3 -1 -5q-3 -18 -1 -40q2 -10 2.5 -20t2.5 -20t3 -20l2 -20q1 -11 6.5 -22t3.5 -21q-1 -2 -1 -4.5t-1 -6.5q-1 -1 -1 -2l21 37
q2 5 3.5 10.5t3.5 10.5l5.5 21t4.5 21q3 22 9 42q2 13 6.5 25.5l9.5 26.5q5 13 12.5 25t15.5 23q17 21 38 35q22 14 52 16h2q1 -1 3 -1q13 -2 24 -9q5 -4 10 -8.5t9 -9.5q8 -12 11 -24q4 -10 2 -26q-2 -8 -4 -14q-2 -4 -3 -7t-3 -7q10 -13 13 -28q2 -18 -1 -32q0 -7 -5 -17
q-3 -8 -10 -15q-6 -7 -14 -10q-6 -4 -18 -2q-14 1 -21 10q-6 8 -9 16q-2 5 -2.5 9t-1.5 8q-1 8 -8 13h-1q-3 0 -5 -1q-4 -2 -5 -3l-5 -3q1 9 10 18q7 9 18 7q11 -3 16 -11q4 -7 7 -19q2 -5 3 -9.5t3 -8.5q3 -8 11 -10q5 -1 10 2q2 1 4 3l4 4q4 6 5 10l3 9q4 25 -11 48
q-8 -6 -16 -9q-10 -3 -17 -2q-10 2 -17 7q-4 3 -7.5 6t-6.5 6q-14 -14 -24 -30q-5 -8 -9.5 -16.5t-9.5 -16.5q0 -3 -2 -5l4 -14t4 -15l36 -106q1 -3 3 -7q1 -2 1 -3l-1 1l87 -251l7 -45q-20 13 -32 35zM240 621q-1 14 -9 28q-10 -5 -20 -15q-11 -12 -15 -21q-6 -11 -6 -24
v-12t1 -12q10 1 25 8q12 8 18 19q6 13 6 29zM173 367l13.5 -9.5l13.5 -9.5l3 56q-11 13 -20 26q-11 14 -18.5 28.5t-13.5 30.5q-13 34 -13 66q-17 15 -27 37q-10 21 1 43q7 15 24 23q8 3 15.5 5.5t15.5 4.5l1 -19q-14 -2 -23 -7q-10 -6 -16 -16q-6 -13 -3 -28q3 -17 14 -24
q2 5 3 13q3 9 3 11q12 21 30 42q21 22 40 32q-3 4 -6 7.5t-7 6.5t-8 5.5l-9 5.5q-22 10 -41 10q-20 0 -41 -8q-10 -5 -19 -10t-17 -13q-17 -16 -26 -33q-15 -29 -14 -59q0 -28 11 -59q6 -14 13 -27.5t17 -26.5q9 -14 18.5 -25t19.5 -21q-12 12 -21 27q-10 16 -14 32
q-5 19 -4 34q2 18 10 34q0 1 2 3q0 1 2 3l9 -3q2 -2 4 -8q1 -2 1 -4t1 -4q-3 -5 -8 -8q-2 -2 -5 -3t-5 -3q-3 -17 2 -29q2 -7 5 -13.5t5 -12.5q1 4 4 7q2 1 6 5l9 3q13 -11 19 -32q6 -20 -6 -36q11 -14 23 -26.5t27 -23.5zM240 316l-1 -81q2 -1 4 -1t4 -1l33.5 -6l33.5 -6
q17 -4 32.5 -9.5t31.5 -13.5q4 -3 15 -9l10.5 -6.5t10.5 -7.5t10 -7.5t10 -7.5q9 -8 12 -12q-17 33 -46 62q-29 25 -60 48q-17 11 -33.5 20.5l-33.5 19.5zM761 551q7 3 13 10q-4 4 -11 7q-5 2 -8 3l-6 2q-5 1 -14 -1q-4 -1 -12 -5q3 -6 8 -11t13 -7q7 -1 17 2zM597 459
q-1 -5 -2 -9.5t-2 -9.5l16 30q2 3 2.5 6.5t2.5 6.5q4 8 7.5 16.5t8.5 16.5l9.5 17t10.5 16t12 14.5t14 12.5l15.5 10t17.5 8q4 10 14 20q10 9 24 7q9 -2 15 -9q4 -4 6.5 -7.5t4.5 -7.5l-10 -3q-3 5 -7 11q-5 5 -12 5q-8 1 -15 -3q-8 -3 -10 -11h7q4 1 7 1q13 -3 27 -9
q13 -6 24 -15q4 4 5 9q2 6 3 10q1 11 -2 24q-3 10 -11 20q-8 9 -18 15q-9 6 -22 8q-20 3 -34 -2q-17 -7 -29 -16q-7 -5 -13 -11.5t-11 -13.5q-5 -8 -9.5 -14.5t-8.5 -13.5q3 4 5.5 8t5.5 8q4 3 7.5 6.5t7.5 5.5q8 7 17 8q8 3 20 1l2 -1h2v-5q-1 -3 -4 -4q-2 -2 -4 -2
q-3 0 -6 3q-1 1 -2 1.5t-2 1.5q-8 0 -15 -5q-3 -3 -6.5 -5.5l-6.5 -4.5q4 0 5 -1l4 -2l3 -5q-4 -9 -14 -15q-9 -6 -20 -3q-12 -15 -18 -35l-6 -20t-5 -21t-3.5 -21.5t-3.5 -21.5zM657 288l3 -35l9 -25l-5 33zM672 195q0 6 -4 13l-9 -7zM714 266l-2 36l-26 73l-7 6v-21z
M729 176l-10 40l-13 37l7 -39zM763 -162q1 7 -3 16z" />
    <glyph glyph-name="N" unicode="N" horiz-adv-x="747" 
d="M698 423l-21 -362v-1q4 -18 -2 -40l-5 -85l-7 52l-8 7q-2 -3 -4.5 -5.5t-4.5 -5.5q-2 36 -19 64q-6 8 -22.5 24.5t-38.5 36.5l-46 41.5l-45 39.5l-35.5 30.5t-16.5 14.5l-32 25.5t-34 23.5q-17 11 -32 22.5l-29 22.5l-17.5 16l-17.5 16l-1 -39l33.5 -19t33.5 -17
q18 -9 34.5 -19.5l32.5 -21.5l21.5 -18l38 -33l46 -40.5l45.5 -41l36.5 -34t19.5 -19.5q23 -27 35 -67q-2 -1 -4 -1t-4 -1q-4 0 -8 -2q-1 8 -9 19q-5 5 -9.5 9t-9.5 8q-2 1 -15 12.5l-32 28l-40.5 35l-40 35l-31.5 27.5t-15 12q-6 4 -11 7t-9 5q-16 8 -31.5 13.5t-32.5 8.5
q-36 8 -68 12q-5 0 -8 1l-3 -118q0 -33 12 -46q6 -8 18.5 -13.5t32.5 -10.5l20 -5v-30q-24 0 -52 3q-29 3 -75 3q-5 0 -25.5 -1t-57.5 -3l1 29q54 8 67 22q9 11 15 53l4 124q-4 1 -8 1.5t-9 1.5q-17 3 -33 8.5t-31 13.5q-19 10 -32 22q-13 11 -25 29q-10 14 -15 34
q-5 16 -2 38l2 5q4 9 12 15q6 7 16 9l15 -14q-5 -1 -9 -2t-9 -3q-10 -3 -13 -11q-6 -12 -3 -27q3 -13 11 -30l9.5 -13.5t10.5 -12.5q10 -11 20 -18q2 -2 3.5 -3t3.5 -2t4 -1.5t4 -2.5q15 -8 30.5 -13.5t32.5 -8.5q4 -1 8 -1.5t8 -1.5v14l4 83q-19 11 -37 24.5t-36 28.5
q-20 17 -36.5 35.5t-30.5 38.5q-28 43 -40 86q-12 45 2 97q0 2 2 4l2 4q6 11 13 19.5t17 16.5q19 16 41 23q11 3 23 5t24 1q24 -2 45 -12q6 -3 11.5 -6.5t10.5 -7.5q5 -5 10 -9t10 -9q30 10 57 6q28 -5 53 -18q13 -6 27 -18q6 -5 11 -11.5l10 -13.5q7 -15 9 -30
q2 -17 -6 -32q-13 -25 -29 -32q-18 -6 -34 -5q-8 0 -15.5 0.5t-15.5 1.5q-16 2 -26 -7v-1q-2 -4 -1 -9t1 -10v-1l2 -9q-15 7 -25 25q-9 20 -1 35q10 19 27 22q20 3 37 2h34q17 2 24 14q4 6 2 17l-3.5 9t-5.5 9q-3 4 -6 7.5t-7 6.5q-7 7 -15 10q-39 22 -88 8q3 -8 5 -15.5
t2 -16.5q0 -16 -6 -31q-9 -15 -22 -25q-7 -5 -13.5 -9t-14.5 -8q14 -29 38 -58q11 -14 22.5 -26t24.5 -24q4 -3 22 -18.5l45 -38.5l60 -51l67 -57l65 -56.5l54 -48.5l1 217h-1v231l13 2l9 -32l9 -9l9 2l2 -29l10 -23q11 -5 11 -16l2 -92l12 142h9zM251 645q-10 -3 -20 -15
q-12 -13 -15 -20q-6 -12 -6 -24v-13t1 -12q12 1 24 9q13 6 19 18q6 13 6 29q-2 16 -9 28zM220 345l3 55l-10.5 12.5t-10.5 13.5q-19 28 -31 59q-6 16 -9.5 32.5t-3.5 34.5q-18 13 -27 36q-10 21 1 44q8 16 24 22q8 3 15.5 5.5t15.5 4.5l1 -19q-14 -2 -23 -7q-9 -4 -16 -16
q-6 -11 -4 -28q3 -15 15 -24q2 5 3 13q3 10 3 11q10 22 30 42q21 22 40 32q-5 8 -13 14q-8 7 -17 11q-19 10 -41 10q-20 0 -41 -8t-36 -23q-17 -14 -26 -32q-15 -31 -14 -60q0 -28 11 -58q6 -14 13 -28t17 -27q9 -14 18.5 -25t19.5 -21q-6 6 -11 13t-10 15q-10 17 -14 31
q-6 16 -4 34q1 17 9 34q2 2 2 3l3 3l9 -2q3 -4 4 -8q1 -2 1 -4.5t1 -4.5q-3 -5 -8 -8q-4 -2 -10 -6q-3 -16 2 -28q2 -7 4.5 -13.5t5.5 -13.5q1 5 4 8q4 2 6 4l9 3q13 -11 19 -32q6 -20 -6 -35q10 -15 22.5 -27.5t27.5 -23.5zM260 312l-1 -80v-1q2 -1 4 -1t4 -1q33 -4 67 -12
q17 -4 32.5 -9.5t30.5 -13.5q3 -2 7 -3.5t9 -5.5q2 -1 15 -12l31.5 -27l39.5 -35l39.5 -35l31.5 -27.5t15 -12.5q5 -4 10 -7.5t10 -7.5q5 -3 7.5 -6.5t4.5 -5.5q-3 6 -17.5 21.5l-35 36l-44 43l-44 42.5l-36.5 34.5t-20 19.5q-29 27 -60 48q-17 11 -33.5 20.5l-33.5 19.5z
" />
    <glyph glyph-name="O" unicode="O" horiz-adv-x="796" 
d="M765 296l-2 -51l-7 -45l-15 -34l-19 -29l-8 -11q-23 -47 -75 -83q-69 -48 -174 -48q-67 0 -130 28l-9 3.5t-8 3.5l-1 -2q-6 3 -10 7q-4 2 -7.5 4.5t-3.5 3.5q-33 20 -58 51q-30 34 -45 86q-8 26 -12 47.5t-4 39.5v17t1 19q-4 2 -7.5 3.5t-7.5 3.5q-8 4 -15 8.5t-13 10.5
q-7 6 -11.5 12.5t-9.5 14.5q-7 15 -9 32l1 5q2 8 7 15q4 7 12 12l16 -10q-8 -3 -14 -8q-9 -5 -10 -12q-3 -12 3 -24t17 -23q10 -11 22 -19q5 -4 10 -6.5t10 -4.5q2 13 4.5 25.5t7.5 26.5q3 11 7.5 20.5l9.5 19.5q-15 6 -31 14q-20 10 -38 22.5t-35 26.5q-17 15 -29.5 31.5
t-23.5 34.5q-19 37 -18 85v4q1 1 1 3q6 22 18 38q13 16 31 28q18 10 39 15q22 5 42 -1q6 -1 11.5 -3l10.5 -4q5 -3 10.5 -5.5t10.5 -5.5q25 14 48 17q26 2 50 -4q6 -2 12.5 -4.5t13.5 -5.5q13 -8 24 -18q10 -11 14 -24q5 -12 2 -29q-6 -24 -19 -33q-14 -9 -28 -12
q-7 -2 -14 -3t-13 -2q-14 -2 -21 -11v-1q-1 -2 1 -8q3 -6 3 -8v-1l4 -8q-13 3 -27 17q-12 14 -8 30q3 18 19 24q14 7 31 10q8 2 15 3.5t15 3.5q14 5 17 17q2 10 -2 15q-3 8 -11 14q-5 5 -15 10q-10 4 -14 5q-41 10 -78 -12q8 -9 13 -26q2 -7 2 -14t-2 -14q-3 -14 -13 -26
q-9 -12 -21 -21q21 -24 45 -42l19.5 -13.5t19.5 -12.5q26 20 56 35q9 5 24 12t32 12q21 6 39.5 8t41.5 3q22 1 36.5 1t34.5 -1q1 0 9 -2l15.5 -4l15.5 -4q38 -14 62 -36t36 -37q2 -2 4.5 -5.5t5.5 -8.5v-1q3 -4 7 -14l21 -38l19 -33l12 -42zM697 412q-4 -1 -7.5 -1t-6.5 -1
l9 -18l22 -61l-1 22zM707 157l-2 -2h1zM301 305q9 0 14 1q30 3 60 3q30 1 60 -6q2 -1 6 -1.5t9 -2.5t14 -6.5l18.5 -9l16.5 -8t8 -3.5l22.5 -15.5l42.5 -29.5l42.5 -29.5t21.5 -14.5q11 -5 13 -8q-7 9 -37 34.5t-69.5 54t-81 53t-71.5 30.5q-17 3 -33.5 9t-33.5 11
q-4 1 -7.5 2t-7.5 2q-3 -11 -5 -22t-2 -22v-22zM515 293q6 -5 26 -19.5l43.5 -33l45.5 -37t33 -31.5l11 23q-5 15 -12 28t-18 22q-6 6 -29 18l-50 25.5l-51 24.5t-32 15t-21.5 10l-28 12.5t-28.5 12t-23 8.5q-17 6 -32.5 12.5t-29.5 13.5q-2 -5 -4.5 -9.5t-4.5 -9.5l45 -12
q34 -8 66 -21q8 -3 21 -9.5t27 -14.5l26.5 -15.5t19.5 -12.5zM525 516q-14 1 -27.5 0.5t-26.5 -2.5q-41 -10 -66.5 -26.5t-37.5 -27.5l23 -10.5t23 -11.5l17.5 -8.5l24 -12l24.5 -12.5t19 -10t30 -15l49 -24.5l48 -25.5t28 -17q19 -18 32 -45q1 -2 1 -3t1 -3l1 9l-6 64
l-14 53l-11 29l-8 14l-3 6q-2 3 -4 7t-5 9q-12 18 -39 39t-73 24zM213 662q-6 -4 -14 -18q-3 -6 -5 -10.5t-4 -9.5q-3 -12 0 -22q3 -12 6 -21q5 2 10 5t10 7q9 9 12 20q2 11 -1 26q-4 11 -14 23zM169 439q19 -17 42 -28q5 9 11.5 18.5t13.5 18.5q-11 7 -19 14l-21 21.5
t-18 23.5q-9 12 -15 25.5t-11 28.5q-8 5 -16 11t-15 15q-12 17 -8 38q5 15 16 24q6 5 12.5 8.5t12.5 7.5l5 -17q-5 -2 -9.5 -4.5l-9.5 -5.5q-7 -7 -10 -18q-3 -12 3 -25q6 -12 17 -17v12q0 9 1 10q4 19 17 43q12 21 27 36l-6.5 4.5t-7.5 4.5t-8 3t-8 3q-20 5 -38 0
q-17 -4 -34 -16q-8 -5 -14.5 -12t-12.5 -15q-11 -17 -15 -34q-8 -29 0 -54q4 -13 9.5 -25t13.5 -23q16 -24 36 -41q11 -10 21.5 -18t21.5 -14q-13 8 -24 19q-10 11 -19 25q-7 12 -10 28t1 32q0 1 0.5 1.5t0.5 1.5q1 1 1 3l9 -1q4 -2 5 -6q2 -4 3 -7q-2 -5 -5 -8l-3.5 -3.5
l-3.5 -3.5q0 -13 7 -25l15 -21q0 6 2 8q1 1 1.5 2t2.5 3l7 5q15 -9 23 -24q9 -15 3 -32zM630 122q6 4 16 16l10 20q-2 3 -5.5 7t-6.5 6q-2 1 -12 8l-25 17.5l-32 22.5l-32 22l-25.5 17t-12.5 8q-3 1 -9.5 4.5l-14.5 7.5l-14.5 7t-9.5 4q-6 2 -11 3t-9 3q-30 7 -60 6
l-30.5 -2t-30.5 -3q-4 0 -7.5 -0.5t-6.5 -0.5q2 -47 14 -87.5t38 -68.5q16 -17 36.5 -29.5t42.5 -20t44 -10.5t41 0q28 4 40.5 8.5l26.5 9.5q18 7 45 25zM745 250l-24 -70l-12 -18l16 12l11 17zM747 253l-3 87l-9 31q-3 7 -8 13l8 -33z" />
    <glyph glyph-name="P" unicode="P" horiz-adv-x="813" 
d="M795 416l-8 -30l-23 -21l-57 -34l-21 -22l-24 -19l-32 -16l-24 -20l-27 -18q-15 -9 -16 -25l-13 -26q0 17 -5 42l-64 -10l-28 3v-3v-57v-52l11 -33l13 -26l17 -13l13 1l24 15l10 4l-16 -27l-1 -8l-9 -11l-14 -6h-18l-23 6q-32 3 -71 3q-27 0 -52.5 -2t-49.5 -6
q-5 -1 -11.5 -1t-14.5 -1q-2 6 -2 11v8v5t1 7l26 9q26 7 47 20q5 13 5 23q0 2 -0.5 4.5t-0.5 5.5q-1 7 -1 16.5v21.5l-1 78q-23 5 -42 8t-21 3q-14 3 -27 5.5t-26 5.5q-31 6 -66 20q-17 6 -32.5 14.5t-29.5 18.5q-14 11 -25.5 23t-20.5 26q-18 27 -21 65v3q0 1 0.5 1.5
t0.5 1.5q2 17 11 31q8 13 23 25q14 10 29 14q16 6 34 3q5 -1 9 -2t8 -3l9 -3.5l9 -3.5q17 14 36 17q18 4 40 1q10 -1 22 -6q9 -4 20 -13q4 -4 7.5 -8t5.5 -9q5 -11 3 -23q-3 -19 -12 -28q-12 -8 -21 -11q-6 -2 -11.5 -3t-10.5 -3q-10 -1 -15 -10v-1q-1 -2 1 -7q3 -3 3 -6
l4 -6q-11 1 -22 11q-12 10 -9 23q2 15 13 21q5 3 11 5.5t12 4.5q7 2 13 4t11 4q11 5 12 14q1 7 -2 12q-4 6 -10 10q-5 4 -13 7l-6 2t-5 1q-33 4 -61 -15q8 -10 12 -20q5 -11 3 -22q-1 -11 -9 -22q-6 -9 -15 -18q4 -4 12 -11l16.5 -14l17 -13.5t13.5 -9.5q23 -14 38.5 -20
l25.5 -10q11 -5 23 -8t24 -5l-4 111l-3 76t-2 31q-3 14 -10 19q-4 3 -8 5l-23 5l-9 3l-65 25l18 -1l-31 31l-2 14l26 -13v8l-13 39l8 2l15 12l-2 -23q1 -4 5 -10q4 -5 11 -13t21 -19q5 -5 11 -8l12 -6l57 -3h47h17q14 0 34 0.5t49 1.5q5 1 13 1l53 11q9 -4 18 -7.5t18 -5.5
l-7 -2l25 -5l86 -30l27 -13l23 -19l19 -21zM619 535l16 -16l27 -15q-6 11 -16 18zM536 544l14 -10l28 -8q-5 8 -14 11zM230 607l10 -14.5t11 -14.5l27 -9zM317 556q-20 1 -31 0t-13 -2l28 -1l10 -1zM148 416q-1 -7 2 -17q2 -5 3 -8.5t3 -7.5q4 2 7.5 4.5t7.5 6.5q7 8 8 17
q2 11 -3 20q-5 12 -13 17q-4 -4 -9 -14q-5 -11 -6 -18zM242 234q6 -1 33.5 -6t59.5 -10v14q-12 2 -25 4.5t-28 7.5q-11 3 -29.5 10t-29.5 12t-21.5 11.5t-20.5 13.5t-18 15t-16 17t-13.5 19.5t-10.5 21.5q-16 6 -26 18q-12 13 -10 30q2 12 11 20q5 5 9.5 8t9.5 6l5 -12
q-8 -4 -14 -10q-5 -5 -7 -15t4 -19q6 -10 15 -13q0 5 -1 10v8q1 8 3.5 17t6.5 18q7 16 19 30q-4 3 -12 7q-8 2 -13 3q-17 1 -30 -3t-26 -15q-12 -10 -19 -23q-8 -14 -9 -28q-4 -20 4 -43q7 -20 21 -36q13 -16 32 -30q16 -12 36 -22l-10 6t-10 8q-10 9 -17 18q-4 5 -6 10.5
l-4 10.5q-3 14 -2 25q0 1 0.5 1.5t0.5 1.5t0.5 1t0.5 1l6 1q3 -2 5 -5q1 -1 3 -5q-1 -3 -3 -7q-4 -4 -5 -6q0 -10 7 -19q7 -7 13 -16q0 6 1 7q2 2 3 4l5 4q11 -4 21 -17q7 -11 4 -25q18 -14 45 -22q12 -4 25 -7.5t27 -5.5zM452 72l-1 3q0 -2 -0.5 -3t-0.5 -3l4 -19
q6 -11 13 -15zM535 239q3 4 5 7t1 8l-66 -13zM583 261l-21 -3l-2 -11zM672 401l-6 46q-7 19 -22 32l-73 28l-37 4l1 -8q-2 1 -7.5 4t-15.5 6t-24.5 4.5t-34.5 -0.5v1q-1 -2 -1.5 -3.5t-1.5 -3.5l3 -205l-1 -17l1 -18q14 0 24.5 0.5t16.5 0.5l45 12q2 0 10 2l8 2l44 16l30 18
l-46 2l-2 8l76 22zM714 404v21l-21 30l-11 4l6 -16l1 -84q12 8 20 18z" />
    <glyph glyph-name="Q" unicode="Q" horiz-adv-x="999" 
d="M949 290l-2 -51l-7 -45l-15 -34l-19 -29l-9 -11q-21 -44 -71 -81q7 -10 14 -19t12 -17l11 -16l24 -56l-1 -18l12 -19l-13 -5l5 -18l-15 -16l-20 -11l-17 -3l-104 14l-54 -6l-36 4l-17 9l7 3h53l8 3l-66 36l-4 11l-11 9l-2 5l16 1l83 -45l34 -10l18 5l38 21l8 12l-44 82
l-7 10l-1 -1q-26 -8 -60 -13h-1l-23 -2t-24 -1q-64 0 -131 28q-32 14 -54.5 31t-41.5 40q-3 3 -5 6l-4 6q-3 0 -4 -1q-30 -6 -60 -15q-28 -9 -59 -15q-15 -4 -30 -5t-30 0q-17 1 -33 6q-17 5 -31 14q-13 8 -25 23q-11 13 -15 30v5q0 9 4 16q3 8 10 14l17 -7q-3 -2 -6 -4.5
t-7 -5.5q-5 -5 -7 -14q0 -14 8 -23q8 -11 20 -20q14 -10 25 -14q16 -7 23 -7q6 -2 8 -2h7q32 -2 60 4q14 4 29 7t30 7q14 5 29 8t29 7h2q-12 19 -21 42q-11 2 -21 3l-21 2q-17 2 -34 3.5t-34 3.5q-43 6 -85 18q-44 14 -80 36q-36 21 -64 56q-26 31 -34 79v4q1 1 1 4
q1 11 3.5 20.5t7.5 19.5q8 18 25 33q8 7 17 12.5t19 9.5q22 8 41 7q6 -1 12 -1.5t11 -2.5q13 -3 23 -7q21 19 44 25q11 4 23.5 5t26.5 0q11 0 28 -5q16 -5 26 -13l10 -10t8 -11q7 -11 7 -28q-2 -26 -13 -36q-11 -13 -25 -17q-13 -6 -26 -9q-13 -4 -19 -16q0 -4 3 -8l3 -4.5
t2 -3.5v-1l5 -6q-16 0 -29 12q-15 11 -14 27q2 20 14 28q13 8 29 15q8 3 15 6t13 6q14 8 14 20q1 6 -4 15l-6 6t-7 5q-8 4 -17 7t-15 3q-42 2 -74 -26q9 -10 17 -23q6 -14 5 -28q0 -14 -8 -28q-4 -7 -8 -13t-9 -11q12 -10 25 -18t27 -15q27 -14 57 -24q27 -10 59 -18
q0 -1 1 -1v4q0 22 2 47t11 52q18 53 62 102q37 42 93 69q8 5 23 12t33 12q20 5 39 7t41 4q23 2 37.5 2t34.5 -2q1 -1 3.5 -1t4.5 -1q15 -3 31 -8h1v-1q37 -13 61.5 -35t35.5 -37q2 -2 4.5 -5.5t5.5 -8.5q1 -1 1 -2q4 -8 6 -13l22 -38l19 -33l11 -42zM857 -131l2 -3l7 8z
M855 -137q-4 2 -7 0h7zM842 -101q0 8 -3 17zM881 406q-10 -2 -15 -2l10 -19l22 -61l-1 23l-16 58v1zM891 150l-2 -1h1zM540 445q-21 -25 -38 -56t-17 -69q0 -26 2.5 -52.5t8.5 -49.5q5 -2 8.5 -3t7.5 -3l30 -8.5l50 -14.5t50.5 -16t32.5 -12h1q21 -8 40 -19q17 -9 35 -20.5
t32 -24.5q15 8 31 19q5 3 16 16l36 74l5 59l-6 64l-13 53l-12 29l-7 13l-3 6q-2 3 -4 7t-5 9q0 1 -1 1h1q-6 9 -15.5 19.5t-23.5 19.5t-32 15.5t-42 7.5v1q-14 1 -27 0.5t-26 -2.5q-30 -8 -52 -18.5t-36 -21.5q-17 -12 -28 -25zM681 91q-5 4 -22.5 10t-39.5 12.5t-45 12.5
l-41 11q2 -1 2.5 -2t1.5 -2q20 -22 45 -35q3 -2 6.5 -3.5l8.5 -3.5q26 -12 53.5 -16.5t51.5 -1.5h1q-11 12 -22 18zM173 405q-5 -15 -5 -22q-1 -12 3 -22q2 -5 5 -9.5t5 -9.5q11 7 17 16q8 10 8 21q1 12 -5 26q-6 11 -18 19q-6 -6 -10 -19zM382 159q-1 4 -5 14
q-11 2 -21.5 4.5t-21.5 5.5q-14 4 -28 9l-28 10q-26 11 -55 27q-24 14 -47 37q-22 22 -35 49q-19 5 -34 20q-17 13 -15 36q0 15 11 26q9 10 22 20l7 -15q-5 -3 -8.5 -6.5l-7.5 -7.5q-7 -11 -7 -19q-1 -11 7 -24q10 -13 21 -14q-2 3 -3 12q-1 4 -1 6.5v3.5q1 21 9 45
q8 23 20 40q-5 4 -15 7q-10 2 -17 2q-20 2 -37 -6q-9 -4 -16.5 -9.5t-14.5 -12.5q-14 -14 -21 -31q-9 -18 -9 -36q-2 -30 10 -53q10 -24 30 -44q10 -10 21 -18l23 -16q26 -16 48 -23q-8 3 -14.5 6t-13.5 8q-14 11 -22 21q-9 10 -16 26q-5 17 -4 31v4q1 1 1 3l8 1q3 -1 7 -5
q1 -2 2 -3t2 -3q-2 -6 -4 -10l-2 -4t-3 -4q3 -15 11 -23l18 -18q0 7 1 8t3 6l6 6q17 -6 27 -19q12 -15 9 -31q25 -16 58 -24q17 -3 33.5 -5.5t33.5 -4.5t35 -3l35 -2h7zM823 -74l-1 18l-26 53l-38 39l2 -10t2 -9zM928 244l-24 -71l-11 -17l15 11l12 18zM930 247l-2 87
l-10 30q-4 11 -8 14l9 -33z" />
    <glyph glyph-name="R" unicode="R" horiz-adv-x="856" 
d="M824 103l24 -73l-8 -23l-29 41l-7 -13l-12 -70l-15 3l-32 -6l22 33q2 8 1 20q-2 11 -6.5 28.5t-17.5 45.5t-29 48t-31 34q-18 16 -36 26q-5 2 -11 6q-5 3 -12 6.5t-15 8.5q-28 11 -61 20l-65 17v-4v-36v-58v-52l11 -33l13 -26l17 -14l13 1l25 16l10 3l-16 -27l-2 -8
l-9 -11l-14 -6h-18l-20 5l-3 1q-16 2 -34 2h-38q-27 0 -52.5 -1.5t-50.5 -5.5q-5 -1 -11.5 -1.5t-15.5 -0.5q-1 6 -1 11v8v5t1 7l26 9q29 9 48 20q4 12 4 24v10q-1 7 -1 16.5v21.5l-1 122q-16 3 -34.5 6t-34 6t-27 5t-12.5 2q-14 2 -27 4.5t-27 5.5l-32.5 8.5t-33.5 11.5
q-33 13 -62 34q-28 21 -47 49q-20 28 -21 66q-2 1 0 3v3q3 17 12 32q10 16 23 24q13 10 30 15q16 6 33 3q5 -1 9 -2t9 -3l9 -3.5l9 -3.5q19 14 37 17q17 4 40 1q10 -1 22 -6l10 -6t10 -7q9 -9 13 -18q4 -10 3 -23q-3 -19 -12 -28q-12 -8 -21 -11q-6 -2 -11.5 -3t-10.5 -3
q-10 -1 -16 -10v-2q0 -3 2 -6q1 -5 3 -6v-1l4 -6q-6 2 -12 4.5t-11 7.5q-10 10 -9 23q1 14 13 21q6 3 12 5.5t12 4.5q7 2 12.5 4l11.5 4q10 4 12 15q1 5 -2 12q-4 6 -10 10q-5 4 -13 7l-12 3q-32 5 -61 -15q7 -8 12 -20q4 -12 3 -23q-2 -12 -9 -22q-6 -9 -15 -18
q4 -4 12 -11l17 -14.5l17 -14t13 -9.5q23 -14 39 -19.5t27 -10.5q21 -8 43.5 -13t45.5 -8l-2 70q-3 97 -5 107q-3 14 -10 19l-32 13q-2 1 -4.5 1t-4.5 1l1 1l-21 8l18 -1l-31 31l-3 14l27 -13v8l-13 40l8 2l16 12l-3 -24q1 -4 5 -10q4 -5 11 -13t21 -19l36 -2l47 1h17h34.5
t49.5 2q17 1 24.5 2t11.5 1q2 0 5 -0.5t5 -0.5l-1 -1l117 -23l51 -37l24 -29l34 -63l8 -35l-1 -19l-7 -19l-11 -19l-28 -26l-16 -7l-51 -16l-55 -5l-53 7q27 -9 55 -20t51 -24l3 -1l35 -19l36 -29l90 -103zM727 313q7 3 15 9l-86 -17l-69 -3q-8 -2 -29.5 -1.5t-39.5 0.5
l8 -2t9 -3h61l24 -2l45 2l42 9zM346 557q1 0 1 1q1 2 -8 4.5t-17 4.5l3 -3zM740 345q2 2 5 4.5t5 5.5l-15 -8l-9 -8zM533 558q-8 -5 -5 -8.5t11 -5.5l35 3l-2 4l-41 3zM485 522q-2 -2 -2.5 -5t-1.5 -5l3 -191q3 1 20 1.5t37 1t36.5 1t16.5 1.5l16 2l47 8l34 7l43 26l23 24
l1 15l-22 44l-12 14l-41 37l-42 19l-39 7l-70 1zM304 593l6.5 -10.5t7.5 -10.5h13zM132 467q-1 -8 2 -18q1 -4 2.5 -8t3.5 -8q4 2 7.5 5t7.5 6q7 8 8 17q1 10 -3 21q-4 10 -13 17q-5 -5 -9 -15q-5 -11 -6 -17zM227 283q4 -1 19 -3.5l35 -6l42 -7.5t41 -7v17q-20 2 -43.5 5
t-52.5 11q-11 3 -30 10.5t-30 12.5t-21.5 11.5t-20.5 13.5q-10 8 -18.5 15.5t-16.5 17.5q-15 17 -25 41q-14 6 -26 18q-12 13 -10 30q3 13 11 21l9.5 7.5t9.5 6.5l5 -13q-7 -3 -14 -10q-5 -5 -7 -14q-1 -9 4 -20q6 -10 16 -13q-1 2 -1 10q-1 4 -1 8q2 8 4 17t7 18
q4 9 8.5 17t10.5 14q-6 4 -12 6q-4 2 -14 4q-15 1 -30 -3q-14 -5 -26 -15q-5 -5 -10 -11t-9 -13q-7 -12 -10 -28q-3 -23 4 -43q7 -19 22 -37q13 -16 32 -30q18 -13 37 -22l-10.5 6t-10.5 8q-11 9 -16 18q-8 12 -11 22q-3 14 -1 25v2q1 1 1 3h7q3 -1 4 -4q2 -2 2.5 -3t1.5 -2
q-1 -4 -4 -8q-2 -2 -2.5 -3t-2.5 -3q2 -11 8 -19l12 -15q0 4 2 6t3 4l5 4q12 -5 20 -17q8 -11 5 -25q21 -16 45 -23q27 -8 53 -12zM482 68v3q0 -2 -0.5 -3t-0.5 -3l4 -18q7 -12 13 -16zM625 217q56 -41 92 -56.5t42 -17.5l-43 25l-70 45zM781 28q-1 13 -2.5 29t-5.5 31
l-34 36z" />
    <glyph glyph-name="S" unicode="S" horiz-adv-x="729" 
d="M673 251q10 -24 10 -65q0 -44 -16 -83q-4 -11 -11 -21t-16 -20q-15 -15 -42 -32q-29 -19 -59 -27t-75 -8h-1q-29 3 -53.5 7.5t-40.5 9.5q-2 1 -3 1t-3 1q-1 0 -1.5 0.5t-1.5 0.5q-4 1 -6.5 2t-3.5 1l-28 10t-31 13q-1 0 -1.5 0.5t-2.5 0.5l-25 13t-28 16l-26.5 19.5
t-25.5 20.5q-20 19 -34 38q-8 10 -14 20.5t-11 21.5q-11 23 -12 49q-12 9 -21 26q-8 15 0 32q4 10 17 17q13 5 23 8l1 -14q-8 -1 -17 -5q-8 -5 -11 -13q-5 -10 -2 -21q3 -12 11 -17q1 2 1 4.5t1 5.5q1 4 1.5 5.5t0.5 2.5q8 18 21 32q13 16 28 25q-4 6 -10 10q-3 2 -6 3.5
t-6 3.5q-15 7 -31 6q-17 0 -30 -7q-13 -5 -26 -18q-12 -11 -18 -24q-11 -23 -9 -44q1 -21 11 -43q7 -19 23 -40q14 -18 29 -32q-9 8 -16 19q-4 6 -6.5 11.5t-4.5 11.5q-4 11 -4 25q0 13 6 25q0 1 0.5 1.5t0.5 1.5l2 2l7 -2q1 -1 3 -5q0 -2 0.5 -3.5t0.5 -3.5q-1 -2 -5 -6
q-3 -1 -7 -5q-2 -12 2 -21q2 -5 4 -9.5t4 -9.5q1 4 3 6q1 1 2 1.5t2 2.5l7 2q11 -9 15 -23q5 -14 -3 -26q16 -22 38 -36q11 -8 23 -15t25 -13l170 -85q-1 -2 -4 -5l-23 11.5l-46 23.5l-46.5 23.5l-23.5 11.5q-13 7 -25.5 13t-24.5 13q-15 8 -30 18t-30 22q-15 11 -27.5 24.5
t-23.5 27.5t-19 29.5t-13 32.5q-10 33 -2 72q0 1 0.5 1.5t0.5 1.5q2 2 2 3q9 17 21 27q13 12 29 18t35 6q16 0 34 -8q4 -2 8 -4.5t8 -4.5q4 -3 7.5 -6.5t7.5 -6.5q22 9 42 6q19 -1 40 -11q5 -2 10 -5t10 -8q11 -9 16 -18q7 -12 8 -22q1 -12 -4 -23q-9 -20 -21 -24
q-12 -6 -24 -6q-6 1 -12 1h-11q-12 1 -19 -6q-1 -2 -1 -7q2 -6 2 -7l-1 -1l3 -7q-10 5 -20 18q-8 14 -2 26q8 14 20 17t26 3h14t12 1q12 0 17 10q3 6 1 13q-1 5 -7 13q-4 6 -10 10q-3 2 -6 3.5t-5 3.5q-31 15 -65 3q4 -10 6 -23q0 -14 -4 -23q-6 -11 -15 -19q-10 -8 -21 -14
q3 -6 9 -15l12 -18.5t12.5 -18.5t11.5 -14q8 -9 15 -16t14 -12q1 1 1 2t1 3q7 10 14 16t19 11q12 3 21 2q4 0 12 -2q3 -2 5.5 -2.5t5.5 -2.5q10 9 23 12q14 3 26 2q3 -1 6.5 -1.5t7.5 -2.5q8 -3 13 -7q6 -4 9 -11q3 -8 3 -15q-1 -11 -8 -18q-5 -5 -13 -8q-6 -2 -14 -4
q-5 -1 -9 -7v-1q-1 -1 1 -4l2 -4l3 -4q-8 2 -15 7q-7 6 -7 15q1 8 8 13q4 2 7.5 3.5t7.5 3.5q9 3 15 6q7 3 8 10q0 5 -2 7q-3 4 -6 6t-9 4t-7 2q-20 3 -39 -11q6 -8 8 -12q3 -8 2 -15q0 -7 -5 -14q-3 -6 -9 -12q1 -1 7 -7.5t15.5 -14.5t22 -17t27.5 -15l15 -5.5t14 -4.5v1
q4 -2 12 -3.5t18.5 -3t21.5 -2.5t20 -1q12 1 25.5 3.5t27.5 7.5q29 10 47 34t18 50q0 34 -31 62q-19 17 -102 47q-42 14 -70 27.5t-44 24.5q-31 23 -51 62q-18 37 -18 74q0 71 51 121q50 50 152 50q9 0 28.5 -3t36.5 -11l65 -19l-23 -1l44 -36l4 -18l-35 14l1 -11l20 -49
l-11 -4l-18 -16l1 30q-1 6 -7 13q-5 6 -15.5 15t-29.5 22q-28 19 -54 24.5t-40 5.5q-34 -3 -56 -22q-26 -24 -26 -58q0 -28 26 -56q24 -26 106 -50l30.5 -11t36.5 -15q40 -18 59 -39q26 -28 37 -54zM602 502l-13.5 17.5t-15.5 17.5l-36 9zM148 266q1 -5 1 -9t1 -9q5 1 9 3
t9 4q9 6 13 14q4 10 3 22q0 9 -7 20q-6 -2 -14 -12q-8 -8 -11 -15q-4 -8 -4 -18zM307 148q-3 -6 -3 -11q-1 -5 1 -11q2 -3 2.5 -5.5t2.5 -5.5q3 2 9 8q3 3 5 11q0 7 -3 13q-4 8 -8 11q-2 -2 -6 -10zM239 142q-2 -4 -2 -6q5 -5 9.5 -8t8.5 -6q8 -7 17.5 -13t18.5 -11
q0 1 -2 5q-11 3 -18 11q-8 7 -6 18q0 8 6 14l12 9l3 -8q-6 -4 -8 -6q-4 -4 -4 -10q-2 -6 3 -12q3 -6 10 -8q0 1 -0.5 2.5t-0.5 3.5q-1 1 -1 4v1q2 11 6 23q5 13 12 20q-4 3 -8 4q-2 1 -4.5 1t-4.5 1q-10 0 -19 -3q-5 -2 -8.5 -4.5l-7.5 -5.5q-8 -8 -12 -16z" />
    <glyph glyph-name="T" unicode="T" horiz-adv-x="921" 
d="M858 387l16 -70l-14 -3l-28 -18l8 40q0 7 -6 18q-5 10 -17 24.5t-34 35.5q-22 20 -44.5 32t-40.5 19q-17 2 -39.5 3t-44.5 3v-22q18 -5 44 -11.5t51 -14t45.5 -15t27.5 -13.5q-1 -2 -1 -3.5t-2 -3.5q-1 -2 -0.5 -4t-0.5 -4q-3 3 -9.5 6.5t-11.5 5.5q-2 0 -18.5 4t-39 8.5
l-46 9.5t-39.5 8v-6v-125l2 -136v-44q1 -9 4 -19q2 -8 6.5 -18.5t12.5 -20.5q3 -3 3 -5l16 -9h13l24 16l11 4l-16 -27l-2 -8l-9 -11l-14 -7h-18l-13 4q-7 0 -12 0.5t-11 0.5q-17 -1 -44 0t-68 1q-7 0 -25.5 -1.5t-49.5 -3.5q-13 -1 -20.5 -1h-11.5q0 3 -0.5 5t-0.5 4v10v3
q9 13 35 19q12 2 21.5 5t17.5 5q11 7 17 15.5t8 16.5q3 9 3 18h1q1 26 1.5 61.5t0.5 82.5l-3 161v7q-14 -4 -31 -11l-27 -13.5t-27 -14.5t-27 -14.5l-27 -13.5q-27 -12 -57 -18q-8 -1 -16.5 -1.5t-17.5 0.5q-18 2 -33 7q-16 6 -29 16q-14 13 -21 26l-1 5q-1 8 0 17q1 7 7 15
l18 -3l-5 -5t-5 -7q-4 -7 -4 -15q3 -13 13 -21t23 -14q14 -6 28 -9q15 -3 24 -2h7q2 1 4 1t4 1q27 4 57 17q14 6 26.5 12.5l26.5 13.5q27 15 54 27q18 7 36 12v30q-22 0 -37 -3q-17 -3 -34 -3.5t-34 -2.5l-34 -4l-34 -4q-20 -2 -41.5 -3t-44.5 1q-44 3 -86 17
q-20 8 -38.5 17.5t-34.5 23.5q-34 26 -50 69q-1 1 -1 4v4q-4 19 1 41q5 19 18 38q13 17 30 29q16 12 38 15q6 1 11.5 1.5t11.5 0.5q6 -1 12 -1t12 -1q15 22 37 34q21 10 47 15q11 3 28 1t28 -7q13 -6 23 -16q9 -10 12 -26q4 -24 -4 -37q-5 -7 -9.5 -12.5t-11.5 -9.5
q-10 -8 -23 -15q-12 -6 -15 -18v-1q1 -2 2 -3.5t3 -3.5q5 -5 6 -7l7 -6q-16 -2 -31 5q-17 7 -20 24q-3 18 8 30q5 6 11.5 11l13.5 10q6 5 12.5 9t11.5 9q11 9 10 22q-2 8 -8 13q-5 4 -15 8q-5 2 -9 2.5t-9 1.5q-11 0 -15 -1q-40 -6 -66 -41q13 -8 21 -19q9 -12 12 -25
q1 -8 0.5 -15t-2.5 -14q-2 -8 -5 -14.5l-6 -13.5q28 -14 57 -20q15 -4 30 -6.5t30 -4.5q16 -2 31 -3l31 -2q15 -1 30.5 -1.5t30.5 -1.5q8 0 23.5 -1l31.5 -2l9 85l9 4l-3 -91h10l1 11q8 16 11 36l-12 32l15 -15l11 30l23 21l19 30l12 -3l-2 -31l-9 -2l-3 -33l19 -30v-52
l32.5 -2t31 -2.5t24.5 -3t14 -2.5l6 -1l44 -13l123 -60l-31 5l50 -58l2 -25l-43 27zM631 38l-10 24q-4 4 -6 5l3 -14q6 -11 13 -15zM167 653q-1 -13 0 -22q1 -11 8 -21l7 -8.5t7 -7.5q7 7 13 19q5 11 3 22q-1 13 -11 24q-9 10 -21 15q-5 -8 -6 -21zM485 466q5 0 7 -1v10h-30
t-23 -1q-18 -2 -34.5 -2t-32.5 1q-14 2 -29 3.5t-30 3.5t-30 5.5t-29 8.5q-30 9 -54 25q-23 15 -44 40q-10 1 -19 3.5t-19 8.5q-19 11 -22 31q-3 15 5 29q7 12 17 23l11 -13q-9 -7 -13 -17q-5 -9 -3 -20q1 -10 12 -21q10 -10 23 -10q-1 2 -2 4.5t-3 6.5q-3 7 -3 10
q-4 20 -1 45q3 27 11 44q-8 3 -16 3h-9t-9 -1q-10 -2 -18 -5.5t-16 -9.5q-15 -11 -25 -27q-5 -8 -8.5 -17t-5.5 -18q-4 -18 -1 -37q4 -28 21 -49q16 -21 39 -36q22 -14 50 -23q14 -5 26.5 -8t24.5 -5q-16 3 -29 9q-15 6 -27 15q-13 9 -21 22t-11 29v3v3l8 3q4 0 7 -3
q2 -2 3 -2.5t3 -2.5q0 -7 -2 -10l-3 -9q6 -13 16 -20l10.5 -6.5l10.5 -6.5q-1 3 -1 7q1 2 1 3.5t1 3.5l5 7q15 -2 30 -13q13 -9 15 -28q27 -10 62 -10q16 0 33 1.5t34 3.5t34 4.5t35 5.5q17 3 34 4.5t34 2.5zM759 398q-5 3 -18.5 8t-33 11t-44 12l-49.5 12v-14l36.5 -7.5
l42 -8.5t35.5 -7.5t17 -3.5q8 0 14 -2zM840 371l-13.5 26t-17.5 27l-33 14v-6z" />
    <glyph glyph-name="U" unicode="U" horiz-adv-x="884" 
d="M828 288l-22 -156l-12 -51l-32 -63l-40 -25l-26 -6l-26 6l-10 9l27 -3l28 4l23 9l16 15l23 42l20 72l3 34l-2 8l-31 -95l-13 -19l-17 -15l-19 -12l-24 -9l-35 -9q-7 -2 -13 -4t-11 -3q-21 -7 -46 -10t-53 -3q-65 0 -111 18q-11 4 -21 9t-19 10q-16 9 -38 23.5l-45.5 30.5
l-46 32.5l-40.5 29.5q-9 7 -24 20.5t-23 22.5q-17 18 -30 39q-13 19 -21 43q-7 21 -7 48q-13 11 -18 26q-6 17 2 31q6 12 18 15q5 2 11 3.5t11 3.5v-14q-5 0 -8.5 -1t-7.5 -3q-7 -3 -12 -11q-2 -5 -3.5 -9.5t0.5 -10.5q2 -11 9 -17q1 2 1 4t2 5l2 8q9 15 23 29q13 13 29 21
q-3 7 -9 11q-2 2 -5 4l-6 4q-14 8 -29 8q-13 1 -30 -4q-15 -7 -26 -15q-6 -5 -11 -10.5t-9 -12.5q-11 -20 -12 -42q0 -22 7 -42q3 -11 8 -20.5t11 -19.5t12.5 -18l13.5 -16q-4 5 -7.5 10t-6.5 11q-6 10 -9 23t-2 24q2 14 8 24q0 1 0.5 1t0.5 1l2 2l6 -2q3 -3 3 -6q1 -2 1 -6
q-2 -4 -6 -5q-3 -3 -7 -4q-3 -11 1 -21q2 -5 3 -9.5t3 -9.5q2 5 3 5q1 1 2 1.5t3 2.5l6 1q8 -8 13 -23q3 -14 -6 -25q15 -23 34 -38l22 -15.5l23 -15.5q3 -2 15 -9.5l28.5 -17t34.5 -21t34.5 -21l28.5 -17t16 -9.5q-3 -3 -4 -5q-2 1 -21.5 13l-42.5 26.5l-43 26.5t-22 13
l-23.5 14t-22.5 15q-14 9 -27.5 20l-27.5 23q-13 13 -24.5 26.5t-20.5 28.5q-19 29 -26 62q-6 35 5 70q0 2 1 2q1 1 1 1.5t1 1.5q4 8 9.5 14t12.5 11q12 9 30 14q15 4 33 4q9 -1 16.5 -3.5t15.5 -6.5q5 -2 8.5 -5t7.5 -6l13 -13q23 6 41 2q18 -3 37 -14q5 -3 9.5 -6t9.5 -8
t8 -9.5t6 -9.5q4 -8 6 -21q0 -11 -6 -23q-9 -16 -22 -21q-12 -5 -24 -3q-6 0 -11.5 0.5t-10.5 1.5q-10 3 -18 -4h-1q-1 -2 -1 -7q1 -3 1 -7v-1l1 -7q-9 5 -17 20q-6 13 0 24q7 13 20 15q7 1 13.5 1h12.5q7 -1 13 -1t12 -1q13 0 17 10q3 5 2 12q-2 8 -5 12q-6 8 -10 11
q-3 4 -9 8q-30 17 -63 8q4 -9 4 -23q0 -12 -6 -22q-5 -9 -16 -17q-7 -6 -21 -11l7.5 -15.5t10 -19.5t11 -19t9.5 -14q16 -21 28.5 -32.5l20.5 -18.5q18 -17 39.5 -31t42.5 -25q-2 15 -3.5 35t-1.5 45v200q0 72 -7 80q-9 13 -57 14q-5 0 -9.5 0.5t-8.5 0.5l-1 33q4 0 7.5 0.5
t7.5 0.5q11 0 22 -0.5t22 -1.5q55 -3 65 -3q17 0 33 0.5t33 1.5h16l25 1l13 -2l16 -6l11 -11l5 -13l-1 -8l5 -30l-8 7l-17 23l-12 -3l-19 -2l-26 -9q-1 -7 -1.5 -16.5t-0.5 -22.5v-32.5t1 -61.5q0 -39 1 -88l5 -106q1 -44 20 -75q14 -24 38 -35q34 -18 68 -18q39 0 75 11
q11 2 21 5.5t19 10.5l6 4l17 15l16 21l22 42l20 74l-1 206l-2 94l-9 64l12 9l12 -39l9 -61l1 58l14 -2l-1 12q9 -1 15 -14l7 -28l4 -106zM148 335q8 0 18 5q9 4 13 13q6 9 6 20l-2 10t-4 10q-5 -1 -14 -10q-9 -7 -12 -14q-5 -8 -5 -17v-17zM690 68q0 -2 2 -4l13 2l13 22z
M746 94q-2 -5 -4 -9t-3 -9z" />
    <glyph glyph-name="V" unicode="V" horiz-adv-x="772" 
d="M743 651l-19 -82l16 11l-37 -81l4 -6q14 17 31 24l-14 -33l-273 -471q1 -8 1 -16.5v-18.5h-25l-34 -52l-10 16l3 29l-21 -29l-4 -2l-5 -1l-5 32l13 34v3q-2 6 -11 29l-25 62l-22 50q-9 12 -18 21q-15 17 -30 32l-31 30l-31 29.5l-30 30.5q-35 35 -69 83q-17 23 -29.5 47
t-22.5 50q-17 50 -19 103q0 52 29 104q1 2 3 4q1 1 2 1.5t2 1.5q16 20 41 31q24 12 51 13q26 2 52 -6q25 -7 45 -26q10 -7 20 -21q5 -6 8.5 -12t8.5 -13q33 3 62 -9q26 -11 53 -33l12 -12.5t11 -14.5q10 -17 15 -33q5 -19 2 -35q-1 -16 -15 -33q-22 -24 -40 -25
q-20 -3 -38 3q-9 2 -17 5l-16 6q-15 6 -30 0v-1q-2 -2 -4 -10q0 -9 -1 -11l-1 -1v-11q-13 13 -19 35q-6 21 8 38q15 17 35 15q10 -1 20 -2.5t20 -4.5l19 -5.5t18 -4.5q19 -3 29 9q7 7 7 17q0 12 -4 21q-2 6 -5 10.5t-6 9.5q-6 9 -12 15q-38 34 -93 32q2 -14 -1 -36
q-5 -18 -16 -31q-12 -14 -30 -21q-18 -8 -35 -11q5 -19 11 -37t14 -35t17 -34t20 -34l21 -32t23 -31l22.5 -31.5l22.5 -30.5l15.5 -21.5l15.5 -22.5q2 0 2 1q2 -4 3 -7t3 -7q2 -2 2 -3q23 -33 33 -67q2 -5 2.5 -8.5t2.5 -7.5q2 7 5 13t6 13l-2 -16l97 178l17 47l-18 -12
q11 21 20.5 42l19.5 42l24 13l11 18l118 252l-9 -40zM279 620q-12 -1 -26 -10l-12.5 -9t-9.5 -9q-8 -10 -13 -24l-6 -27q14 -1 29 3q15 3 25 14q10 12 15 30q3 16 -2 32zM261 213q8 -7 14.5 -13.5l13.5 -13.5l-1 3l15 3q-2 2 -4.5 5t-5.5 6q-16 16 -29 32t-24 33
q-22 30 -41 62q-21 35 -32 69q-14 34 -18 72q-5 39 4 75q-7 10 -12 21t-7 25q-4 27 14 47q11 14 31 17q21 3 37 2l-5 -20q-14 2 -26 -1t-22 -13q-11 -13 -11 -29q-2 -18 9 -30q2 5 7 13q4 9 6 11q18 21 44 37q25 16 51 24q-2 5 -4.5 9.5t-5.5 8.5q-5 8 -15 16q-17 16 -41 22
t-47 3t-45 -14q-11 -6 -20 -13t-17 -15q-23 -26 -31 -60q-7 -31 -4 -66q5 -36 16 -67q7 -17 14 -31.5t15 -28.5q-9 16 -15 36q-6 18 -6 37q-1 19 5 38q6 18 19 34q2 2 3 2q2 1 4 3l9 -5q2 -6 2 -10v-10q-3 -2 -5.5 -3t-5.5 -3l-6 -2l-6 -2q-9 -17 -6 -31q1 -8 1.5 -15.5
t1.5 -15.5q4 6 7 7q4 2 8 3l10 1q10 -16 12 -40q0 -23 -16 -36q11 -36 39 -68l28 -31.5t30 -30.5l31.5 -30t32.5 -29zM578 378l6 -5q3 3 5 8zM560 312l10 21l10 24l-12 -18zM607 325l-45 -68l-6 -26l42 68zM664 447l-47 -82l-14 -29l18 27zM715 605l6 11q-2 -5 -6 -11z" />
    <glyph glyph-name="W" unicode="W" horiz-adv-x="1183" 
d="M1143 653l-20 -81l17 10l-37 -80l4 -6q13 15 30 24l-13 -33l-285 -492l-23 -24l-8 -11l-4 -2l-5 -1l-6 32l13 30l-4.5 13t-4.5 12q-2 7 -11 29.5l-25 62.5l-79 178l-23 53l-198 -341q-3 -21 -17 -43q-3 -2 -11 -8l-5 5l-8 -9l-8 -11l-5 -2l-5 -1l-5 32l8 19v12t-2 11
q-13 37 -40 73q-25 34 -58 68q-30 32 -54 65q-11 15 -20.5 30.5l-19.5 32.5q-19 32 -33 68t-18 73q-5 38 4 74q-15 21 -19 47t14 46q12 15 32 18q9 1 18 1.5t18 0.5l-5 -21q-11 2 -26 -1q-13 -3 -22 -13q-9 -9 -11 -29q-1 -17 9 -29l2.5 5t4.5 8q5 10 6 11q9 10 19.5 19.5
t24.5 17.5q27 17 51 23q-2 5 -4.5 9.5l-5.5 9.5q-3 4 -6.5 8t-8.5 8q-17 16 -41 22t-47 3t-45 -15q-22 -11 -36 -28q-25 -28 -32 -59t-4 -67q2 -17 6 -33.5t11 -33.5q6 -17 13 -31.5t15 -27.5q-9 16 -15 35t-6 38q-1 17 5 38q6 19 19 33q2 2 4 3l3 3l9 -6q2 -6 2 -9v-10
q-7 -5 -11 -6q-4 -2 -12 -4q-8 -15 -6 -31q1 -8 1.5 -16t1.5 -16q4 7 7 7l8 4h10q10 -17 12 -39q0 -22 -16 -37q6 -18 16 -35t23 -33q27 -31 58 -61l31.5 -30l32.5 -30q35 -30 61 -62q28 -34 45 -70q10 -21 15 -44q-8 5 -16 6q-5 16 -12 31t-15 29q-24 38 -51 68
q-29 32 -61 61l-31 30l-30 30q-18 19 -35 39.5t-34 43.5q-33 47 -51 97q-19 51 -19 104q-1 51 28 104q1 1 1.5 2t1.5 2q2 1 4 3q17 20 42 31q24 10 50 12t52 -6t45 -25q6 -5 10.5 -10.5l9.5 -11.5q5 -5 8.5 -11.5t8.5 -12.5q34 3 62 -9t53 -34q13 -11 23 -27q10 -15 15 -33
t2 -35q-1 -15 -15 -32q-22 -23 -40 -26q-20 -2 -38 3q-18 6 -33 12q-16 6 -29 -1l-1 -1q-3 -3 -3 -10q-1 -3 -1 -5.5t-1 -4.5v-1v-11q-13 11 -20 34q-6 22 8 38q16 17 35 16q22 -2 40 -7q10 -3 19.5 -5.5l17.5 -4.5q18 -5 29 8q7 7 7 18q0 12 -4 21q-2 5 -4.5 10t-6.5 10
q-7 10 -12 14q-39 34 -93 33q2 -9 1.5 -18t-2.5 -18q-5 -19 -16 -32q-12 -14 -30 -21q-8 -4 -17 -6l-18 -4q9 -40 25 -73q17 -36 37 -67l21.5 -32.5t22.5 -31.5q11 -16 22.5 -31t22.5 -31q11 -14 21 -28.5l21 -31.5q10 -17 18 -33l9 16l12 -9q0 2 1 2l-1 -2q2 -1 2.5 -1.5
t2.5 -1.5l91 168l17 46l-18 -11q11 21 20.5 42l19.5 42l24 13l11 18l74 171l-10 -40l8 -14l-15 -63q2 -1 2.5 -2t2.5 -3l38 59l-32 -67q4 -8 5 -13q0 -2 3 1t6 7l5.5 7.5l2.5 3.5v-1q5 8 9.5 13t6.5 6l-12 -28l16 -40.5l25 -61.5l29.5 -72.5l29.5 -72.5l25 -61.5l16 -40.5
l88 162l17 46l-18 -11l20 42l20 42l23 13l11 18l119 251l-9 -40zM229 537q-2 -6 -3 -12.5l-2 -13.5q12 -1 29 2q15 4 24 15q6 6 9.5 13.5t5.5 15.5q3 16 -2 33q-10 -1 -26 -11q-12 -8 -21 -17q-9 -10 -14 -25zM673 527q3 3 4 6l2 6zM581 381l6 -6q4 6 5 9zM563 315l10 20
l10 25l-12 -19zM610 328l-45 -69l-6 -26l42 68zM643 404l-1 3l-22 -40l-14 -29l18 28zM834 22l-2 9q-2 -8 -3 -15.5l-2 -15.5l1 2zM977 381l6 -6q5 5 5 9zM959 315l10 20l11 25l-12 -19zM1007 328l-45 -69l-7 -26l43 68zM1063 449l-47 -82l-13 -29l17 28zM1115 608q5 5 5 11
z" />
    <glyph glyph-name="X" unicode="X" horiz-adv-x="857" 
d="M818 54l-16 -28l-2 -7l-9 -11l-14 -7h-18l-14 4h-8l-54 4h-6q-5 1 -8 1h-5q-27 0 -66 -3q-19 -1 -33 -1.5t-23 -0.5h-14.5t-22.5 1v11v8t1 8q34 9 72 15q6 4 10 6q0 3 1 5q2 18 -7.5 41t-25.5 47.5t-36.5 49t-40.5 45.5l-3 3q-2 3 -5 5.5t-5 4.5l-42 -44v3l-175 -170
l-50 -39l-55 -17l-70 8l-17 10l-15 17l-6 19l3 17h5l14 46l5 -13l5 -36l6 -16l36 -1l36 11l168 172l65 77q-15 7 -31.5 13.5l-27.5 10.5l-31.5 12t-30.5 13q-19 8 -37.5 17t-37.5 21q-38 22 -66 54q-29 32 -45 68t-11 83q0 3 1 4q0 1 0.5 1.5t0.5 1.5q8 20 21 35t32 24
q18 9 39 12q23 2 40 -5q6 -2 11 -4t10 -5t9.5 -6t9.5 -6q24 12 48 12q21 0 48 -8q12 -5 24 -12q14 -9 21 -19q9 -12 12 -25q4 -12 -1 -27q-7 -23 -21 -31t-27 -9q-8 -1 -14.5 -1.5t-13.5 -0.5q-11 0 -21 -10q-1 -2 1 -9q2 -6 2 -8l3 -8q-14 5 -24 19q-11 12 -6 29
q6 16 20 22l15.5 4t15.5 3l15.5 2l14.5 2q13 3 18 15q2 6 -1 15q-3 7 -9 13q-3 4 -6.5 6.5t-7.5 4.5q-8 6 -13 7q-37 13 -76 -5q7 -11 10 -26q3 -14 -2 -27q-5 -14 -15 -24t-22 -19q9 -12 19 -23t21 -21t22.5 -19t24.5 -18l24.5 -16t26.5 -16l25.5 -15.5l25.5 -15.5
q16 -9 26 -16l4 4l-2 -5q30 34 56 68l32 9l18 18l214 265l-23 -44l6 -20l-47 -91l23 8l-68 -86l4 -8q20 15 43 20l-26 -36l-153 -160q24 -21 69 -69t119 -140l27 -29l19 -25l17 -13h13l24 16zM696 617q7 5 10 12zM202 65l-54 -32l-48 -16q10 -3 25 0l53 29zM222 53l-18 -20
l14 14zM432 286q-1 0 -2 1l-1 -2zM488 333q1 0 1 -1l25 24l75 87l-80 -84zM467 387l5 -9q7 4 9 9h-14zM458 355l1 -1l5 7zM239 617q-8 -5 -15 -15q-4 -6 -6.5 -10.5t-4.5 -9.5q-3 -12 -2 -21l2 -10.5l2 -10.5q10 3 20 11q9 6 14 18q3 14 1 25q-3 13 -11 23zM350 320
q7 -2 16.5 -6l18.5 -8l5 6l-39.5 22t-32.5 19l-24 16l-24 16q-26 19 -44 39q-20 21 -35 47q-8 12 -12.5 26t-7.5 28q-8 5 -15 12t-12 16q-11 17 -5 37q6 15 18 22q14 9 25 13l3 -16q-11 -3 -18 -9q-9 -6 -12 -16q-4 -9 1 -24q4 -14 15 -18v4.5t1 6.5q0 5 0.5 7t0.5 3
q4 10 8.5 19.5t11.5 20.5q14 21 30 32q-6 5 -13 10q-4 2 -7.5 3.5t-7.5 3.5q-18 6 -37 3q-17 -1 -34 -12q-17 -10 -28 -24q-11 -13 -18 -31q-8 -29 -4 -52t17 -49q7 -11 15 -21.5l17 -21.5q10 -10 19.5 -18l19.5 -16q-11 8 -22 21q-10 13 -15 25q-4 7 -5.5 14t-2.5 15
q-2 16 4 30q0 2 1 3t1 3l8 -1q3 -2 5 -7q2 -4 3 -7q-2 -2 -3 -4t-3 -4t-4 -3t-4 -3q0 -15 5 -24q4 -5 6.5 -10.5t5.5 -10.5q2 6 3 7t2 1.5t3 2.5l7 4q12 -8 20 -25q8 -16 0 -31q21 -22 49 -37q14 -7 29 -13.5t31 -12.5l31.5 -12t32.5 -11zM394 276l-24 -35l52 51q-6 4 -11 7
l-2 -4h1l-2 -2l-1 -4l-14 -6zM418 257l-18 -16l-9 -16l17 16zM452 270l-3 3q-1 1 -2 1l-4 -12v-1z" />
    <glyph glyph-name="Y" unicode="Y" horiz-adv-x="773" 
d="M742 646l-25 -63l14 6l-39 -61l2 -5l13.5 9.5t14.5 6.5l-15 -26l-203 -256v-190q1 -7 2 -10.5t3 -5.5l20 -10l24 -4l27 18l11 4l-17 -31l-3 -9l-10 -12l-16 -7l-20 -1l-14 3l-16 2l-16 1q-11 1 -27 1.5t-36 0.5h-9q-9 -1 -14.5 -1t-7.5 -1q-14 -1 -35.5 -1.5t-50.5 -0.5
q0 13 3 31l56 10q5 2 12.5 3.5t11.5 3.5q3 2 5 7l2 6v123l-18 18t-20 17q-33 27 -69 51l-35.5 24.5l-34.5 25.5q-40 29 -81 71q-38 39 -66 88q-26 50 -35 100q-8 52 13 107q0 2 2 4q1 1 1.5 2t1.5 2q15 22 37 37q22 14 47 20q14 3 26.5 3.5t26.5 -1.5q27 -3 49 -18
q11 -7 22 -18l10.5 -10.5t10.5 -11.5q35 8 63 1q27 -7 57 -26q7 -4 13.5 -9.5t13.5 -12.5q12 -13 20 -31t8 -34q0 -17 -11 -34q-16 -26 -35 -32t-38 -3q-9 2 -17.5 3.5t-16.5 3.5q-17 3 -29 -6l-1 -1q-2 -4 -2 -10q0 -4 0.5 -6.5t0.5 -4.5l-1 -1l2 -10q-15 8 -25 31
q-9 21 2 38q12 19 32 21q11 1 20.5 1t20.5 -2t20 -2.5t18 -1.5q18 -1 28 13q5 10 4 19q-1 8 -8 20q-3 5 -6 9l-7 9q-8 7 -15 12q-44 28 -96 18q4 -15 4 -36q-1 -9 -3.5 -17.5t-7.5 -15.5q-10 -16 -26 -26q-8 -5 -16.5 -9t-16.5 -7q14 -37 36 -68l22 -31t24 -29
q13 -15 26.5 -28.5l27.5 -27.5l27 -27.5l27 -27.5l22 -22t22 -24h2l84 113l19 36l-16 -7l21.5 31.5l21.5 31.5l21 8l10 13l126 190l-12 -31zM576 445l4 -5q3 2 5 6zM553 394l11 15l12 19l-13 -14zM280 633q0 18 -7 32q-9 -3 -24 -14l-11 -11t-8 -10q-7 -12 -9 -26
q-1 -7 -1 -13.5v-13.5q14 0 28 7q15 7 22 18q8 13 10 31zM318 260q19 -12 36 -25l34 -27q0 -1 0.5 -1t0.5 -1v4v14q-17 16 -37 31q-34 26 -63 56q-13 13 -25 26.5l-25 28.5q-12 15 -22.5 30.5t-20.5 32.5q-19 34 -29 68q-5 18 -7 36.5t0 38.5q-17 17 -26 43q-8 25 6 48
q10 16 29 22q9 3 18 4.5t18 3.5l-2 -21q-12 0 -25 -5q-13 -6 -20 -17q-9 -11 -7 -30q1 -17 14 -28q1 2 1.5 5.5t2.5 8.5l5 12q8 11 17 22t21 21q23 21 46 32q-4 8 -12 16t-17 14q-21 13 -45 15q-21 3 -46 -4q-23 -8 -42 -21q-20 -14 -32 -34q-21 -32 -22 -64q-3 -33 6 -66
q10 -34 27 -63q9 -16 18 -29.5t20 -25.5q-14 15 -21 33q-9 18 -12 36q-4 18 -1 38q3 18 14 36q1 2 3 4l3 3l9 -4q4 -6 4 -9q1 -3 1 -10q-6 -6 -10 -8q-3 -2 -11 -6q-5 -17 -1 -31l4 -15.5l4 -14.5q3 7 6 8q1 0 7 4l10 2q14 -15 18 -37t-10 -39q9 -17 21 -32t28 -29
q31 -26 67 -52l35.5 -24zM593 398l-44 -50l-8 -20l42 50zM654 490l-48 -61l-15 -21l18 19zM714 613q4 3 6 8z" />
    <glyph glyph-name="Z" unicode="Z" horiz-adv-x="802" 
d="M778 92l-69 -51l35 -3l-150 -36l-52 -3l-45 5l-101 -1h-1h-188q-8 -1 -15.5 -1h-13.5h-23q-8 1 -16 1h-14q-1 8 -1 17v19q5 7 27 36l53 70.5l66.5 88.5l67.5 90l56.5 75.5l33.5 44.5q1 2 3 4l-28.5 -12t-28.5 -11q-39 -15 -84 -24q-23 -5 -44.5 -7t-43.5 0q-43 3 -83 20
q-39 16 -67 55q-2 0 -2 3q-1 1 -1 4q-10 19 -10 41q0 23 7 41q8 20 22 36q14 17 33 26q5 2 11 3.5t11 3.5q6 2 12 2.5t12 2.5q9 25 27 43q17 15 42 28l12.5 4t14.5 4q14 3 29 1q16 -3 27 -10q12 -7 19 -22q11 -23 6 -38t-15 -27q-5 -5 -9.5 -10t-9.5 -10q-9 -11 -9 -22v-1
q2 -3 7 -6q2 -2 4 -2.5t3 -1.5l1 -1l8 -4q-14 -6 -32 -3q-19 3 -25 18q-9 17 -1 31q8 16 19 27l9.5 13t9.5 12q9 12 3 24q-3 8 -11 11q-4 2 -8 2.5t-9 1.5q-5 0 -9 -0.5t-9 -1.5q-8 -1 -15 -5q-38 -17 -54 -57q14 -4 26 -13q13 -9 19 -22q6 -14 6 -29q-1 -8 -1.5 -15
t-2.5 -14q33 -6 62 -5q15 0 30.5 1.5t30.5 3.5q29 4 62 12q15 4 30 7t30 7q14 3 28 5.5l30 5.5q15 2 30.5 3t29.5 -1q3 0 22.5 -1.5t41.5 -9.5q0 -2 -1.5 -12t-20.5 -39q0 -1 -1 -2q0 -1 -2 -3q-1 -2 -2 -3t-2 -3q-3 -3 -12 -15l-21.5 -29.5l-28 -38l-31.5 -41.5l-83 -111
l-94 -127q-39 -51 -66 -90q4 -1 18 -0.5t32 1.5t38.5 2t37.5 2.5l29 2.5t13 1q8 1 15 2t12 2t10 1t12 1q6 1 14 1.5t19 2.5q1 0 2 0.5t2 0.5q10 2 19 5.5t19 8.5l8 5q2 3 4.5 5.5t4.5 5.5q4 6 6 14v6.5t-1 8.5q0 5 -1 8t-3 6l-6 8q-16 22 -44 27h-10q-4 0 -12 -2
q-3 -2 -5.5 -3t-4.5 -3q-3 -2 -5 -9q-2 -8 7 -14q4 -3 7.5 -6t8.5 -6q9 -6 17 -14q6 -8 5 -19q-1 -12 -13 -16q-10 -6 -20 -4l4 4q1 1 1.5 2t2.5 2q3 3 3 5v1q-2 8 -10 12q-4 2 -7.5 4.5l-7.5 5.5q-9 5 -14 14q-6 9 -3 25q1 10 8 17q5 6 15 11q4 2 8.5 3t9.5 2h9.5t9.5 -1
q16 -1 31 -10q15 -7 25 -22l5 -8q7 -15 8 -29q2 -16 0 -28q15 4 30 12q31 14 47.5 27t24.5 23q9 11 10 22l1 45l26 -26l15 -7l-34 -73l-2 -16l54 19zM167 615q-1 -9 0 -23q3 -14 6 -21q2 -6 5.5 -10t8.5 -8l9 -7t9 -6l4 10.5t3 11.5q3 13 -3 23q-5 12 -17 20q-10 8 -25 10z
M398 441l20.5 9l20.5 9l9 12.5l8 10.5l-20.5 -5.5t-19.5 -4.5q-14 -3 -29 -5.5t-31 -4.5q-15 -2 -30.5 -2.5t-30.5 0.5t-30 3.5t-29 6.5q-30 9 -54 28q-20 -5 -40 1q-22 5 -31 25q-6 14 -2 29q5 17 10 27l14 -10q-7 -10 -8 -19q-2 -11 3 -21q4 -10 17 -18q14 -6 25 -2l-3 3
t-4 6q-6 6 -6 8q-5 10 -8.5 21t-5.5 23q-2 13 -2 24t2 22h-9t-8 -1q-5 -2 -8.5 -3t-8.5 -3q-18 -9 -30 -24q-10 -13 -17 -33q-2 -9 -3.5 -18.5t-0.5 -19.5q1 -20 9 -36q11 -25 34 -43q21 -17 48 -24q24 -8 55 -10q14 -1 27 -0.5t26 2.5q-16 -2 -31 0q-8 2 -15 3.5t-15 4.5
q-17 7 -26 16q-12 10 -19 25q0 1 -0.5 1.5t-0.5 1.5q0 3 -1 4l7 5q4 0 8 -2q2 -1 3.5 -1.5t3.5 -1.5q1 -4 1 -10q0 -7 -1 -10q7 -10 21 -15l12 -4l12 -4q-3 6 -3 8q2 2 0 7l3 7q17 3 33 -4q17 -6 22 -23q29 -3 63 7l32 10t32 12zM456 52l-1 -1zM621 46q-2 1 -9.5 3t-21.5 4
l-4 -4zM670 87q14 11 26 25.5t22 25.5l-102 -61z" />
    <glyph glyph-name="bracketleft" unicode="[" horiz-adv-x="275" 
d="M253 10l-14 -9l17 1l1 -9l-8 -9l-16 -8l-24 -10h-48h-99q-1 4 -1 24.5v43.5v61v508v92h39h72q2 1 5 1q24 0 48 -3q12 -1 23 -1.5t20 -0.5l2 -9q-16 2 -32.5 2t-33.5 -4q-6 -1 -11 -2t-10 -3l-14.5 -7.5t-15.5 -17.5v-30t0.5 -70t0.5 -96.5v-108.5v-294q0 -2 0.5 -6
t0.5 -11h1l19 -20l21 -8l23 1l25 12h15zM161 -8q5 -4 13 -6l-13 7v-1zM214 -13q-5 1 -8.5 1h-8.5l-15 -4l14 -2z" />
    <glyph glyph-name="zero" unicode="0" horiz-adv-x="527" 
d="M484 305l-1 -50l-4 -45l-11 -34l-8 -16v-7l-12 -36l-43 -52l-25 -20l-23 -18l-12 -5q-23 -15 -51.5 -18.5t-57.5 -3.5q-44 0 -86 27q-42 28 -68 73q-20 36 -29 84q-10 49 -10 86q0 42 12 96q6 27 16.5 52t24.5 49q28 47 72 76q17 11 37 17.5t41 8.5h27h22
q29 0 51.5 -10.5t39 -25t26.5 -28.5l14 -20l1 -2q1 -1 1 -2l8 -15l17 -38l16 -32l9 -41zM443 166l-16 -17l-3 -3l-1 -3l1 -2l6 5zM416 445q-1 1 -1.5 1t-1.5 1l-5 -10l6 -9l12 -30l18 -60l-1 23l-14 57zM151 135q20 -32 38 -55.5t43 -23.5l15 -2l56 -5l30 9l23 17l23 37
l18 30l22 67v1l4 11l2 58l-6 63l-12 53l-22 58q-5 10 -13.5 23t-20.5 24.5t-27.5 20t-35.5 9.5q-35 3 -58.5 -8.5t-37.5 -27.5q-8 -10 -16 -22l-6 -10l-6 -10q0 -1 -1 -2v1q-13 -23 -23.5 -50t-12.5 -63q-2 -28 -2 -57.5t2.5 -56.5t8 -50t15.5 -39zM469 260l-17 -71l-8 -17
l12 12l8 17zM470 263l-4 85l-7 30q-4 11 -7 13l8 -32z" />
    <glyph glyph-name="x" unicode="x" horiz-adv-x="548" 
d="M500 277q3 -15 2 -28q0 -8 -1 -15t-3 -14q-2 -8 -3 -14t-2 -11q-2 -2 -3 -3.5t-3 -3.5q-2 -3 -6 -6q1 -2 0.5 -4.5t-0.5 -4.5q-2 -5 0 -9q1 -4 1 -7t1 -5q1 -3 1 -12q0 3 -3 14q-2 5 -3.5 10.5t-3.5 10.5q-2 6 -2.5 12t-1.5 11q-1 9 2 16q3 3 5.5 6t5.5 5q8 6 12 10
q0 4 0.5 7.5t0.5 7.5q2 9 1 14q0 7 -3 13q-3 5 -11 12q-10 7 -22 7q-10 0 -23 -5q-11 -5 -21 -12q-5 -4 -10 -9t-9 -10l-3 -3q-2 -2 -3 -3.5t-2 -2.5l-4 -5l-70 -74l72 -85q20 -25 28 -34t14 -14q5 -5 10.5 -9.5t13.5 -9.5q2 -6 2 -12v-11h-15q-48 3 -70 3h-6.5t-10.5 -1
h-12q-14 -1 -25.5 -1.5t-19.5 -0.5h-5q-1 5 -1 11q0 4 1 7q10 7 20 11q8 4 12 7q0 5 -1 7q0 2 -0.5 2t-0.5 1l-59 70v-1l-7 -6l-78 -73l-34 -24l-37 -11l-46 8l-11 6l-9 12l-4 13l3 11h3l10 30l3 -8l3 -24l3 -11l24 -1l24 6l107 88l19 16l-1 2l-26 30l-8 10l-41 50l-18 41
l6 37q4 4 10 -1l6 -20l19 -38l45 -58l-23 60l-17 23l6 13q18 7 33 -8l28 -43l24 -28l13 -14h1l-1 -1l2 -1l1 -1l93 83h1q2 2 6.5 4.5t6.5 4.5q8 3 16.5 5.5t16.5 4.5q15 4 30 4q14 0 22 -6q10 -7 13 -20zM148 48l-37 -20l-32 -9q6 -3 16 0l36 17zM161 40l-13 -13l10 9z" />
    <glyph glyph-name="a" unicode="a" horiz-adv-x="360" 
d="M354 61q-9 -34 -23 -46q-14 -13 -37 -13q-22 0 -37 12q-16 13 -27 38q-4 -13 -15.5 -22.5t-25.5 -16.5q-16 -8 -34 -13q-5 3 -11 8.5t-14 14.5q-8 8 -15.5 17.5t-14.5 20.5q-8 11 -15.5 22.5t-12.5 22.5v2v1q-2 6 0.5 15t6.5 17q4 10 10 20q1 2 3 5q2 2 2.5 4t2.5 4
q4 5 7.5 10.5t8.5 10.5t9 9.5t8 9.5q3 3 4 5q3 -2 6 -5q-8 -4 -12 -7q-9 -8 -15 -18q-6 -11 -10 -23q-3 -12 -3 -21q0 -12 3 -24h1l3.5 -9l3.5 -9l6 -10t7 -10q18 -21 35.5 -24.5t31.5 1t23.5 12.5t11.5 11q-1 9 -1.5 19t-1 18t-0.5 13v5v5l-2 43q0 8 -0.5 15.5t-0.5 15.5
v17t-1 16q-5 20 -19 27.5t-28 8.5q-17 1 -37 -6v-1l-26 -10l-20 -17l-35 -38l-14 -4l-4 4l20 29l42 42l-38 -22l-9 2l11 13l-4 3l-29 -18l-9 -24l-6 19l19 20l21 12l100 28l7 1q8 2 20 3t23 1h6q30 0 52 -11q22 -12 30 -33q9 -23 9 -79l-1 -63l1 -45v-12q0 -17 4 -22
q4 -6 11 -6q4 0 7 3l11 17l7 3l9 -6q2 -2 4 -6v-2z" />
    <glyph glyph-name="b" unicode="b" horiz-adv-x="351" 
d="M337 194q2 -8 -2 -18.5t-9 -20.5q-6 -11 -14 -24q-2 -5 -5 -8.5t-6 -7.5q-5 -7 -10.5 -13l-10.5 -12l-11.5 -12l-10.5 -11q-1 -1 -12 -13.5t-21 -22.5q-2 -3 -6.5 -6.5t-6.5 -5.5t-4 -4.5t-4 -4.5l-17 -20.5t-14 -21.5q-7 10 -17.5 21t-26.5 22l-2 2q-7 4 -12 6.5t-8 4.5
q-4 -5 -7.5 -11.5t-8.5 -14.5l-8 -13t-5 -7h-19q0 5 0.5 9t0.5 9q1 5 1 9v9v28l1 10v21v197l-3 75l-1 62q-1 0 -1 1q-2 1 -39 15v17l35 14q2 0 3 1l-1 45h9l12 -142l2 92q0 13 11 16l10 23l2 30l9 -3l9 9l9 32l14 -2v-204h1v-40v-36v-2q5 16 20.5 27t32.5 19q20 9 44 15
q12 -8 30 -30l18 -23t17 -26q9 -14 17 -29t14 -28q1 -2 1 -4zM296 183q-3 11 -8 20q-3 8 -6.5 14t-7.5 12q-21 27 -43 32.5t-40.5 0t-31.5 -15.5t-16 -13v-58q0 -85 3 -110q1 -2 1.5 -4t1.5 -4q5 -12 11 -19q7 -9 17 -13q10 -5 21 -5q8 -1 21 10t26 25t23 27t12 16
q10 13 14 27q3 8 4 14.5t2 11.5q0 18 -4 31v1z" />
    <glyph glyph-name="c" unicode="c" horiz-adv-x="356" 
d="M341 92l-2 -13l-9 -20l-22 -20q-5 -5 -10 -8.5t-10 -8.5q-39 -27 -99 -27q-39 0 -75 16q-36 14 -59 42q-18 21 -25 48q-9 30 -9 50q0 24 11 55q10 31 35 59q21 22 52 38q5 3 13.5 7.5t19.5 7.5q12 3 22.5 4t23.5 2t28.5 0.5t26.5 -1.5h2q0 -1 1 -1q6 -2 12 -8.5t11 -14.5
q6 -9 12 -19l3.5 -7l3.5 -7q2 -6 4.5 -12t4.5 -13l3.5 -12.5t3.5 -11.5q1 -2 1 -3.5t1 -3.5q-2 -1 -4 -1t-4 -1q3 5 1 14q-1 6 -3 11.5l-4 11.5q-6 10 -14 20l-8.5 8.5t-7.5 5.5q-11 7 -24 10l-18 3q-10 1 -19.5 1.5t-18.5 -1.5q-17 -5 -29.5 -11.5t-20.5 -12.5
q-10 -7 -16 -14v1q-11 -15 -20 -34t-9 -40q0 -63 34 -100q17 -18 42 -25.5t47 -7.5l23 5l24 8l32 31l11 21l9 -9l12 14l-7 -24l-5 -8l18 2z" />
    <glyph glyph-name="d" unicode="d" horiz-adv-x="356" 
d="M297 1q1 -5 1 -9v-9h-19q-2 2 -4.5 7t-7.5 13q-8 14 -17 26q-3 -2 -8 -4.5t-12 -6.5q0 -1 -2 -1q-15 -11 -25.5 -22.5t-17.5 -21.5q-4 8 -15 22l-16 20q-5 5 -9 8.5t-9 8.5q-10 5 -19.5 11l-19.5 12q-13 8 -25 16.5t-23 18.5q-22 19 -31 41q-10 22 -12 49q-1 25 5 52
q3 12 8.5 23t13.5 22q16 21 37 32q7 4 15 8t16 7q9 4 18 7q23 -4 42 -11q17 -6 32.5 -16.5t21.5 -25.5l-3 71l-4 155h9l11 -140l3 90q0 13 11 16l9 23l3 30l9 -2l9 9l9 32l14 -2v-204v-2v-276q0 -17 1 -21v-10v-28v-8.5t1 -9.5zM82 128q18 -42 54 -75q8 -8 16.5 -14.5
t17.5 -11.5q3 0 5.5 1t5.5 2q8 4 17 13q3 5 6 9.5t5 9.5q1 2 1 4t1 4q2 14 3 41t1 69l-1 57q-4 4 -15 13.5t-26.5 13.5t-34.5 -1.5t-39 -30.5l-6 -9q-10 -17 -14 -30q-4 -15 -4 -33q0 -15 7 -32z" />
    <glyph glyph-name="e" unicode="e" horiz-adv-x="380" 
d="M351 90l-2 -13l-9 -20l-22 -20q-5 -5 -10 -8.5t-11 -8.5q-39 -27 -99 -27q-39 0 -74 16q-38 15 -59 42q-16 18 -26 48q-4 15 -6 27t-2 23q0 26 10 55q11 32 36 59q11 12 24.5 22t30.5 18q13 7 30 13q12 3 22.5 4t23.5 2t21.5 1t19.5 -1q1 0 2 -0.5t3 -0.5q5 -1 9 -2t9 -3
q21 -8 35 -20.5t21 -21.5l4 -6l2 -2q3 -5 5.5 -13t2.5 -17v-1q-5 -10 -10 -18.5t-13 -20.5q-7 -11 -15.5 -22t-16.5 -20l-2 -2h-1q-5 -4 -14 -4.5t-18 0.5l-23 2q-9 0 -16 3q-15 3 -26 7q-6 2 -12 4.5l-11 4.5q-2 1 -15 5t-24 8q-4 1 -9 3t-5 3l-1 1q-1 1 -1.5 1t-1.5 2v-13
q0 -63 34 -100q17 -18 42 -25.5t47 -7.5l23 5l24 8l31 31l11 21l10 -9l12 14l-8 -24l-5 -8l18 2zM234 290q-16 1 -31 0q-32 -8 -48 -20.5t-18 -14.5q-9 -12 -17 -26.5t-11 -31.5q3 -6 15 -12t26.5 -10.5t27 -8t15.5 -3.5q7 -2 13 -2h13q10 1 21 5q6 2 12 5.5t11 7.5
q2 -4 3 -5q-1 1 -3 5q4 3 6.5 6t5.5 7q11 11 17 23t9 26q1 3 -1 9q-6 10 -21.5 24t-44.5 16z" />
    <glyph glyph-name="f" unicode="f" horiz-adv-x="349" 
d="M313 451l7 -24l-12 15l-9 -9l-11 21l-31 32l-24 8l-26 6l-19 -3l-21 -12q-1 -5 -1.5 -20.5t-1 -35l-1 -39.5t-0.5 -33l-1 -41v-10l36 37l2 2q14 0 27 -8q13 -7 22 -18q5 -6 8 -12t6 -13q5 -17 5 -28q0 -12 -7 -28q-7 -14 -17 -29q-5 -8 -10 -14.5t-11 -12.5
q-11 -14 -18 -24q-6 -8 -9 -11v10q17 17 28 42q11 23 11 51q0 9 -3 18q-2 4 -4.5 8t-5.5 7q-6 7 -13 13q-5 2 -8.5 4.5t-8.5 4.5l-1 -1l-28 -37v-17v-9q0 -11 0.5 -18t0.5 -11l-1 -55l1 -41v-32q-1 -34 6 -41q10 -10 46 -15q6 0 11 -3l1.5 -7.5t0.5 -3.5q0 -2 -2 -12h-27
q-2 0 -12.5 0.5l-30.5 1.5l-21 1h-25.5t-19.5 -1q-5 -1 -20 -1t-41 -1v22q5 3 26 9q22 6 23 8q4 4 4 12v8q1 17 1.5 27t0.5 12v10l-1 4l1 5v3l-2 49l-10 -12q0 -6 -6.5 -14.5t-5.5 -13.5q-4 2 -1 6t-1 6l2 7l8 17l-14 -12l-2 -9q-7 4 -12 9.5t-12 8.5l9 11l44 47v37v18l1 28
v23.5t1.5 39.5t4 44t7.5 36q12 35 30 58l19 27l26 17l60 -4l21 -7l17 -11l19 -11l32 -31l9 -20l2 -14l-24 25l-6 -5z" />
    <glyph glyph-name="g" unicode="g" horiz-adv-x="368" 
d="M319 -28q0 -11 -4 -19q-5 -11 -18 -23l-15.5 -13.5t-15.5 -12.5l-17.5 -13t-16.5 -11q-18 -11 -27 -18q-6 -4 -12 -7.5t-13 -8.5q-12 -9 -27 -15q-13 -7 -29 -9q-14 -3 -30 2q-18 17 -25 40q-5 11 -8 23.5t-5 25.5q-2 12 -3.5 25t-3.5 26q-2 25 -6 48v4v1q6 -30 15 -61
q5 -15 8.5 -30.5t7.5 -31.5l2 -8t2 -9q2 -5 3 -9t3 -8q3 -10 8 -16q3 -3 6 -5.5t8 -4.5q14 -7 34 -1q19 7 38 19q9 6 17.5 12.5t15.5 14.5q16 17 21 29q7 17 8 30q0 8 0.5 16.5t0.5 16.5q-1 8 -1 16.5t-1 16.5v7q-11 -8 -19 -17.5t-13 -17.5q-4 8 -15 22l-16 20
q-4 5 -8.5 8.5t-9.5 8.5q-18 10 -38 23q-14 8 -25.5 16.5t-22.5 18.5q-21 16 -32 41q-5 11 -7.5 23.5t-4.5 25.5q-1 25 5 52q8 25 22 45q16 21 37 32q7 4 15.5 8t16.5 7q9 4 17 7q23 -4 42 -11q17 -6 32.5 -16t21.5 -25l-1 13l10 55l12 -2l10 -17l16 3l5 -15l8 -62
q2 0 2.5 -0.5t2.5 -0.5l2 61l-15 81l5 8l17 -17l4 -32l2 -105v-16l1 -35h-1v-120q0 -17 1 -21v-18l1 -55v-15zM104 131q18 -42 54 -75q8 -8 16.5 -14.5t17.5 -11.5q3 0 5.5 1t5.5 2q5 2 9 5.5t8 7.5q3 5 6 9.5t5 9.5q2 6 2 8q2 14 3 41t1 69l-1 57q-4 4 -15 13.5t-26.5 13.5
t-34.5 -1.5t-38 -30.5q-3 -3 -7 -9q-8 -13 -13 -30q-5 -18 -5 -33q2 -19 7 -32z" />
    <glyph glyph-name="h" unicode="h" horiz-adv-x="414" 
d="M397 9q-2 -9 -3.5 -21l-3.5 -27q-3 -29 -9 -61q-2 -15 -6 -28.5t-9 -27.5q-10 -25 -29 -34q-17 -3 -32 6q-13 6 -28 20q-6 6 -11.5 12.5t-10.5 14.5l-9 15l-8 14l-1 5q-3 12 -1 20q1 9 6 20q7 14 13.5 30l14.5 34l13.5 36t11.5 37q6 20 9.5 38t5.5 37v1q1 14 -1.5 23.5
t-4.5 13.5h-1q-5 13 -15 26q-21 28 -43 33.5t-40.5 -0.5t-31.5 -16.5t-16 -13.5v-95l1 -55v-3v-5q1 -5 1.5 -9t2.5 -9q3 -9 9 -15q6 -8 14 -11q7 -4 18 -4l3 -1l16 9h2q-5 -5 -9 -8.5t-8 -7.5l-13.5 -17t-11.5 -18q-6 8 -15 18t-22 18q-5 0 -11 0.5t-12 0.5h-14
q-22 0 -62 -3h-28l-1 17q8 6 23 7q25 3 30 8q8 11 8 40v106l-1 25v76l-1 43v18l-5 156h9l11 -136l1 -1l2 87q0 12 11 15l9 23l2 30l9 -2l9 9l9 32l14 -3v-293q5 15 20.5 26t32.5 19q19 9 43 14q6 -3 14.5 -10.5t17.5 -18.5q17 -22 35 -49q5 -8 9.5 -16.5t9.5 -16.5
q-2 -2 -3.5 -3t-3.5 -2q4 2 7 5q4 -7 4.5 -8l3.5 -7q4 -8 4.5 -14t0.5 -9q-1 -8 -1.5 -15t-3.5 -15q-7 -27 -20 -56q-5 -14 -10 -26.5t-9 -23.5q-3 -8 -7.5 -16t-9.5 -18l-11.5 -20t-10.5 -21q-13 -22 -18 -41q-7 -19 -2 -34q1 -8 11 -21q4 -7 8.5 -12.5t10.5 -11.5
q5 -5 11 -9l12 -8q12 -6 23 -3q13 5 18 12q9 11 13 20q5 13 8 23q3 12 6 21q5 14 8 29l6 29l6 29.5t7 29.5v-1z" />
    <glyph glyph-name="i" unicode="i" horiz-adv-x="246" 
d="M203 23q5 -1 9 -2t7 -2l-1 -21h-15h-7t-10 1q-20 1 -45.5 1.5t-57.5 0.5h-19t-17 -1q-9 -1 -15 -1.5t-9 -0.5l-1 24l44 6q9 3 13 8q3 4 3 20l-2 70l-4 138h9l11 -126l3 81q0 11 11 14l9 21l3 26l9 -2l9 8l9 29l14 -2v-256q0 -7 0.5 -13.5t1.5 -12.5q5 -2 14.5 -4t23.5 -4
zM76 427q-7 -7 -11 -15q-2 -5 -4.5 -10t-5.5 -12v1q0 11 6 22q2 5 5.5 9.5l7.5 9.5l7.5 9t6.5 8q2 2 2 3l-17 13l-10 27l21 20h15q5 10 15 14q13 0 27 -14q4 -5 8 -11t7 -13l7 -4l8 6l15 17l7 5l-9 -28l3 -1l-4 -10l-10 -8l-5 -2q2 -7 4.5 -13.5t4.5 -13.5q2 -4 2 -7l-6 15
l-9 18l-4 -1h-5q2 -5 4 -9t4 -9q-3 -8 -14 -11q-4 1 -8 1.5t-8 1.5t-7.5 1.5t-8.5 0.5q-16 0 -25 -3q-9 -1 -16 -7zM90 473v9v3l1 3l1 3q1 2 1 2.5t1 2.5l-7 1q-2 -2 -3.5 -4.5t-3.5 -4.5zM186 404q-2 5 -3.5 11l-3.5 14q2 -6 3 -8q4 -11 4 -15v-2z" />
    <glyph glyph-name="j" unicode="j" horiz-adv-x="201" 
d="M166 483l-5 -1l9 -27q1 -2 1 -3.5t1 -3.5l-6 15l-9 18l-4 -2l-5 1q2 -5 4 -9t4 -9q-4 -8 -14 -11q-6 0 -16 2q-5 2 -16 2q-8 0 -14 -0.5t-11 -1.5q-11 -3 -16 -8q-6 -5 -11 -14q-2 -5 -5 -10.5t-5 -11.5v1q0 11 5 21l6 10t8 10l7.5 9t6.5 8q1 1 1 1.5t1 1.5l-17 13
l-10 27l21 20l15 -1q4 9 14 15q15 0 27 -15q9 -11 16 -23l7 -4l8 6l15 17l7 5l-9 -28l3 -2l-5 -10zM83 492v8v1v2v4l2 2q1 2 1 3t1 3l-7 1q-4 -4 -7 -10zM156 135v-138q0 -29 -12 -54q-7 -14 -16 -27.5t-26 -27.5q-13 -9 -30 -19q-14 -8 -35 -17t-48 -16q13 7 17.5 10
l10.5 7q12 9 23 21q9 11 18 25.5t13 34.5q2 9 4 30.5t2 55.5l-2 53l-2 72l-4 137h9l10 -110h2l2 66q0 11 11 14l9 20l3 27l9 -2l9 8l9 28l14 -2v-178v-18z" />
    <glyph glyph-name="D" unicode="D" horiz-adv-x="807" 
d="M753 433q30 -62 30 -134q0 -93 -40 -158q-41 -66 -115 -105q-10 -5 -27 -9t-37 -7t-40 -4t-36 -1q-8 0 -20 -2l-23 -4q-13 -3 -27 -7l-2 -21l5 -13l-7 -5l-9 31l-112 -46l-26 -15l-6 4l21 37l35 39l-39 2l5 12q-9 1 -17.5 3t-16.5 3q-19 2 -37.5 6.5t-38.5 10.5
q-40 12 -74 33q-35 22 -58 51q-24 30 -30 73v3v3q2 22 10 37q9 18 24 30q7 7 15 11.5t17 8.5q18 8 38 6q10 0 21 -3q5 -2 10.5 -3.5t10.5 -3.5q17 17 40 23q22 6 45 5l12.5 -2t13.5 -3q13 -5 24 -12q2 -2 5 -4.5t5 -5.5l4 14l2 -23h1q6 -13 5 -26q0 -5 -2 -13l16 -153
q7 -2 13.5 -4.5t14.5 -4.5l-30 431l-7 17l-143 -30h-21l-17 -9l-24 -21l-15 -2l-2 6l32 30l54 33l4 15l20 11l93 22l17 10l6 -2l59 7h24q95 0 142 -11q72 -18 116 -53q58 -45 89 -108zM306 557q8 2 11 7l-19 -7h8zM375 559q-1 8 -11 13zM412 151l2 2l-24 343l-4 29
q-3 10 -17 12l34 -440l5 -9l10 7zM384 229l-7 71l5 -138l4 -7zM334 561q6 1 7 7zM244 307q-36 3 -68 -23q10 -8 16 -21q6 -14 5 -26q0 -11 -7 -25l-7.5 -11.5t-8.5 -10.5q22 -29 60 -51t83 -39l-12 132q-1 -1 -1 -1.5t-1 -1.5q-11 -11 -23 -15q-13 -5 -24 -8q-11 -4 -17 -14
v-1q0 -3 3 -7q2 -3 4 -7v-1l5 -6q-13 0 -27 11q-13 10 -13 25q2 18 13 25q12 8 27 14l13.5 6t12.5 5q12 6 12 18q1 7 -4 14q-4 5 -12 10q-8 4 -15 6q-8 3 -14 3zM156 256q-2 -6 -3 -10.5t-1 -9.5q-1 -10 3 -20l9 -18q8 5 16 15q7 10 7 20q1 10 -5 23q-6 11 -16 18
q-5 -5 -10 -18zM286 36l1 1l24 15q-2 0 -3 0.5t-2 0.5h-2q-23 7 -52 18q-13 5 -25.5 11t-24.5 14q-23 13 -43 33q-19 19 -31 45q-17 4 -32 18q-14 13 -14 33q2 16 11 24q8 10 20 18l7 -14q-9 -5 -15 -12q-7 -9 -7 -18q0 -11 7 -22t18 -12q0 2 -0.5 4l-1.5 6t-1 6.5v3.5
q1 10 3 20t5 21q8 22 19 36q-6 4 -14 6q-8 3 -16 3q-18 1 -34 -6q-8 -4 -15 -8.5t-13 -11.5q-6 -6 -10.5 -13t-8.5 -15q-8 -18 -8 -33q-1 -27 9 -49q9 -21 27 -39q9 -9 19 -17t21 -14q11 -7 22 -12.5t22 -9.5q-7 3 -13 6t-12 8q-13 8 -21 19q-10 11 -14 23t-4 29q0 2 1 3v3
l8 1q2 -1 6 -5q2 -4 4 -6q-2 -6 -4 -8l-2 -4t-3 -4q3 -14 11 -20q4 -5 8 -9l8 -8q0 6 1 7q0 1 3 6l5 5q14 -4 25 -18q10 -12 7 -28q24 -15 54 -21q15 -3 30 -5.5t31 -4.5h9zM336 -4l-6 2l-28 -33l26 17zM633 188q14 54 14 109q0 91 -29 149q-30 58 -81 88q-52 29 -117 29
h-12t-11 -1l-17 12q6 -12 20 -16q-1 -5 -1 -10.5v-11.5l-4 1l-5 -4l7 -30l30 -404q1 -5 5 -11q4 -5 13 -12.5t26 -16.5q3 -1 10.5 -1t16.5 0.5t16 1.5t8 1q46 19 71 46q26 28 40 81z" />
    <glyph glyph-name="k" unicode="k" horiz-adv-x="382" 
d="M303 124q-7 8 -24.5 19l-34.5 22q-23 11 -44 19t-30 10q1 1 1 2q-6 -4 -9 -5v-71l1 -55v-3v-5q1 -5 1.5 -9t2.5 -9q4 -9 9 -15q6 -8 14 -11q8 -4 18 -4l3 -1l16 9h3l-10 -8.5t-8 -7.5l-13.5 -17t-11.5 -18q-6 8 -14.5 18t-22.5 18q-5 0 -11 0.5t-12 0.5h-14q-22 0 -62 -3
h-28l-1 17q8 6 23 7q27 3 30 8q8 11 8 40v106l-1 25v76v43l-1 18l-5 156h10l10 -136q1 0 1 -1l2 87q0 12 11 15l9 23l2 30l9 -2l9 9l9 32l14 -3v-298v-30q9 4 26 13l34.5 18.5l31 17.5t16.5 11l10 10l5.5 9.5t4.5 9.5q2 8 2 17q1 5 0.5 9.5t-1.5 9.5q-1 3 -4 13t-7.5 21.5
t-9.5 21t-10 10.5q0 3 4 1q2 -1 4 -3l2 -4q1 -2 1.5 -3.5t1.5 -2.5q4 -9 7.5 -19t4.5 -12q2 -4 3.5 -8.5t3.5 -9.5t3.5 -10t3.5 -10l3 -12l2 -18q1 -8 0.5 -15t-3.5 -11q0 -1 -1 -2q-5 -8 -13 -13.5l-19 -13.5q-1 -1 -12 -7t-27 -14q13 -5 24 -13l24.5 -16t24.5 -18
q13 -10 25.5 -22l22.5 -22q2 -2 2 -3q4 -7 4.5 -18.5t-1.5 -22.5q-2 -13 -5 -27q-1 -8 -5 -19q-2 -8 -5 -15.5t-7 -15.5l-7 -14.5l-6 -13.5q-1 -2 -7.5 -17.5l-11.5 -28.5l-5 -10t-4 -6q-3 -3 -6 -5q-2 -2 -4.5 -1.5t-2.5 3.5q7 1 16 16t16.5 32.5t13 33t6.5 19.5q4 13 4 30
q0 16 -3 27q-4 15 -14 29q-2 3 -5 6z" />
    <glyph glyph-name="l" unicode="l" horiz-adv-x="215" 
d="M203 24q2 -10 2 -13q0 -2 -0.5 -4.5t-0.5 -5.5l-30 1q-13 1 -28 1h-35l-14 1q-22 0 -62 -3h-27l-1 17q7 5 22 7q27 3 30 8q8 11 8 40v106l-1 25v76v43l-1 18l-4 156h9l10 -136q1 0 1 -1l2 86q0 13 11 16l9 23l2 30l9 -2l9 9l9 32l14 -3v-298v-132l1 -55v-9q0 -17 6 -23
q4 -6 19 -6q4 -1 11.5 -1.5t19.5 -2.5z" />
    <glyph glyph-name="m" unicode="m" horiz-adv-x="533" 
d="M319 203q3 -7 3.5 -7t2.5 -5q7 -17 5 -24q0 -15 -4 -30q-5 -14 -9.5 -28t-9.5 -28l-9 -21t-12 -18q-3 -4 -6.5 -8t-7.5 -8q-5 -5 -10 -9l-11 -9q-5 -5 -9.5 -8.5t-8.5 -7.5l-5 3q15 10 27 27q1 2 3 4h-1q10 15 12.5 24.5l4.5 16.5q5 19 8.5 41t5.5 40v1q2 14 -1 24t-5 13
q-6 15 -15 27q-12 16 -24.5 24t-24.5 10.5t-23.5 0.5t-21.5 -6q-9 -5 -20 -15t-17 -30v-24v-53l1 -53v-10q0 -7 2 -15l14 -13l11 1l21 13l8 3l-13 -23l-2 -6l-7 -9l-12 -6h-15l-8 2q-8 0 -15.5 0.5t-15.5 0.5h-13q-10 0 -21.5 -0.5t-30.5 -2.5h-26l-1 17q6 5 21 8
q12 2 16.5 3.5t6.5 3.5q7 10 7 40v127l-2 78h8l5 -67h3l1 18q0 12 10 16l8 23l2 29l8 -2l9 9l8 32l12 -2v-77q5 15 21 26t33 19q19 9 42 14q6 -4 14.5 -11.5t17.5 -18.5q8 -10 15 -20l15 -21v1v3q0 2 -0.5 3t0.5 3q5 16 20.5 27t32.5 19q20 9 44 15q14 -9 31 -30l18 -23
t18 -26q2 -4 5 -9.5l6 -10.5q4 -6 7 -13q4 -7 4.5 -8t3.5 -6q4 -9 4.5 -15t0.5 -9q-1 -8 -1.5 -15t-2.5 -15q-10 -30 -21 -56q-5 -14 -10 -26.5t-9 -23.5q-3 -7 -7 -15.5t-10 -18.5q-5 -10 -11 -20t-11 -21q-10 -19 -18 -41q-6 -21 -2 -34q4 -11 11 -21q7 -11 19 -23
q11 -11 23 -17q13 -7 23 -3q11 3 19 12q8 10 12 19q3 6 5 11.5l4 11.5t3 11.5l2 10.5q9 28 15 57l6 29.5l6 29.5v-1q-2 -9 -3.5 -21l-3.5 -27l-4 -30l-4 -30q-3 -15 -7 -29t-9 -27q-9 -26 -29 -35q-16 -1 -32 6q-13 6 -28 20q-10 10 -22 27q-9 15 -17 30l-1 4q-4 12 -1 20
q2 11 6 20q7 14 13.5 30.5t14.5 33.5q14 34 25 74q12 37 15 74v1q2 14 -1 24t-5 13q-3 8 -7 14.5l-8 12.5q-17 22 -34.5 29.5t-33.5 6t-29.5 -8.5t-22.5 -14l12 -21z" />
    <glyph glyph-name="n" unicode="n" horiz-adv-x="373" 
d="M316 201q3 -7 4 -8t3 -7q4 -9 4.5 -14.5t0.5 -8.5q-1 -8 -1.5 -15t-2.5 -15l-10 -28l-10 -28l-11 -26.5t-9 -23.5q-3 -8 -7 -16t-10 -18q-5 -11 -11 -20.5t-11 -20.5l-9.5 -20.5t-8.5 -20.5q-6 -21 -2 -34l4 -10t7 -12q4 -6 9 -11.5l10 -11.5q11 -11 24 -17q12 -6 22 -3
q6 2 10.5 5t8.5 7q7 8 12 20q6 10 9 23q3 12 6 21q4 14 7.5 28.5t6.5 29.5l6 29.5l6 29.5v-1q-2 -9 -3.5 -21l-3.5 -27l-4 -30l-4 -31q-3 -15 -7 -29t-9 -27q-9 -25 -29 -34q-16 -3 -31 6q-17 8 -28 20q-7 6 -12.5 12.5t-10.5 14.5l-9 15l-8 14l-1 5q-3 9 -1 20q2 5 3 10
t3 10q7 14 13.5 30l14.5 34t14 36l12 37q11 40 14 75v1q2 14 -1 23.5t-5 13.5q-5 13 -15 26q-25 32 -49.5 35t-44.5 -6q-9 -5 -20 -15t-17 -30v-24v-53l1 -53v-9q0 -5 0.5 -8.5t1.5 -7.5l14 -12h11l20 14l9 3l-13 -23l-2 -7l-7 -9l-12 -5h-15l-9 2h-30l-13 1q-10 0 -22 -1
t-31 -3h-25l-1 18q4 3 9 4t12 3q20 4 23 8q7 10 7 40v119l-2 78h8l4 -59h4v17q1 13 11 16l8 23l2 30l8 -2l8 9l9 32l12 -2v-77q5 15 21 26t33 18q19 8 42 14q13 -7 31 -29q9 -11 18 -23.5l18 -25.5q2 -5 5.5 -10.5l6.5 -10.5q4 -6 7 -12z" />
    <glyph glyph-name="o" unicode="o" horiz-adv-x="389" 
d="M374 330q5 1 5 -6q0 -4 -1 -8q0 -1 -4.5 -7t-7.5 -9l-23.5 -25.5t-13.5 -15.5t-2 -2.5t-2 -2.5l5 -9l11 -19l6 -23l3 -29l-1 -29l-4 -26l-9 -19l-6 -9v-5l-9 -20l-34 -30l-19 -11l-17 -10l-21 -7h-9q-21 -6 -44 -6q-33 0 -64 16q-31 14 -51 42q-14 19 -22 48q-7 28 -7 50
q0 25 9 55q9 32 30 59q19 23 45 38l2 2q4 1 7 4l15.5 6t15.5 5q6 2 12 2.5t12 1.5h11q19 1 35 0h3q1 -1 5 -1q4 -1 7.5 -2t7.5 -2l1 -1q22 -8 36 -20.5t21 -21.5l4 -6l2 -2q1 -2 3 -8l7 -11q9 9 18.5 19.5t17 21t11.5 19.5t3 14zM306 233l2 -4l13 -35v12l-9 33
q-2 -2 -2.5 -3t-2.5 -3h-1zM305 238l-1 -1zM285 252l2 -1q0 1 0.5 1.5t0.5 1.5zM132 274q-8 -9 -12 -21q26 -29 64 -41q6 -2 11 -3.5t12 -2.5q8 -2 17.5 -2.5t17.5 1.5q11 1 28 9q6 3 12 6.5t12 7.5l-16 34q0 1 -1 2q-7 11 -22.5 22.5t-42.5 13.5q-16 2 -29 -1
q-17 -5 -29 -10.5t-20 -11.5q0 -1 -2 -3zM300 119l3 7l3 34l-4 36l-6 25l-14 -14q-4 -4 -8 -7t-9 -6h1q-13 -10 -25 -18q-11 -7 -22.5 -12t-19.5 -4q-2 0 -4 1q-15 5 -32.5 12t-33.5 15q-12 6 -21 12v-8q0 -63 30 -100q11 -16 27 -25l18 -7l21 -5h7l22 5l24 8l32 31zM317 94
l-12 -10l-2 -1l-1 -2l1 -1l4 3zM333 216q-2 6 -5 8l5 -19l7 -56l-2 50zM325 107l-7 -9l9 6l7 10l4 34z" />
    <glyph glyph-name="p" unicode="p" horiz-adv-x="372" 
d="M357 210q2 -8 -2 -19t-9 -21q-6 -12 -14 -24v1q-5 -10 -11 -17l-10 -12.5t-11 -12.5l-11 -11l-15 -17l-13.5 -14l-15.5 -17l-6 -6l-6 -6q-3 -2 -9 -8q-5 -7 -16 -20.5t-15 -21.5q-5 8 -12.5 16.5t-18.5 16.5v-29v-196l-14 -3l-9 32l-9 9l-9 -2l-2 30l-10 23q-11 3 -11 16
l-2 91l-11 -141h-10l5 155l3 74v73l-1 106q-2 21 -9 28q-6 9 -39 18v19q18 4 33 8t28 9l20.5 10.5t27.5 17.5h9h11v-76q5 16 21 27t33 19q19 9 43 14q11 -6 30 -29l18 -23t17 -26q9 -14 17 -29t14 -29q1 -1 1 -3zM320 167q1 14 -3 29l-1 3q-3 11 -7 20q-7 15 -15 26
q-21 27 -43 32t-40.5 -0.5t-31.5 -15.5t-16 -13v-106v-26q1 -5 1 -11.5v-10.5l2 -10.5t3 -10.5q5 -13 11 -19q7 -9 17 -13q7 -5 21 -5q5 1 9.5 2.5t7.5 3.5q2 2 3.5 2.5t3.5 2.5l59 66l7.5 13.5t5.5 14.5q6 15 6 26z" />
    <glyph glyph-name="q" unicode="q" horiz-adv-x="385" 
d="M288 338q26 -11 60 -17v-20q-33 -9 -39 -17q-8 -9 -9 -28v-106v-151v-2h-1v-205l-14 -2l-9 32l-9 9l-9 -2l-2 29l-9 23q-10 4 -12 16l-2 92l-11 -142h-10l5 155v18q-9 -8 -16 -16t-12 -15q-3 8 -14 22t-17 20q-7 8 -17 17q-10 5 -19.5 11l-19.5 12q-13 8 -25 16.5
t-23 18.5q-22 19 -31 41q-10 22 -12 49q-1 25 5 52q3 12 8.5 23t13.5 22q16 21 37 32q7 4 15 8t16 7q9 4 18 7q22 -4 41 -11q17 -6 32 -16t22 -24v69h11h9q33 -20 49 -27zM218 100q0 2 0.5 3t0.5 2v10v28v110q-4 4 -15 13.5t-26.5 13.5t-34.5 -1.5t-39 -30.5l-6 -9
q-10 -17 -14 -30q-4 -15 -4 -33q0 -15 7 -32q18 -42 54 -75q8 -8 16.5 -14.5t17.5 -11.5q3 0 5.5 1t5.5 2q8 4 17 13q3 5 6 9.5t5 9.5t3 10.5t1 11.5z" />
    <glyph glyph-name="r" unicode="r" horiz-adv-x="313" 
d="M289 226q0 -5 -1 -9t-1.5 -8.5t-1.5 -6.5q-5 -11 -14 -19q-10 -10 -21 -17q-10 -8 -23 -15q-6 -4 -11 -7l-10 -6l-4 3q18 10 31 23q8 8 13.5 16.5t9.5 18.5q2 5 2 15v4v2q0 8 -4 15q-3 7 -9 13q-7 7 -13 10q-7 4 -15 4q-5 0 -15 -4l-2 -2q-9 -4 -17 -11q-8 -6 -15 -14.5
t-9 -19.5v-5l1 -85l1 -55v-3v-3q0 -7 4 -17q3 -9 9 -15q2 -4 5.5 -6.5t7.5 -4.5q7 -3 17 -3l3 -1l15 9h3q-5 -5 -9 -8.5t-8 -7.5q-5 -5 -13.5 -16t-10.5 -18q-11 16 -30 32h-29h-14q-22 0 -62 -3h-28l-1 18l10 4t12 3q27 3 31 8q7 8 7 40v126l-2 78h9l5 -67h4v18q0 13 11 16
l9 23l3 30l8 -3l9 9l9 33l14 -3v-93q8 6 11 10l7.5 7.5t7.5 8.5q16 19 17.5 27t3.5 16q7 -1 14 -2.5t15 -5.5q13 -6 26 -17t20 -24q8 -16 8 -28v-7z" />
    <glyph glyph-name="s" unicode="s" horiz-adv-x="328" 
d="M289 145q14 -23 14 -50q0 -43 -31 -70q-33 -30 -96 -30q-7 0 -37 3v1l-22 1l-18 5l-15 8l-16 10l-29 25l-8 18l-2 11l21 -21l5 5l-10 18l-7 20l11 -12l8 8l9 -18l27 -27l27 -11l31 -11l5 -1h1q0 -1 1 -1l5 -1q5 -2 10.5 -2h10.5q24 0 41 15t17 33q0 6 -2 14t-5 13
q-5 7 -25 17q-5 2 -16.5 5l-31.5 8l-30 8t-15 5q-17 7 -32.5 19t-19.5 20q-10 21 -10 37q0 28 8 47q9 19 24 32q7 7 16 12q4 3 14 6q1 1 1.5 1t1.5 1q18 7 36 8q7 1 13.5 1h14.5q13 0 28 -1.5t26 -4.5q1 0 2 -1q6 -3 12 -10t11 -15q5 -9 10 -20v1l6 -15q5 -14 8 -25
q2 -7 3 -13l2 -12q1 -2 1 -3.5t1 -3.5q-2 0 -4 -0.5t-4 -0.5q1 3 1.5 6t0.5 8q-2 12 -6 22q-6 13 -13 22q-8 9 -15 15q-13 10 -22 13q-17 8 -36.5 8.5t-30.5 0.5q-15 -1 -24.5 -5.5t-15.5 -10.5t-9 -11.5t-4 -7.5q0 -2 -0.5 -4.5t-0.5 -4.5q0 -13 14 -25q6 -7 16 -13.5
t27 -9.5q25 -5 43 -11t30 -11q35 -17 48 -37z" />
    <glyph glyph-name="t" unicode="t" horiz-adv-x="288" 
d="M264 60q0 -1 -1 -1v-2h-1q0 -1 -1 -2t-1.5 -2t-2.5 -2q-11 -13 -29 -29t-29 -21q-24 -12 -51 -12q-34 0 -57 23q-22 22 -22 68l2 67v107l-11 1l-28 -1l-5 2q-2 4 -2 7v5t1 11q17 8 27.5 10.5t17.5 7.5l-3 129h9l8 -130h1l2 81q0 11 11 16l10 23l2 29l9 -2l9 9l9 32l14 -2
l-1 -186l71 -5l16 -6l11 -14l-78 8l-19 -1v-1l69 -7l8 -3l-10 -12h-67l-1 -144v-34t2 -18q2 -11 9 -20q7 -4 19 -4t15 1q1 1 1.5 1t1.5 1q2 0 4 2q3 1 8 6q2 1 8 5q2 2 3.5 4.5t3.5 4.5q5 5 11 13q2 -1 2.5 -1t2.5 -1q-4 2 -5 2q6 11 9 22q1 4 1.5 8.5t-0.5 10.5q0 11 -3 22
q-1 3 -5.5 14t-10.5 23.5t-13 22.5t-12 11q0 4 4 2q2 -1 5 -3q1 -1 3 -5t4 -7q5 -9 10 -20t6 -13q2 -5 4.5 -9.5l5.5 -9.5q2 -6 4.5 -11.5t4.5 -10.5q2 -4 2.5 -7t2.5 -7l4 -18q3 -16 0 -28h1z" />
    <glyph glyph-name="u" unicode="u" horiz-adv-x="368" 
d="M356 41l-13 -23l-2 -7l-7 -9l-12 -5h-15l-10 2q-8 1 -13.5 1h-10.5h-12h-15.5t-14.5 -1q-1 8 -0.5 23t1.5 25q-1 0 -1 -1q-5 -17 -20.5 -28t-32.5 -19q-19 -9 -43 -14q-6 4 -14.5 11.5t-17.5 18.5l-18 23t-17 26q-7 10 -11.5 18t-7.5 15q-4 6 -4.5 7l-3.5 7q-3 9 -4 15
t-1 9q1 8 1.5 14.5t3.5 14.5q4 15 9 29l10 28l9 20.5t12 18.5q3 4 6 7.5t7 7.5q5 5 10.5 9.5t10.5 9.5t10 8.5t9 7.5l4 -3q-13 -9 -26 -27q-1 -2 -1.5 -2.5t-1.5 -2.5q-10 -14 -12.5 -23.5l-4.5 -17.5q-5 -18 -8.5 -40t-5.5 -41v-1q-1 -13 1.5 -23t4.5 -14h1q7 -15 15 -26
q20 -27 41.5 -33t40.5 -1v1q10 3 20 9q8 5 16.5 15t13.5 26v9v87l-2 46l8 44l10 -2l8 -13l14 2l4 -12l10 -73l3 71l-13 65l4 6l15 -13l3 -25l3 -90l-1 -15h1l-1 -124q0 -11 1 -20t3 -14l14 -11h11l20 13z" />
    <glyph glyph-name="v" unicode="v" horiz-adv-x="296" 
d="M256 214q-3 -11 -8 -25q-1 -3 -2.5 -6.5l-4.5 -10.5l-3 -6q-2 -4 -3.5 -8t-4.5 -10l-40 -98q-5 -10 -7.5 -16.5t-4.5 -9.5q-3 -7 -6 -12.5t-5 -10.5h-31q-7 13 -14.5 28.5l-15.5 33.5l-31 69h1l-41 94l-10 51l12 2l14 -11l14 8l9 -11l42 -74l-28 77l-40 65l1 8l21 -9
l15 -25l39 -101l20 -48l10 -24l10 -24l7 -17l5 -12l16 40l22 56q0 2 1 3q1 4 3 10q2 4 3 5q0 2 2 6l7.5 21t6.5 20l4.5 16.5t2.5 27.5q0 1 -0.5 2t-0.5 3q0 19 -8 37h6q2 -5 3.5 -10.5l3.5 -12.5l4 -13.5l4 -13.5q2 -8 4 -20t0.5 -22t-4.5 -22z" />
    <glyph glyph-name="w" unicode="w" horiz-adv-x="523" 
d="M474 214q-3 -11 -8 -25q-1 -3 -2.5 -6t-3.5 -9q-3 -4 -4 -8q-2 -4 -3.5 -8t-4.5 -9l-40 -99q-5 -10 -7.5 -16t-4.5 -10q-3 -7 -6 -12t-5 -10h-31q-7 12 -14.5 27.5l-15.5 33.5l-30 68l-27 63l-8.5 -20.5l-10.5 -24.5l-41 -99l-6.5 -16t-4.5 -10q-4 -7 -6.5 -12t-4.5 -10
h-31q-8 12 -15 27.5l-15 33.5l-31 69h1l-44 103l-10 51l12 2l14 -11l14 8l9 -10l42 -74l-28 76l-40 65l2 8l20 -8l15 -26l40 -101l31 -78q3 -7 5.5 -13.5t5.5 -13.5q7 -17 12 -28l18.5 45t23.5 63q2 5 8.5 19l12.5 27l-4 16l12 3q5 1 7.5 0.5t3.5 -1.5t2.5 -3t5.5 -4l9 5
l9 -11l42 -74l-35 74l-17 23l2 8l20 -9l15 -25l24 -57l10 -25q5 -11 9.5 -22.5l9.5 -23.5q7 -17 12 -28l16 39l22 56q0 3 1 4l3 9l3 6q1 2 1 2.5t1 2.5l7.5 21t6.5 20q2 7 4.5 17t2.5 27q0 2 -0.5 2.5t-0.5 2.5q0 19 -8 37h6q2 -5 3.5 -10.5l3.5 -12.5l4 -13.5l4 -13.5
q2 -5 2.5 -10t1.5 -10q2 -11 0.5 -21.5t-4.5 -22.5z" />
    <glyph glyph-name="y" unicode="y" horiz-adv-x="299" 
d="M271 215q-3 -11 -8 -25q-1 -3 -2.5 -6.5l-4.5 -10.5l-3 -6q-2 -4 -3.5 -8t-3.5 -10l-36 -87l-2 -4l-2 -4l-1 -3q-2 -4 -4 -10q-2 -5 -5 -11t-5 -11l-41 -98q-6 -17 -11 -33.5t-10 -30.5q-2 -5 -4 -9.5t-5 -9.5q-4 -9 -14 -15l-4 -2l-15.5 -6t-16.5 -5t-17.5 -3.5
t-17.5 -1.5q-19 0 -34 4q-18 5 -28 16q-8 21 2 46q5 13 11.5 25.5t14.5 26.5q8 13 16.5 25.5t17.5 24.5q17 23 27 41q-8 -13 -15 -25.5l-15 -26.5q-8 -13 -14.5 -25.5l-13.5 -26.5q-2 -5 -4.5 -10t-5.5 -10q-6 -10 -9 -23q-2 -5 -2.5 -11t-1.5 -12q0 -11 6 -21q6 -9 19 -13
q13 -3 29 -3q8 1 15 2t15 3q14 3 22 8q12 7 21 27q10 21 14 42q2 5 3.5 10.5l3.5 12.5v1l26 84q0 2 0.5 2.5t0.5 1.5q-5 9 -15.5 31l-21.5 45l-27 57l-37 84l-10 50l12 2l14 -11l14 8l9 -10l42 -74l-28 77l-40 64l2 8l20 -8l15 -25l40 -102l15 -39l9.5 -23l9.5 -24
q7 -17 12 -28v1l8 19l14 35l16 40q0 1 0.5 1.5t0.5 1.5q2 6 4 10q0 3 2 5q1 2 1 3t1 3q5 11 8 21l6 20q2 7 5 16.5t2 27.5v5q-1 19 -8 37h5q2 -5 3.5 -10.5l3.5 -12.5l4 -13.5l4 -13.5q2 -8 4 -20t1 -22t-5 -22z" />
    <glyph glyph-name="z" unicode="z" horiz-adv-x="398" 
d="M399 -47q0 -1 -0.5 -2t-0.5 -2q-5 -12 -16 -22q-5 -5 -11 -9t-13 -8l-13.5 -7.5t-14.5 -5.5q-8 -3 -14 -5.5t-12 -4.5q-8 -4 -13 -6q-8 -4 -12 -5h-4q-10 0 -16 10t-9 18q-10 20 -23 36q-13 17 -31 32q-17 13 -38 21q-8 3 -24 5t-26 3h-73h-14v22l7.5 9.5t5.5 7.5l80 99
l60 77l27.5 36.5t24.5 34.5q-9 0 -20.5 0.5t-25.5 0.5l1 -1q-1 -3 3.5 -3t3.5 -3q-3 3 -11.5 3t-12.5 2l-13 -4l-7 -2l-27 -5l-23 -13l-41 -31h-15l-3 4l25 25l49 33l-42 -14l-8 3l13 11l-3 4l-32 -12l-14 -22l-1 19l21 16l24 9l106 8l162 3q1 -5 1.5 -8.5t0.5 -5.5
q0 -1 -0.5 -3t-0.5 -4l-63 -78l-56 -75.5l-61 -78.5l-4 -5q11 -2 24 -8.5t21 -14.5q19 -17 33 -37l24 -36q10 -16 16 -39q6 -20 18 -37q9 0 27 5q18 4 33 15q8 5 15 10t13 10q11 11 11 24q0 9 -5 17q-5 10 -11 15q-3 4 -6.5 7t-7.5 6q-5 2 -8.5 5t-6.5 5q-4 3 -19 13
l-13.5 10t-14.5 10t-14.5 9.5t-13.5 8.5q-13 9 -18 10q6 0 11 -3q13 -7 25.5 -13t25.5 -14q14 -7 26 -14t23 -15q7 -4 13 -9t13 -12q11 -13 13 -30v-5z" />
    <glyph glyph-name="one" unicode="1" horiz-adv-x="313" 
d="M297 55l-16 -28l-1 -7l-9 -11l-15 -7h-17h-1h-2q-5 1 -10 1h-11q-11 1 -18.5 1h-11.5h-24t-52 -2h-18q-6 0 -14 1h-33q-2 0 -6 -0.5t-11 -0.5q-1 5 -1 8.5v5.5v5.5t1 8.5l18.5 4.5t21.5 4.5q32 8 38 13q7 6 7 16l3 62l2 47v1l8 151v18l1 109q-2 14 -9 17.5t-10 3.5
q-5 0 -9 -2q-5 -1 -9 -3l-8 -4q-4 -3 -7.5 -6t-6.5 -7q-6 -6 -9 -16q-8 -25 -5 -51t15 -49l-3 -9l-1 -1q-2 4 -2.5 7t-2.5 7l-4.5 13l-5.5 15l-6 16t-5 16q-3 8 -4.5 16.5t-3.5 16.5q-1 8 -0.5 15t2.5 13q5 16 14 26q10 12 20 19q6 5 12.5 7l13.5 4q6 2 16 3.5t18 1.5v16
l14 24l-2 25l-6 1l-2 24l9 3l15 -23l17 -17l9 -23l12 12l-10 -24q2 -8 2.5 -16t4.5 -14l13 -171l-5 234l7 -3l6 -84l1 -225l3 -170l7 -19l4 -9l8 -18l17 -14l13 1l24 16zM209 65q0 -13 5 -18l3 -9q2 -2 3 -2.5t3 -2.5l-9 22l-5 11v-1zM139 415l6 -113l4 -83l8 6z" />
    <glyph glyph-name="two" unicode="2" horiz-adv-x="495" 
d="M395 53l57 -3l-17 -22l-83 -21l32 -15l-145 9h-99q-41 0 -92 1v27l53.5 66t38.5 42l37 41.5t50 61.5q20 24 36.5 48.5t26.5 43.5q12 23 16 42.5t4 29.5q-1 27 -13.5 46.5t-26.5 31.5q-17 14 -38 23q-23 9 -45 8t-39.5 -5.5t-29.5 -11t-16 -9.5q-12 -8 -22 -23
q-6 -8 -10.5 -16t-8.5 -16q-8 -17 -10 -35q0 -12 3 -21q-6 0 -12 3q2 6 2 10q5 18 9 37q2 10 5 19.5l6 18.5q1 3 6 14.5t13 25.5t17.5 27.5t19.5 19.5q50 15 82 16t62 -3q1 -1 3 -1t3 -0.5t3 -0.5q4 -1 9 -2q23 -5 44 -14t35 -23q44 -43 44 -108q0 -25 -8 -49
q-13 -33 -28 -54q-17 -23 -92 -98l-60.5 -58.5l-74.5 -68.5l48 -1l79 2h10h18t19 2q34 5 54 11.5t31 11.5q12 6 18 13l17 41l15 -34l11 -12l-58 -54zM274 44q0 1 -4 2.5t-7 3.5l-1 -1l-31 7q-1 -1 3.5 -2t9.5 -3l14 -4zM334 64q17 5 33 13.5l29 15.5l-116 -18z" />
    <glyph glyph-name="three" unicode="3" horiz-adv-x="421" 
d="M152 266l-20 -18l-5 3l-1 3l10 13l-5 -2l-35 -35v6l14 14l9 14l11 14l40 37l-18 -13l-28 -27l5 13l1 2q38 28 63 50.5t39 39.5q17 22 25 39.5t10 30.5t-1.5 23t-10.5 17l-1 1q-22 18 -46 19.5t-45 -4t-36 -14.5t-19 -12q-6 -4 -11.5 -9.5t-11.5 -13.5l-10 -16t-9 -17
q-8 -18 -9 -35q0 -11 3 -21q-3 1 -5.5 1.5t-5.5 1.5q0 3 0.5 5.5t0.5 4.5q2 9 4.5 18t4.5 19t4.5 19.5t6.5 19.5q1 3 6 14.5t12.5 25.5t17 27.5t19.5 19.5q46 23 81.5 24.5t59.5 -5.5q28 -8 49 -26q31 -29 31 -70q0 -34 -21 -64t-75 -66h9q58 0 94 -44q36 -45 36 -96
q0 -44 -21 -92q-19 -48 -74 -81q-44 -26 -106 -31v32q17 1 41 14q6 4 16.5 13t21 25t18.5 40t9 58q1 26 -9 46.5t-24 34.5q-13 14 -29 20.5t-31 6.5q-11 0 -21.5 -2.5t-25.5 -12.5zM129 32q9 -3 21 -4q11 -1 27.5 -0.5t39.5 5.5q22 4 20 0.5t-13 -11l-23.5 -16t-12.5 -13.5
l-84 2l-24 8l-35 26l-12 19l-5 25l-1 17l2 10l8 4l8 -13v16l4 9l8 -12l4 -26l10 -20l18 -11zM62 36l-5 15q-2 3 -4.5 6t-4.5 7l5 -17zM67 31q7 -5 15 -8z" />
    <glyph glyph-name="four" unicode="4" horiz-adv-x="492" 
d="M468 55l-16 -28l-2 -7l-9 -11l-14 -7h-18h-2q-5 1 -10.5 1h-11.5q-11 1 -18 1.5t-12 0.5q-11 0 -75 -3h-18q-6 0 -14 1h-33q-2 0 -6.5 -0.5t-10.5 -0.5q-1 5 -1 8.5v5.5v5.5t1 8.5l18 4.5l21 5.5q31 6 39 12q7 7 7 17l2 61h1l2 47v1l2 51q-9 -2 -18.5 -2.5t-19.5 -1.5
q-10 0 -24 -0.5t-33 0.5q-36 0 -75 6q-20 3 -37.5 7t-33.5 9q-33 11 -43 29h3q1 0 1 1q49 28 88 68q21 20 43 50t38 56l2 2q5 8 18.5 32l28 50l27 48t15.5 26t9.5 13.5l13 19.5l12 19l8.5 14q9 19 8 32q-2 10 -7 22l-14 25l-9.5 11t-10.5 9q-12 8 -21 7q-12 -2 -19 -9
q-8 -5 -15 -16q-7 -8 -12 -20q-6 -10 -9 -20q-14 -27 -24 -52l-21 -54v1q6 16 15 45q4 14 8.5 27.5l9.5 27.5q10 28 24 51q13 22 33 28q18 -2 29 -11q15 -11 23 -24q11 -15 17 -30q4 -8 6.5 -15t4.5 -15l1 -5q0 -5 -0.5 -9.5t-2.5 -9.5t-4.5 -9t-4.5 -9q-9 -12 -18 -26
l-19 -30q-21 -31 -37 -65q-2 -5 -5 -10.5l-7 -12.5q-11 -22 -23.5 -44t-25 -41.5l-23.5 -35.5t-18 -25q-15 -17 -28.5 -34.5l-27.5 -34.5q46 -3 92 -3q23 1 46 1.5t46 2.5q6 0 12 0.5t12 0.5l1 33l1 18l1 194l14 24l-2 25l-7 1l-2 24l10 3l15 -23l17 -17l9 -23l11 12l-9 -24
l2 -16t4 -14l14 -171l-5 234l6 -3l7 -84l1 -225l3 -170l7 -19l4 -9l8 -18l16 -13h13l25 16zM379 65q0 -12 6 -18l3 -9l5 -5l-9 22l-5 12v-2zM309 415l6 -113l5 -82l7 5z" />
    <glyph glyph-name="five" unicode="5" horiz-adv-x="452" 
d="M273 35q7 3 17.5 10.5t19.5 20.5t15 32t4 45q-2 23 -9 44t-23 38q-33 34 -77 34q-12 0 -22 -1.5t-19 -3.5q-10 -4 -32 -19l-19 -13q-3 -1 -5.5 -1.5t-5.5 -0.5q-7 0 -11 4q-2 2 -7.5 8.5t-5.5 9.5l7 305q0 5 11 10.5t19 7.5h6l11 2l38 -1h9l120 -3l40 -12l36 -24l-1 -31
l-24 34l-53 17l-4 -7l22 -16l-14 -6l-68 19l82 -50l43 -37l-5 -8h-24l-69 47l-22 10q-15 4 -31.5 3.5t-31 -5t-24.5 -12t-12 -16.5q-1 -7 -1.5 -11.5t-0.5 -7.5q-2 -17 0 -34q2 -14 7 -30t18 -27q4 -4 11.5 -3t15.5 3.5l16 5t14 2.5q35 0 67 -13q32 -14 57 -37
q9 -9 17.5 -21t17.5 -28q6 -11 9 -19l5 -13q3 -11 4 -26.5t0 -31t-2.5 -29t-3.5 -20.5t-6 -18.5t-13 -26.5t-23.5 -32.5t-36.5 -35.5q-14 -12 -30.5 -17l-34.5 -10h-1q-6 -1 -27.5 -4t-49 -2t-58.5 8.5t-56 27.5q-7 6 -12.5 18t-9.5 24t-6.5 22t-2.5 12q-3 16 -3 32
q-1 8 -1 15.5v14.5v9h9q-2 -4 -3 -7.5t-2 -8.5q-1 -12 2 -29q2 -8 4.5 -14.5t5.5 -13.5l7 -12t7 -9q3 -3 17.5 -14.5t39 -21.5t60 -14t80.5 8q1 1 4 2q2 1 4 1.5t4 1.5z" />
    <glyph glyph-name="six" unicode="6" horiz-adv-x="454" 
d="M180 36q7 -5 17 -8.5t23 -2.5q18 0 28.5 3.5t16.5 7.5q2 1 5 4q2 1 4 3q22 18 32 46t14 55.5t3 49t-1 25.5q-1 23 -9.5 42t-20 33t-22 23t-14.5 11q-11 6 -26 9t-32 3q-15 0 -30 -5q-10 -5 -15 -10q-2 6 -2 10q6 2 9 2q7 2 15 3.5t16 3.5t16.5 3l17.5 2q2 0 13 0.5
t24.5 -0.5t27 -3.5t22.5 -8.5q19 -17 31 -32t18.5 -29t10 -28t5.5 -30l1 -1q3 -44 -6 -84q-8 -35 -28 -71.5t-61 -59.5q-30 -10 -71 -10q-39 0 -71 17q-31 16 -55 46q-12 15 -21 30.5t-16 31.5q-20 54 -20 115q0 52 18 112q18 57 55 104q14 17 28.5 31t31.5 27l7 6l138 95
l38 14l44 3l17 -26l-39 13l-53 -18l1 -8l27 1l-7 -13l-67 -26l96 9l57 -5v-8l-19 -15l-84 -3l-41 -8l-27 -20q-20 -16 -33.5 -32.5l-25.5 -32.5q-33 -42 -48 -87t-18.5 -88t2 -81.5t15.5 -68.5t20.5 -49t17.5 -22z" />
    <glyph glyph-name="seven" unicode="7" horiz-adv-x="435" 
d="M401 330l-35 -22l16 -2l-45 -13l-20 -1l-4 -10.5l-4 -11.5l-21 -57q-2 -8 -7 -21.5l-13 -33.5l-31 -87l-1 -19l16 -13h13l25 16l10 4l-16 -28l-2 -7l-9 -11l-14 -7h-18l-29 1l-13 1h-5.5t-9.5 -1h-20h-17q1 13 18 46q5 10 15 36l26 68l53 139q-21 4 -41.5 2t-37 -6.5
t-28 -9.5t-15.5 -8q-5 -4 -10 -8.5t-10 -11.5q-10 -15 -17 -29q-3 -8 -5 -15.5t-3 -15.5q0 -10 3 -19q-3 1 -5.5 1.5t-5.5 1.5q1 2 1 4.5t1 4.5l4 16t4 17q2 8 4.5 17t5.5 17q1 3 5.5 13t11.5 22.5t15.5 24t17.5 17.5q43 13 70.5 14.5t52.5 -2.5l5 11l19 50q2 6 5 13.5
t7 18.5q1 3 3 8.5l5 13.5q-17 1 -30.5 1.5t-24.5 0.5l-131 3l-47 6q-7 15 -26 21l-15 8l14 17l34 10l89 10l-24 3l-138 -4q9 18 29 21l177 3l85 2l51 -1l17 1h7t9 -1q1 -8 1 -14.5v-11.5q0 -6 -4 -21t-13 -38l-11.5 -32.5t-10.5 -31.5t-9 -26.5t-6 -17.5q-6 -14 -9 -25
q1 0 1.5 0.5t1.5 0.5q14 7 22.5 12.5t13.5 9.5t6 8l3 22l11 -14l7 -4l-20 -33l-2 -7l27 6zM222 40q2 -2 3 -2l-2 5q0 -2 -1 -3zM235 66q1 1 1 3zM350 332q7 5 13 11l11 11l-42 -19q0 -3 -1 -4z" />
    <glyph glyph-name="eight" unicode="8" horiz-adv-x="443" 
d="M292 321l-1 -1zM397 213q6 -17 6 -44q0 -39 -8 -60q-2 -6 -6.5 -15t-12.5 -20q-15 -22 -25 -31q-21 -18 -60 -32q-24 -10 -57 -10h-12v2v-2l-78 3l-24 10l-45 27l-32 38l-8 24l1 10l22 -39l17 -19l18 -16l48 -24l30 -4l-40 22l-26 11l-20 14l-15 20l-12 23l-3 29l5 27
l9 25l22 40l16 19q2 0 4.5 1t6.5 2q6 4 14 6.5t17 4.5q9 3 17.5 5.5t16.5 4.5q2 1 2.5 1t2.5 1q-1 0 -1.5 0.5t-1.5 0.5q-24 13 -49.5 31.5t-36.5 37.5q-23 36 -23 67q0 23 8 55q9 32 28 53q21 22 52 37q33 15 68 15q15 0 28 -2t26 -7q14 -6 27 -16q11 -8 23 -21.5t20 -32.5
v-1q18 -39 12 -93q-3 -9 -10.5 -18t-16 -17.5t-16 -14t-9.5 -6.5q-6 -4 -12 -7.5t-12 -6.5l-4 2q2 1 2.5 1.5t2.5 1.5q5 5 10 9.5t10 10.5q4 5 7 10t5 10q1 3 3 13.5t2.5 25t-2.5 31t-10 33.5q-14 26 -33.5 37.5t-29.5 15.5q-11 3 -24 3q-34 0 -57 -22q-22 -22 -22 -54
q0 -24 11 -40q13 -19 38 -36q6 -5 22.5 -14l43.5 -23l21 -13l3 -3h-1h1q1 0 9 -5l19 -12q22 -11 52 -47q21 -27 26 -43zM106 79l-16 27l-7 16l2 14l6 -14l9 -6l-9 20l7 32l-12 -9l-11 -16l1 -14l14 -31l8 -12zM103 109q0 -6 3 -9zM298 63q22 22 22 61q0 31 -15 54
q-15 22 -58 49q-19 11 -31 21t-17 13q-4 -2 -12.5 -7.5t-18.5 -13t-20 -17.5t-17 -22q-5 -5 -8 -12l-6 -14q-4 -8 -6 -16l-5 -27l25 -42l18 -17l27 -14q3 -3 9 -6q5 -2 14 -5t25 -6q1 0 2 -0.5t2 -0.5h2h5q41 0 63 22z" />
    <glyph glyph-name="nine" unicode="9" horiz-adv-x="439" 
d="M62 338q-1 3 -1 7v19q0 17 2.5 42t12.5 51.5t30 51.5t53 42q31 9 71 9q39 0 70 -17q30 -16 55 -47q22 -30 36 -63q19 -51 19 -115q-1 -26 -5.5 -54t-14.5 -57q-9 -30 -21.5 -51t-31.5 -44q-11 -14 -28.5 -29.5t-34.5 -29l-30 -23t-16 -11.5l-87 -61l-39 -10l-38 -1
l-15 23l34 -12l47 15l-1 7h-23l6 11l59 22l-84 -7l-51 5v8l17 12l74 2l36 7l24 16q20 16 35 32l28 30q37 40 57 85.5t26 91t0 87t-22 74t-39 52t-51 20.5q-22 1 -34.5 -4t-18.5 -8q-17 -11 -27.5 -29t-16.5 -38.5t-8 -41t-2 -36.5q1 -11 3 -20.5l3 -14.5l1 -1l1 -2
q6 -15 14 -27t16 -20t15 -13.5t10 -6.5q5 -3 11.5 -5.5t14.5 -4.5q15 -3 32 -3q15 0 30 5q10 3 15 10q1 -3 1.5 -5.5t0.5 -5.5q-4 0 -8 -2q-8 -2 -16 -3t-16 -3t-16.5 -3l-17.5 -2q-3 0 -13.5 -0.5t-24 1t-27 4t-22.5 8.5q-16 13 -26 23t-16.5 19t-9.5 17.5t-6 18.5z" />
    <glyph glyph-name="period" unicode="." horiz-adv-x="231" 
d="M191 -32q-2 6 -4 13t-4 16l3 -9q5 -15 5 -18v-2zM176 38l-6 -2l6 -15.5t5 -15.5q1 -2 1 -4t1 -4q-3 9 -7 17q-2 5 -5 10.5t-5 10.5l-5 -2l-5 1l4 -10.5l4 -10.5q-3 -9 -15 -12q-11 0 -18 3q-5 1 -9.5 1.5t-9.5 0.5q-18 0 -28 -3q-13 -3 -19 -9q-8 -6 -12 -16
q-3 -5 -6 -11.5l-6 -13.5v1q0 14 7 25l6.5 11t8.5 11t8.5 9.5l7.5 9.5l3 3l-20 15l-11 31l23 23h17q6 10 17 16q17 0 31 -17q8 -9 18 -26l7 -5l10 7l17 19l8 6l-10 -32l3 -2l-5 -11zM81 48l1 9l-1 1q0 2 1 3v3l2 4q0 2 0.5 3t0.5 2l-8 2q-3 -3 -7 -11z" />
    <glyph glyph-name="hungarumlaut" unicode="&#x2dd;" horiz-adv-x="384" 
d="M140 835l1 -160l-35 -138h-20l-37 138l-3 107h10l12 -127h1l2 79q0 12 12 15l10 22l3 29l10 -2l9 8l10 31zM328 675l-35 -138h-20l-37 138l-3 107h10l11 -127h2l2 79q0 12 12 15l10 22l3 29l10 -2l9 8l10 31l15 -2z" />
    <glyph glyph-name="exclam" unicode="!" horiz-adv-x="213" 
d="M179 -34q-2 6 -4 13t-4 16q1 -2 2 -4.5t2 -4.5q2 -7 3 -11.5t1 -6.5v-2zM165 36l-7 -2l6 -15.5t5 -15.5q1 -2 1 -4t1 -4q-3 9 -7 17q-2 5 -5 10.5t-5 10.5l-5 -2l-5 1q3 -11 9 -21q-5 -9 -16 -12q-9 0 -18 3q-5 1 -9.5 1.5t-9.5 0.5q-18 0 -28 -3q-11 -1 -19 -9
q-3 -3 -6.5 -7t-5.5 -9q-3 -5 -5.5 -11.5t-6.5 -13.5v1q0 11 7 25l6.5 11t8.5 11t8.5 9.5t8.5 9.5q0 1 2 3l-20 15l-11 31l23 23h17q6 10 17 16q18 0 31 -17q10 -10 18 -26l8 -5l9 7l17 19l8 6l-10 -32l3 -2l-5 -11zM69 46l1 9q0 1 -1 1q0 1 0.5 1.5t0.5 1.5v3l2 4q0 3 2 5
l-8 2q-5 -5 -8 -11zM53 370l-6 170h12l14 -155l3 100q0 14 13 17l12 26l3 32l11 -2l11 9l11 35l17 -2v-193l-9 -87l-3 -16l-9 -74q-4 -26 -7 -48t-8 -39q-4 0 -11 -0.5t-18 -0.5l-22 135z" />
    <glyph glyph-name="dollar" unicode="$" horiz-adv-x="482" 
d="M429 240q11 -17 17.5 -32.5t6.5 -38.5q0 -35 -10.5 -64t-36.5 -52q-46 -40 -126 -46v-53l-5 -46l-4 -1l4 100h-2l-5 -66q-3 -4 -5 -16l5 -13l-6 7l-5 -13l-10 -10l-8 -12l-5 1l1 13l4 1l1 14l-10 14l-1 81q-7 0 -16 1t-20 2l-35 3l-30 7l-23 14l-26 15l-46 41l-12 28
l-3 17l33 -32l8 7l-17 28l-10 33l17 -20l12 13l15 -29l44 -43l43 -17l49 -18l4 -1q0 -1 1 -1h2h2q6 -2 8 -2l-1 25l1 58v73l-44.5 12.5t-22.5 6.5q-29 11 -50 30q-11 10 -21.5 21.5t-15.5 23.5q-16 33 -16 56q0 48 13 75q13 30 37 52q9 8 26 18l9.5 5t13.5 5q2 2 4 2
q14 5 28.5 8.5t29.5 4.5q3 1 10 1l4 43l4 2l-2 -44h4l1 10q3 4 5 15l-5 14l6 -7l5 13l10 10l8 12l5 -1l-1 -13l-3 -1l-2 -14l11 -14v-24q18 -1 37 -3.5t34 -5.5l4 -2q10 -5 19 -16.5t17 -23.5q9 -14 16 -31h-1q3 -5 5.5 -11t4.5 -12q7 -19 12 -41q6 -22 9 -38q1 -3 1.5 -5.5
t0.5 -5.5l-12 -3q4 10 3 22q-2 19 -10 37q-4 9 -9 17.5t-11 16.5q-12 15 -24 24l-19 13.5t-16 7.5q-14 6 -30 9t-31 4v-140v-28q23 -5 41 -8t31 -9q54 -25 77 -60zM233 447l4 40h-2zM269 486l-9 -88l3 -16l3 43zM149 416q-1 -20 17.5 -46.5t62.5 -40.5l1 41l-1 116
q-21 -2 -35.5 -9.5t-23.5 -16.5t-14 -17t-6 -12q-1 -5 -1 -15zM243 51h3l3 28l2 37l-5 -10l-2 -48zM241 7l-1 -12zM330 74q14 12 22.5 26t8.5 28q0 19 -10 32q-11 14 -41 27q-4 2 -12 4.5t-19 5.5v-68v-1l1 -77q28 3 50 23z" />
    <glyph glyph-name="parenleft" unicode="(" horiz-adv-x="338" 
d="M313 669q-30 -19 -54.5 -45.5t-42.5 -51.5h-1q-2 -3 -3.5 -5.5t-3.5 -4.5q-8 -12 -16 -22t-14 -19q-41 -64 -55.5 -126t-12 -118t17 -104t31.5 -84.5t32 -59t18 -27.5q2 -2 6 -8l4 -4l31 -28l33 -35l-3 -7l-15 9l-27 25l-6 2l8 -9l23 -20l-4 -3l-9 4l2 -4l8 -7l11 -16
l-6 -1l-76 55q-16 15 -34 34q-58 63 -89 135q-32 76 -32 158q0 95 32 165q17 37 40 70q6 9 10.5 15l8 10.5t7 8.5l8.5 10q1 0 1 1q14 15 56.5 43.5l116.5 75.5q0 -6 -0.5 -6t-0.5 -6z" />
    <glyph glyph-name="parenright" unicode=")" horiz-adv-x="338" 
d="M272 464q17 -35 24.5 -76t7.5 -88q0 -42 -7.5 -81.5t-24.5 -76.5q-31 -73 -89 -136l-17.5 -17.5l-16.5 -16.5l-75 -55l-6 2l10 15l9 7l1 4l-9 -4l-3 3l22 20l8 10l-6 -3l-27 -24l-15 -10l-3 8l33 34l31 29l4 4q2 2 3 4t3 4q3 5 18 27t32 58.5t31.5 84.5t17 104t-12 118
t-55.5 126q-6 9 -14 19.5l-16 21.5q-2 2 -3.5 5t-3.5 5q-19 26 -43.5 52t-54.5 46q0 6 -0.5 5.5t-0.5 5.5l116.5 -75t56.5 -44l1 -1l16 -18t18 -26q12 -17 22 -34.5t18 -35.5z" />
    <glyph glyph-name="comma" unicode="," horiz-adv-x="240" 
d="M177 106q25 -28 25 -72q0 -22 -9 -47q-8 -25 -18 -38l-2 -2l-12 -14l-19 -16l-41 -15l-22 1l-24 9l-15 9l-7 7l1 9l15 -1l-13 9l-5 8h14l24 -11l22 -2l19 9l15 19q7 14 7 29q0 10 -5 17q-3 3 -12 8.5l-23 13.5q-29 15 -29 45q0 23 16 38q15 15 44 15t54 -28zM104 -80
l-15 4h-16l17 -6zM111 -78q4 1 7.5 3t7.5 4z" />
    <glyph glyph-name="colon" unicode=":" horiz-adv-x="235" 
d="M191 220q-2 5 -4 12.5t-4 16.5q1 -3 2 -5.5t2 -4.5q2 -7 3 -11t1 -6v-2zM65 246q-3 -3 -6.5 -7.5t-5.5 -9.5q-3 -5 -5.5 -11t-6.5 -14v1q0 15 7 25q5 11 15 22q5 5 8.5 10t7.5 10l3 3l-20 15l-11 31l23 23l17 -1q7 12 17 17q17 0 31 -17q10 -12 18 -27l7 -4l10 7l17 19
l8 6l-10 -33l3 -1l-5 -12l-11 -9l-6 -1l6 -15.5t5 -15.5q1 -2 1 -4t1 -4q-2 4 -3.5 8l-3.5 9t-5 10t-5 10l-5 -1h-5q2 -9 9 -20q-4 -10 -16 -13l-18 3q-5 2 -9.5 2h-9.5q-8 0 -15.5 -0.5t-12.5 -1.5q-11 -3 -19 -9zM81 299l1 10q-1 0 -1 1t0.5 1t0.5 1v4l2 3q0 2 2 6l-8 1
q-5 -2 -8 -11zM191 -14q-2 5 -4 12.5l-4 15.5q1 -2 2 -4.5t2 -4.5q2 -7 3 -11t1 -6v-2zM199 109l-10 -32l3 -1l-5 -12l-11 -9l-6 -2q3 -8 6 -15t5 -15q1 -2 1 -4.5t1 -4.5l-3.5 9l-3.5 9t-5 10t-5 10l-5 -1h-5q3 -11 9 -21q-5 -9 -16 -12l-18 3q-5 1 -9.5 1.5t-9.5 0.5
q-8 0 -15.5 -0.5t-12.5 -1.5q-11 -3 -19 -9q-3 -3 -6.5 -7.5t-5.5 -9.5q-3 -5 -5.5 -11t-6.5 -14v1q0 14 7 25q5 11 15 22q5 5 8.5 10t7.5 10l3 3l-20 14l-11 32l23 22h17q7 12 17 16q18 0 31 -16q10 -12 18 -27l7 -5l10 8l17 19zM81 65l1 10h-1q0 1 0.5 1.5t0.5 1.5v4l2 3
q0 2 2 6l-8 1q-5 -4 -8 -11z" />
    <glyph glyph-name="semicolon" unicode=";" horiz-adv-x="240" 
d="M117 110q30 0 54 -28q25 -26 25 -71q0 -23 -9 -48t-18 -37q-1 -1 -1 -1.5t-1 -1.5l-11 -13l-19 -17l-42 -14l-22 1l-24 9l-15 8l-7 8l1 9l16 -1l-14 9l-5 8h14l24 -11l22 -2l20 8l14 20q8 14 8 29q0 9 -6 17q-3 3 -12 8.5l-23 13.5q-29 15 -29 45q0 23 16 37q16 15 44 15
zM98 -103l-14 4h-8t-8 -1l17 -5zM106 -101q4 1 7 3t7 4zM196 206q-1 5 -3 12.5t-4 16.5q2 -6 3 -10q4 -11 4 -17v-2zM182 276l-6 -2q3 -8 5.5 -15.5t4.5 -15.5q1 -2 1.5 -4t1.5 -4l-3.5 8.5l-3.5 8.5q-3 5 -5.5 10.5t-4.5 10.5l-5 -2l-6 1l9 -21q-3 -8 -15 -13q-12 2 -19 4
q-5 1 -9 1.5t-9 0.5q-17 0 -29 -3q-11 -3 -18 -9t-12 -17q-5 -8 -12 -25v1q0 14 6 26l15 21q5 5 9 10l8 10q2 2 2 3l-20 15l-10 31l23 23l17 -1q5 11 17 17q16 0 31 -17q5 -6 9 -12l9 -14l7 -5l10 7l17 19l7 6l-9 -32l3 -2l-5 -11zM87 285v10v1q0 2 1 3v3l2 4q0 1 0.5 2
t0.5 3l-8 2q-3 -3 -7 -11z" />
    <glyph glyph-name="question" unicode="?" horiz-adv-x="425" 
d="M194 527q-9 1 -18.5 1t-18.5 -2l-13 -4.5t-15 -6.5q-13 -8 -28 -21q-3 -3 -16 -17t-26.5 -31t-23.5 -33.5t-7 -24.5q-6 -2 -6 6q0 4 1 8q1 1 5 7.5t7 10.5l22 27.5t14 16.5l10 13.5l11 14.5t12 15l12 14q4 4 8 7.5l9 7.5h-1q13 11 25 20q11 8 22 13.5t20 5.5h1q2 0 3 -1
q16 -4 34.5 -10t35.5 -14q14 -6 22 -10t16 -9q12 -7 19.5 -13t15.5 -14q5 -5 9 -9.5t8 -9.5l1 -1v-1q39 -50 39 -117q0 -43 -16 -74q-17 -32 -44 -48q-14 -8 -32.5 -14t-42.5 -11q-25 -5 -28 -7q-8 -3 -11 -10q-2 -4 -7 -29h-11l-20 -1q-1 0 -3.5 0.5t-6.5 0.5
q0 2 -2.5 23.5l-7.5 63.5q-1 10 15.5 13.5t41.5 9.5t53.5 20t52.5 44q18 22 18 54q0 17 -5 29t-15 26q-8 11 -16 19t-16 13q-20 13 -42 21t-40 13zM260 -28q0 5 -4 17l-3 9l4 -15.5t3 -12.5v2zM261 88l-17 -19l-10 -8l-7 5q-9 15 -18 27q-15 16 -31 16q-13 -6 -17 -16h-17
l-23 -22l10 -32l20 -14q0 -1 -2 -3l-8 -10t-9 -10q-4 -5 -7.5 -10.5l-7.5 -11.5q-6 -12 -6 -25v-1q5 13 12 25q4 9 12 17q7 6 18 9q6 1 13 1.5t16 0.5q5 0 9 -0.5t9 -1.5t9.5 -1.5t9.5 -1.5q12 3 15 12l-9 21h6l5 1q2 -5 4.5 -10t5.5 -10l3.5 -9l3.5 -9q-2 6 -2 9
q-2 8 -5 15t-6 15l6 2l11 9l5 12l-3 1l9 32zM140 65q3 7 7 11l8 -1q0 -2 -0.5 -3t-0.5 -3l-2 -3v-4q-1 -1 -1 -3v-10z" />
    <glyph glyph-name="exclamdown" unicode="&#xa1;" horiz-adv-x="214" 
d="M181 185q-1 5 -3 12.5t-4 16.5q1 -2 1.5 -5t1.5 -5q4 -11 4 -17v-2zM167 255l-6 -2q7 -17 11 -31q0 -4 2 -8q-2 4 -3.5 8l-3.5 9t-5 10t-5 10l-5 -1l-5 1l4 -10.5l4 -10.5q-3 -10 -15 -13q-5 1 -9.5 1.5t-9.5 1.5q-4 2 -8.5 2h-9.5h-16t-13 -2q-11 -3 -18 -9t-12 -17
q-7 -12 -12 -25v1q0 14 6 25q8 12 16 22l8 10l8 10q2 2 2 3l-19 15l-11 31l23 23l17 -1q5 11 17 17q16 0 31 -17q5 -6 9 -12.5t9 -13.5l7 -5l10 7l17 19l7 6l-9 -32l3 -2l-5 -12zM72 264v10v1q0 2 1 3v3l2 3q0 2 0.5 3t0.5 3l-8 1q-3 -2 -7 -10zM160 -56l5 -170h-11l-14 155
l-3 -100q0 -13 -14 -18l-11 -25l-3 -32l-11 2l-11 -10l-11 -35l-18 3v193l10 87l3 16l9 74q3 26 6.5 48t7.5 39h12t18 1l21 -135h1z" />
    <glyph glyph-name="questiondown" unicode="&#xbf;" horiz-adv-x="426" 
d="M302 199q-2 6 -3.5 13t-4.5 16q1 -2 2 -4.5t2 -4.5q2 -7 3 -11.5t1 -6.5v-2zM177 225q-9 -7 -13 -16q-2 -5 -5 -11.5l-6 -13.5v1q0 13 6 25l6.5 11t8.5 11t8.5 10t8.5 10q0 1 2 3l-20 14l-11 31l23 23h18q4 10 16 16q18 0 31 -16q10 -12 18 -27l8 -5l9 7l17 20l8 5
l-10 -32l3 -2l-5 -11l-10 -9l-7 -2l6 -15.5t5 -15.5q2 -4 2 -8l-3.5 9t-3.5 8q-4 10 -10 21l-4 -1h-6q3 -11 9 -21q-5 -9 -16 -12q-9 0 -18 3q-5 1 -9 1.5t-9 0.5q-19 0 -29 -3q-12 -2 -18 -9zM193 279v9q0 1 -1 1q0 1 0.5 1.5t0.5 1.5v3l2 4q1 2 1 3t1 3l-8 1q-5 -5 -8 -11
zM233 -212q21 -2 37 1q12 3 28 11q17 10 29 21q3 3 15.5 17t26 31t23.5 33.5t7 24.5q6 1 6 -6q0 -4 -1 -9q-3 -3 -5 -7q-2 -3 -3.5 -5.5t-3.5 -4.5l-22 -27.5t-13 -16.5q-5 -7 -10.5 -13.5t-11.5 -14.5q-12 -17 -24 -29q-4 -4 -8 -7.5t-8 -7.5q-13 -11 -25 -20
q-11 -8 -22 -14t-20 -5h-4l-34.5 11t-35.5 14q-14 6 -22 10t-16 9q-11 7 -18.5 12.5t-15.5 13.5q-5 5 -9 10t-9 10l-1 1q-39 53 -39 118q0 42 17 74q15 31 43 48q29 15 76 24q11 2 18 4t9 3q7 4 11 11q2 3 3.5 10.5t3.5 18.5h11h20h10q1 -2 10 -87q1 -10 -15.5 -13.5
t-41 -9.5t-53.5 -20t-52 -44q-19 -24 -19 -55q0 -17 5 -28.5t16 -25.5q8 -11 16 -19t15 -13q20 -13 42 -21t40 -13z" />
    <glyph glyph-name="at" unicode="@" horiz-adv-x="752" 
d="M634 -29l1.5 -3t5.5 -15q4 1 9 6q-14 -16 -29 -29.5t-32 -25.5q-89 -60 -206 -60q-148 0 -245 96q-96 96 -96 242q0 101 48 187q47 86 134 133q88 47 191 47q83 0 149 -34q63 -35 96 -96q31 -61 31 -131q0 -80 -34 -145q-12 -23 -25 -40q-3 -5 -13.5 -17.5l-23 -27
t-24 -26.5t-16.5 -15q-9 -7 -19 -11t-23 -4q-24 0 -44 14q-17 14 -30 44q-5 -15 -19.5 -26t-29.5 -19q-18 -9 -39 -15q-5 3 -12.5 9t-16.5 17l-18 21l-18 23l-16.5 27t-14.5 26q-1 1 -1 3h-1q-2 7 1 17.5t8 20.5q5 11 12 23l9 15q9 14 19 25l9.5 11.5t9.5 10.5l6 6l3.5 -3.5
l3.5 -3.5q-8 -2 -15 -7q-5 -5 -9 -10t-8 -12q-7 -11 -12 -26q-2 -7 -3 -13.5t-1 -11.5q0 -12 5 -27l4 -10.5t5 -10.5q6 -14 15 -24q21 -24 41 -28.5t36.5 1t27 15t13.5 12.5q-1 10 -1.5 22t-1 21.5t-0.5 15.5v6v5l-2 51q0 8 -0.5 17.5t-0.5 17.5q0 11 -0.5 21t-1.5 18
q-6 24 -22 32t-33 9q-19 0 -42 -7h-1l-29 -12l-24 -20l-40 -44l-17 -4l-5 4l24 34l49 49l-45 -26l-10 2l12 15l-4 4l-34 -21l-11 -27l-6 21l21 23l26 15l116 32l8 2q9 2 23 3t27 0q3 1 7 1q18 0 33 -3.5t28 -9.5q25 -14 35 -39q1 -3 2 -15t2 -28.5t1.5 -37t1.5 -41.5
q2 -49 3 -109q0 -21 5 -26q11 -10 24.5 -5t24.5 13q2 1 6 5q2 0 2 2q2 1 4 3l2 1q1 0 1 1v1q29 26 51 72q28 56 28 121q0 105 -68 175q-69 69 -178 69q-94 0 -172 -45q-77 -45 -122 -129q-46 -85 -46 -182q0 -132 85 -219q87 -85 216 -85q108 0 194 59q17 11 32 24.5
t29 27.5zM708 84q-1 -2 -1 -4t-1 -4l-4 -12.5t-4 -14.5t-4.5 -15l-5.5 -15t-8 -16q-5 -9 -9 -17l-10 -14.5t-11 -12.5q-5 -5 -9 -6q-5 14 -5.5 15l-1.5 3l5 5q0 1 3 4q9 9 19.5 22l14.5 18q5 6 9 12t7 12q4 7 5.5 13.5t3.5 13.5q0 11 -2 16z" />
    <glyph glyph-name="ntilde" unicode="&#xf1;" horiz-adv-x="403" 
d="M180 362q-9 -4 -17.5 -7l-16.5 -6l-12 6t-11 7q2 2 4 6q5 2 9 4.5l9 5.5t9 6.5t9 6.5q5 4 9 6.5t9 4.5q10 5 20 5q13 0 25 -5l11.5 -6t10.5 -8q12 -8 18 -16q1 0 1 -1q1 -8 5.5 -14t8.5 -14q-11 11 -25 18q-20 10 -38 10q-20 0 -38 -9zM323 187q7 -17 5 -24
q0 -8 -0.5 -15t-3.5 -15q-5 -14 -9.5 -28t-10.5 -28t-10.5 -26.5t-9.5 -23.5q-2 -7 -6.5 -15.5l-9.5 -18.5l-11.5 -20l-11.5 -21l-9.5 -20.5t-7.5 -20.5q-8 -20 -3 -34q2 -7 11 -21q9 -13 20 -23q5 -6 11 -10l12 -8q12 -6 23 -3q11 5 18 13q4 4 7 9l6 10q5 13 8 23
q2 6 3 11.5t3 10.5q4 14 7.5 28.5t6.5 28.5l6 29.5l6 29.5l1 -1q-2 -9 -3.5 -21l-3.5 -27q-3 -30 -9 -60q-6 -29 -15 -56q-10 -25 -29 -35q-17 -2 -32 6q-16 8 -28 20l-12 12.5t-11 14.5l-9 15t-7 14l-2 5q-3 10 -1 20q2 5 3.5 10t3.5 10q14 30 27 64q8 18 14.5 36t11.5 37
q5 20 8.5 38.5t5.5 36.5l1 1h-1q2 14 -1 24t-5 13q-3 8 -6.5 14t-8.5 13q-24 32 -49 34.5t-45 -6.5q-9 -5 -20 -15t-17 -30v-24v-52l1 -54v-9q0 -9 3 -15l13 -13h11l21 14l8 3l-13 -23l-2 -6l-7 -9l-12 -6h-15l-8 2h-31l-13 1q-10 0 -21.5 -0.5t-30.5 -2.5h-26l-1 17
q8 5 21 7q12 3 16.5 4.5t6.5 3.5q7 10 7 40v126l-2 79h9l4 -67h3l1 18q0 12 10 15l8 23l3 30l8 -2l8 9l8 32l12 -2v-77q5 15 21 26t33 18q19 8 42 14q6 -3 14.5 -10.5t17.5 -18.5l18 -23t17 -26q5 -8 8 -14t8 -15t5.5 -9t4.5 -9z" />
    <glyph glyph-name="Ntilde" unicode="&#xd1;" horiz-adv-x="746" 
d="M692 432l-21 -362v-1q3 -19 -3 -40l-4 -85l-8 52l-8 7q-2 -3 -4.5 -5.5t-4.5 -5.5q-2 36 -19 64q-6 8 -22.5 24.5t-38.5 36.5l-46 41.5l-44.5 39.5l-35 30.5t-16.5 14.5l-32.5 25.5t-33.5 23.5t-32.5 22.5l-29.5 22.5q-8 8 -17 16l-18 16v-39q33 -20 66 -36
q18 -9 34.5 -19.5l32.5 -21.5l21.5 -18l38 -33l46 -40.5l45.5 -41l36.5 -34t19.5 -19.5q25 -30 35 -67q-2 -1 -3.5 -1t-4.5 -1q-3 0 -7 -2q-2 9 -10 19q-7 8 -19 17q-2 1 -15 12.5l-31.5 28l-40 35.5l-40.5 35l-32 27t-15 12l-10.5 7t-9.5 5q-15 8 -31 13.5t-33 8.5
q-32 7 -68 12q-5 0 -7 1l-3 -118q0 -33 12 -46q6 -8 18.5 -13.5t32.5 -10.5l20 -5v-30q-25 0 -53 3q-29 3 -74 3q-5 0 -26 -1t-58 -3l1 29q53 7 68 22q10 11 14 53l5 124l-18 3q-17 3 -33 8.5t-31 13.5q-17 9 -31 22q-15 12 -26 29q-10 14 -15 34q-5 19 -2 38l3 5
q5 10 11 15q8 8 17 9l14 -14l-8 -2t-9 -3q-9 -3 -14 -11q-6 -12 -3 -27q2 -8 4.5 -15t7.5 -15q7 -12 19 -26q10 -12 21 -18q4 -4 7 -5q4 -2 7 -4q16 -8 31.5 -13.5t32.5 -8.5l15 -3l1 14l3 83q-38 23 -73 53q-38 32 -66 74q-27 39 -40 86q-12 45 2 97q0 3 1 4q1 2 3 4
q10 20 29 36q21 16 42 23q11 3 22.5 5t23.5 1q23 -1 46 -12q6 -3 11.5 -6.5t10.5 -7.5q5 -5 10 -9t10 -9q29 11 56 6t54 -18q14 -6 26 -18q13 -10 21 -25q4 -8 6.5 -15t3.5 -15q2 -18 -7 -32q-11 -24 -29 -32q-18 -6 -33 -5q-8 0 -16 0.5t-16 1.5q-15 2 -25 -7l-1 -1
q-1 -2 -1 -9q1 -4 1 -6t1 -4l-1 -1l3 -9q-17 8 -25 25q-10 18 -2 35q11 19 28 22q20 3 36 2h35q17 2 23 14q5 8 2 17q-1 8 -8 18q-6 8 -14 14q-6 6 -14 10q-41 22 -88 8q5 -14 7 -32q0 -17 -7 -31t-21 -25q-7 -5 -14 -9t-15 -8q8 -16 17.5 -30t20.5 -28t23 -26l25 -24
q3 -3 21 -18.5l45 -38.5l60.5 -51l67 -57l64.5 -56.5l54 -48.5l1 217l-1 231l13 2l10 -32l9 -9l9 2l2 -29l9 -23q10 -4 12 -16l2 -92l11 142h10zM244 654q-10 -3 -20 -15q-12 -13 -15 -20q-6 -12 -6 -24v-13t1 -12q13 2 25 9q12 6 18 18q7 13 6 29q0 16 -9 28zM187 372
q12 -9 27 -18l2 55q-11 13 -20 26q-10 14 -18 28.5t-14 30.5q-11 30 -13 67q-17 13 -27 36q-9 23 1 44q10 16 24 22q8 3 16 5.5t16 4.5v-19q-12 -2 -22 -7q-10 -4 -17 -16q-6 -12 -3 -28q3 -14 14 -24q1 2 1.5 5t2.5 8q1 9 3 11q10 22 30 42q19 22 39 32q-5 8 -13 14
q-4 3 -7.5 6t-8.5 5q-19 10 -42 10q-20 0 -41 -8q-19 -7 -36 -23q-8 -7 -14.5 -15t-11.5 -17q-14 -28 -14 -60q1 -15 3.5 -29.5t8.5 -28.5q11 -29 29 -55q17 -26 39 -46q-7 6 -12 13t-10 15t-8 15.5l-6 15.5q-4 15 -4 34q2 18 10 34q0 1 2 3t2 3l9 -2q4 -6 4 -8q2 -6 2 -9
q-3 -5 -8 -8l-9 -6q-4 -13 1 -28q3 -7 5.5 -13.5t4.5 -13.5q4 7 5 8l6 4l8 3q14 -12 20 -32q5 -20 -6 -35q19 -29 50 -51zM286 303q-8 5 -16 9t-16 9l-2 -80v-1q2 -1 4.5 -1t4.5 -1q33 -5 66 -12q17 -4 33 -9.5t31 -13.5q2 -2 6 -3.5t9 -5.5q2 -1 15 -12l31.5 -27l40 -35
l40 -35l31.5 -27.5t15 -12.5q5 -4 10 -7.5t10 -7.5q5 -3 7.5 -6.5t4.5 -5.5q-3 6 -18 21.5l-35.5 36l-44 43l-44 42.5l-36.5 34.5t-20 19.5q-27 27 -60 48q-16 11 -33 20.5zM258 819q-1 2 -1 4q-1 4 -1.5 8t0.5 9q0 8 3 16l3 5q4 7 13 13l8 4t9 3q4 1 11 1q3 0 5.5 -0.5
t5.5 -1.5q2 -2 4 -3t4 -3q5 -3 5 -9q3 -8 -1 -15q-1 -4 -7 -8l-9 -6q-4 -4 -5 -7v-1l2 -2t3 -2v-1l2 -2q-7 0 -11 2q-7 3 -8 8q-1 7 2 12q6 6 9 8q2 2 4.5 3.5t4.5 3.5q4 4 3 9q0 2 -3 4q-2 3 -6 3q-2 1 -6 1h-6q-15 -3 -24 -17l-3 -5q-2 -4 -2 -8v-8q1 -4 4 -8q1 -2 5 -6
l5 -2q5 -2 11 -3.5t11 -3.5q5 -1 11 -1.5t12 -1.5q42 -2 73.5 1t52.5 6q25 4 43 9l15 3q8 2 17 3t17 3q9 1 18 1h18q17 -1 34 -6q17 -6 31 -16l7 -7l4 -6q2 -2 2.5 -3t1.5 -2q2 -5 4 -11.5t3 -13.5q3 -14 0 -26l-2 -9q-6 -15 -16 -25q-5 -5 -11 -9t-13 -7q-4 -2 -7.5 -2.5
t-8.5 -2.5q-9 -1 -17 0t-15 6q-6 4 -11 13q-6 12 -3 22q2 9 8 15q8 8 11 12q6 4 6 13h-1q0 1 -3 3q-4 2 -5 3l-4 2q6 4 18 2q11 -2 14 -10q4 -11 0 -18q-2 -5 -4.5 -8.5l-5.5 -7.5t-6 -7t-5 -7q-5 -5 -2 -14q1 -5 6 -6q6 -2 10 -2h10q3 1 5 1.5t4 1.5q22 11 31 33l3 9
q2 5 0 13q-2 7 -3 12q-2 5 -8 11q-2 2 -5 3.5t-5 3.5l-8 2q-18 3 -36 3t-36 -3l-12.5 -2l-12.5 -2q-7 -2 -27.5 -5.5t-50 -6t-65 -1.5t-71.5 9v1h-2q-2 1 -4.5 1t-4.5 1q-11 3 -20 9q-8 4 -17 14l-4 5z" />
    <glyph glyph-name="bracketright" unicode="]" horiz-adv-x="278" 
d="M215 695v-92v-508q-1 -34 -1 -61v-68l-99 -1v1l-48 -1l-25 10l-15 9l-8 8l1 9h16l-14 9l-5 8l14 1l26 -12l23 -1l21 8l19 20h1v17v294v108.5t0.5 96.5t0.5 70v30q-5 12 -14.5 17.5t-14.5 7.5t-10.5 3l-10.5 2q-36 6 -66 2l2 8q18 1 42 3q12 2 24.5 2h24.5h4h73h39z
M94 -16l-16 4h-8t-8 -1l17 -5zM101 -15q10 4 14 7z" />
    <glyph glyph-name="quotedblleft" unicode="&#x201c;" horiz-adv-x="383" 
d="M140 805l1 -160l-35 -138h-20l-37 138l-3 107h10l12 -127h1l2 79q0 12 12 15l10 22l3 29l10 -2l9 8l10 31zM328 645l-35 -138h-20l-37 138l-3 107h10l11 -127h2l2 79q0 12 12 15l10 22l3 29l10 -2l9 8l10 31l15 -2z" />
    <glyph glyph-name="acute" unicode="&#xb4;" horiz-adv-x="160" 
d="M149 611l-1 -11l-32 -73l-51 -64v1l-17 -22h-17q-8 0 -12 1q3 11 5.5 18.5t5.5 17.5l22 66l34 49l5 -4l-30 -55l27 34l4 2l-8 -24l6 -4l-5 -13l18 -4l40 82zM86 490l1 3l-1 -2v-1z" />
    <glyph glyph-name="F" unicode="F" horiz-adv-x="796" 
d="M794 389q-6 -2 -10 -2q3 8 2 18q0 13 -8 31q-6 16 -17 28q-8 12 -19 21l-14 8.5t-17 6.5l-26 7q-13 3 -31.5 5.5t-41.5 3.5h-22h-49.5t-44.5 -1q-1 -5 -1 -26v-59l1 -72v-23q15 -1 39.5 -3l49 -4t44.5 -4.5t26 -4.5q29 -11 47 -29q13 -13 21 -35q-2 -9 -3 -18t-1 -18
q-20 26 -46 35q-8 3 -32.5 5.5t-53 4.5t-54.5 3.5t-36 1.5q0 -3 -1 -5v-6q21 -2 44 -5t34 -6q31 -8 60 -30q-2 -1 -2.5 -2t-2.5 -3t-2.5 -3t-1.5 -2q-7 5 -17 8q-5 1 -10.5 1.5t-11.5 0.5q-3 0 -12 1t-19.5 2t-19.5 1.5t-12 0.5l-20 -3q-4 0 -7 -1v-53v-92q0 -18 12 -22
q3 -2 12 -4q22 -3 46 1q17 4 28 8t16 7q6 4 9 7l8 22l8 -18l6 -5l-29 -30l-3 -8h29l-8 -11l-43 -14l17 -7l-68 6h-61q-26 0 -57.5 -1t-69.5 -3h-18l-52 -2v29q5 2 12.5 2.5t20.5 2.5q23 2 38 5.5t24 8.5q4 11 4 31v25v13v52l-19.5 -9.5l-19.5 -9.5q-29 -13 -57 -17
q-15 -3 -33 -1t-33 7q-16 6 -28 17q-13 10 -21 26l-1 5q-1 7 0 16q1 8 8 15l17 -3q-2 -2 -4.5 -5t-5.5 -7q-4 -7 -4 -15q3 -14 12 -21q12 -8 23 -14q14 -8 28 -9q13 -3 23 -3q6 0 8 1q4 0 7 1q32 5 57 16q11 5 21.5 10.5t21.5 10.5l-1 64h-3q-17 -2 -34 -3.5t-34 -3.5
q-40 -4 -85 0q-43 3 -85 17q-20 8 -38 17.5t-34 23.5q-33 27 -49 70q0 1 -0.5 1.5t-0.5 1.5v4q-3 20 2 41q6 20 18 37q13 17 30 29q19 11 38 15q6 1 12 1h11l24 -3q14 22 36 34q23 11 48 15q12 1 27 0q17 -2 28 -7q13 -6 23 -16q10 -11 11 -26q4 -24 -4 -37t-21 -22
q-6 -4 -12 -7.5t-12 -6.5q-11 -6 -14 -18v-1q0 -3 4 -7l6 -6l1 -1l6 -6q-15 -1 -31 6t-19 24q-2 18 9 29q10 12 24 21l13 9l12 8q12 10 9 22q-2 9 -7 13t-15 8q-5 2 -9 2.5t-8 1.5q-11 0 -16 -1q-39 -6 -66 -39q13 -8 21 -19q9 -12 12 -26q2 -14 -3 -28q-2 -8 -4.5 -14.5
t-6.5 -12.5q25 -14 57 -22q14 -4 29 -6.5t30 -4.5t30 -3.5t31 -1.5q3 -1 9 -1l-1 51l-2 102v12l-20 8l12 -1l-21 20l-1 9l17 -8v5l-9 26l6 1l10 8l-2 -15q0 -1 1 -3t2.5 -4.5t4.5 -5.5q9 -1 13.5 -0.5t15.5 0.5h27.5t51.5 2q36 2 54 2.5t38 0.5h41q29 -1 60.5 -3t50.5 -10
q9 -6 17.5 -17.5t15.5 -24t11.5 -22.5t5.5 -12q3 -8 5.5 -17t4.5 -17q2 -9 4 -17l4 -16q0 -2 0.5 -4.5t0.5 -4.5zM366 549q2 -5 7 -11v5zM156 449q-1 -13 0 -22q1 -10 8 -20q3 -5 6.5 -9t6.5 -8q9 9 13 19q6 10 4 22q-1 11 -11 24q-8 10 -21 15q-5 -8 -6 -21zM333 245
l21.5 2t21.5 3v17q-5 1 -9.5 1t-9.5 1q-14 1 -28.5 2.5t-29.5 4.5q-15 2 -29.5 5.5t-28.5 8.5t-27.5 11.5t-25.5 14.5q-13 8 -23.5 18t-19.5 22q-20 2 -38 12q-19 11 -22 32q-1 15 6 28q7 12 17 23l10 -13q-4 -4 -7 -8t-6 -9q-5 -9 -3 -20q1 -12 12 -21q10 -10 23 -10
q-1 2 -2 4.5t-3 6.5q-3 7 -3 10q-4 19 -1 45q3 23 12 43q-8 3 -16 3h-9t-9 -1q-18 -3 -34 -14q-14 -10 -25 -27q-9 -13 -14 -35q-4 -17 -1 -36q3 -27 20 -49q15 -20 38 -36q11 -7 23 -12.5t26 -10.5q25 -10 51 -13q-8 2 -15 3.5t-14 4.5q-8 3 -14 7t-12 9q-11 8 -21 22
q-9 14 -10 29v3q0 2 -1 3l8 3q3 -1 7 -3l6 -6q0 -6 -2 -10l-3 -9q4 -10 16 -19q5 -4 10 -7t10 -7q-1 4 -1 8q2 2 2 6l5 7q17 -2 30 -13q14 -11 14 -28q27 -10 61 -10q17 0 33.5 1t33.5 3zM548 40l29 -5q8 4 16 8.5l15 8.5zM527 36q-1 -2 -1 -4l20 -9zM496 226h2q2 1 6 1t9 1
q3 0 11.5 -1t19 -1.5t19 -1t11.5 -0.5q6 0 11.5 -0.5t10.5 -0.5q9 0 15 -2q-19 11 -50 17t-53 8h-12v-20z" />
    <glyph glyph-name="A" unicode="A" horiz-adv-x="846" 
d="M812 -162l-12 -20l8 -52l-122 337l-26 44l-29 14q-2 4 -3.5 8t-3.5 8v-1q-6 8 -17 12q-11 5 -25 7q-7 2 -13.5 2.5t-13.5 1.5q-7 0 -12.5 0.5t-10.5 0.5q-36 0 -67 -10q-8 -2 -14.5 -4t-14.5 -4l-12.5 -34.5t-16.5 -47.5q-9 -23 -9 -32q0 -12 6 -16q3 -2 7 -4t9 -4l12 -5
l13 -5l24 16l11 4l-16 -28l-2 -7l-9 -11l-14 -7h-18l-12 3q-14 1 -30.5 2t-36.5 2l-19 -2q-17 -3 -33 -4t-31 -1h-9l2 31q5 2 12 3.5t18 3.5q33 6 42 11q7 6 19 25l33 87l-21.5 -7.5t-21.5 -6.5q-33 -9 -67 -9q-16 0 -38 5q-17 4 -35 14q-9 5 -16 10.5t-14 12.5
q-11 14 -19 34v5q0 10 4 19q3 9 10 16l20 -7q-4 -2 -7 -5l-7 -7q-7 -9 -7 -16q0 -13 10 -25q5 -6 10.5 -11t13.5 -10q13 -10 29 -15q13 -5 27 -7q2 0 4 -0.5t4 -0.5h8q35 0 67 9l51 15l28 73q-5 0 -10 0.5t-10 0.5q-20 1 -39 1.5t-38 2.5q-23 2 -47 5t-50 9q-25 6 -48 14.5
t-45 20.5q-42 23 -74 59q-32 34 -43 87q-1 1 -1 4q1 2 1 4q0 26 10 46q9 22 26 39q16 16 39 27q20 10 46 10q12 0 26 -3q6 -2 12.5 -3t13.5 -3q20 21 47 31q27 9 56 9q8 0 15.5 -1t16.5 -3q8 -2 15.5 -5.5t14.5 -7.5q12 -8 22 -23q9 -14 9 -31q0 -28 -12 -41
q-11 -14 -27 -21q-8 -3 -15 -6l-14 -6q-15 -5 -19 -18v-1q0 -3 3 -9q4 -4 6 -8v-1l6 -7q-16 0 -34 12q-17 11 -17 30q0 20 15 31q7 6 15 10.5t16 9.5l15.5 7.5l15.5 7.5q14 8 14 23q0 10 -6 16q-6 7 -15 12q-5 2 -9.5 3.5t-9.5 3.5t-9 2h-8q-48 0 -82 -33q13 -12 20 -25
q9 -15 9 -31t-8 -32t-17 -28q27 -20 60 -34q30 -13 65 -24q17 -5 34 -9t34 -7q13 -3 25 -5.5t25 -5.5l55 141l-22 46v-21l-10 27l-10 27l3 13l-3 -11q-4 11 -7.5 22t-6.5 22l17 58l-6 26l-20 49l34 -38l306 -572l14 -42q-23 10 -37 28l-6 -8l63 -189l-20 12zM603 412l6 -34
l51 -86l-9 35zM617 218l6 -1q-2 2 -4 3zM578 342l-14.5 27l-14.5 26.5l-12.5 21.5t-6.5 12l-32 -86q15 -3 34 -9q34 -9 61 -25l-2 6zM180 520q-4 -13 -4 -26q0 -11 5 -24l6 -10.5t7 -10.5q10 8 18 19q8 13 8 25q0 14 -8 28q-9 13 -21 21q-6 -6 -11 -22zM344 258q17 -1 34 -1
t34 -1l6 17q-11 2 -21.5 3.5t-20.5 4.5q-33 8 -65 18q-17 5 -32.5 11.5t-30.5 14.5t-29 17.5t-26 20.5q-25 22 -42 53q-21 4 -41 20q-19 17 -19 40q0 17 11 30q12 13 24 24l9 -17q-10 -6 -17 -16t-7 -22q0 -14 10 -27q9 -12 23 -14q0 4 -3 13q-2 5 -2 7.5v3.5q0 26 7 51
q8 28 21 47q-9 4 -18 6q-5 2 -10 2h-10q-22 0 -41 -10q-19 -9 -33 -26q-14 -16 -22 -36q-8 -22 -8 -41q0 -34 15 -59q13 -26 37 -47q22 -21 51 -36q14 -8 27.5 -13l27.5 -10q-15 6 -31 15q-16 10 -27 22q-13 13 -19 28q-7 15 -7 35v3q0 2 0.5 2.5t0.5 1.5l9 2q5 -2 7 -5
q2 -2 3 -3.5t3 -3.5q-2 -6 -4 -11q-2 -2 -2.5 -5t-2.5 -5q3 -14 14 -24q5 -5 10.5 -9.5t10.5 -9.5q-1 3 -0.5 5t0.5 4l4 6l6 7q18 -5 32 -20q14 -14 11 -34q32 -18 67 -22q19 -3 37.5 -4.5t38.5 -2.5zM595 200q10 -1 16 -5q-33 22 -69 33q-35 11 -76 16h-5l-15 -38
q-1 -2 -2 -5t-3 -7q5 2 9.5 2.5t9.5 2.5q33 9 67 9h7.5t10.5 -1t12 -1t13 -2q7 -1 13 -1.5t12 -2.5zM574 231l19.5 -10t18.5 -12q-3 6 -5.5 12l-4.5 11q-17 9 -34 15.5t-37 10.5q-30 6 -62 9l-5 -12q10 -1 19 -1.5t18 -2.5q20 -3 38 -8t35 -12zM691 206l-17 38l-20 34
l15 -37zM786 -120q0 7 -6 15z" />
    <glyph glyph-name="B" unicode="B" horiz-adv-x="763" 
d="M741 274v-63l-73 -136l-152 -204l-47 -53l-1 23l-81 -71l-22 -1l-40 -34l228 291l62 95l10 46l-13 97l-20 29v34l-40 16h-53l-47 -10l-108 -71q-1 -38 -1 -75.5v-75.5l12 -35l12 -26l16 -14h13l25 16l10 4l-16 -27l-2 -8l-9 -11l-14 -6l-18 -1l-12 3q-8 1 -16 1t-17 1
q-19 0 -39.5 -1t-43.5 -3q-10 0 -36 -1t-70 -3l1 36q13 4 27 5q14 2 26 5.5t22 7.5q7 12 8 20q3 21 3 56q-11 -11 -23 -20t-26 -17q-30 -17 -62 -23q-33 -5 -67 7q-1 0 -2 1q-2 2 -3 2q-15 10 -23 23q-10 15 -13 29q-4 14 -2 33q1 15 11 31q2 4 4.5 7.5t6.5 6.5q6 7 13 13
q-6 20 -1 39q4 19 15 37l6 8t8 9l9.5 7.5t9.5 5.5q12 5 21 5q11 0 22 -6q15 -10 20 -22q3 -13 2 -24q-1 -5 -1.5 -10.5t-1.5 -10.5q-3 -11 3 -18l1 -1q1 -1 6 -1q2 0 3.5 0.5t3.5 0.5v-1l7 1q-7 -11 -19 -15q-14 -6 -24 0q-12 8 -14 20v13t1 13q1 6 1 12t1 12q0 11 -9 17
q-5 3 -11 2q-9 -2 -13 -5q-6 -3 -11 -8q-2 -3 -4 -5.5t-4 -4.5q-16 -26 -10 -60q10 3 23 3q13 -2 21 -7q11 -7 16 -16q7 -11 10 -20q21 8 42 23q10 7 19.5 14.5t18.5 15.5q5 5 9.5 9t9.5 9l-1 77q0 29 -3 157q0 12 -0.5 20.5t-1.5 14.5l-27 -6l-66 -24l-19 4l-3 7l43 23
l75 23v1l-58 -2l-10 8l21 8l-2 7l-46 -4l-26 -23l5 26l34 12l34 2l61 -13l65 7v1l4 -1l34 4l8 -14l59 40l54 17q24 -9 36 -37l4 -33l-27 -63l37 -47q4 -21 29 -33l50 -20l40 -30l47 -23l43 -30zM379 493q-8 2 -17 3t-19 2q2 -25 2 -50v-50l64 28l16 34zM80 226q-10 0 -20 -5
q2 -7 9 -14q8 -9 13 -12q7 -4 17 -6h17q-2 10 -5 17q-5 10 -12 14q-5 3 -9.5 4t-9.5 2zM214 134q6 3 11 8q0 2 0.5 3.5t0.5 3.5l-1 38q-8 -7 -17 -11q-10 -6 -20.5 -11t-21.5 -8q-24 -6 -47 -5q-9 -10 -26 -17q-16 -6 -31 3q-10 7 -14 18q-2 6 -3 11.5l-2 10.5h13
q0 -5 1 -8.5t3 -8.5q3 -8 10 -12q8 -4 19 -4q11 1 17 9q-2 1 -9 3q-5 1 -7 3l-14 10t-13 13q-14 14 -20 29q-6 -3 -11 -8q-2 -2 -4 -5l-4 -6q-8 -14 -9 -28q-2 -15 3 -29q4 -13 14 -26t21 -20q19 -11 40 -13q20 -1 41 5q11 3 20.5 7.5l19.5 9.5q17 11 34 24q-8 -6 -21 -13
l-10.5 -4l-11.5 -4q-11 -3 -24 -1q-11 1 -23 9l-2 1q0 2 -2 2l2 6q2 2 3 2t3 1h6q4 -2 5 -6q2 -3 4 -7q10 -3 20 0q11 4 19 5q-5 3 -5 4q-2 2 -3 4l-2 7q10 8 23 11q15 3 25 -6zM343 66q1 -5 1 -15q4 -2 7 -2zM399 403l-10 3l-40 -10l-4 -2v-42zM449 383q-2 6 -7 7l-40 -40
l33 16zM442 423l-7 10l-6 -13zM465 450q-2 12 -10 20zM469 543l10 46q-5 21 -27 27l-83 -33l-13 -24l103 -36zM475 413q2 -20 20 -23q0 18 -20 23zM558 380q-9 21 -33 30v-34zM595 376q-17 16 -37 27zM410 -185q5 3 9 12zM568 -12q7 15 10 40l-17 -24q1 -5 1.5 -11t0.5 -11z
M622 264q4 -12 6 -24zM648 91l-3 23l-10 -53zM651 337q0 4 -6 6zM724 254l-13 39l-12 13.5t-14 13.5l20 -80l-14 -79l27 43z" />
    <glyph glyph-name="C" unicode="C" horiz-adv-x="941" 
d="M918 107l-62 -59l36 2l-143 -55l-51 -10l-45 -1l-43 8l7 -19l-75 34q-3 1 -6 1t-5 1q-38 10 -67 24l-187 74q-20 7 -36 18q-10 5 -20 11.5l-21 13.5l-19.5 15.5t-18.5 16.5q-17 16 -30 38q-13 19 -18 45q-12 7 -24 22q-10 14 -5 32q3 12 14 18q10 7 21 12l3 -14
q-7 -1 -15 -7q-6 -5 -10 -14q-3 -9 2 -20q3 -12 13 -15v9q1 5 1 9q2 8 6.5 16.5t9.5 16.5q10 17 24 28q-5 5 -11 8q-3 2 -6.5 3t-6.5 3q-14 4 -31 2q-16 -3 -28 -12q-7 -4 -12.5 -9t-10.5 -11q-10 -15 -14 -27q-6 -24 -2 -44q2 -11 6 -21t10 -19q11 -18 28 -35
q15 -15 33 -28q-9 7 -18 17q-9 9 -15 21q-2 5 -4 11t-3 12q-1 11 2 26l2 2q0 2 1 3l6 -1q2 -2 3 -2.5t2 -2.5q0 -2 2 -6q-1 -3 -5 -7t-6 -5q0 -10 5 -20l5.5 -9l5.5 -9q0 4 2 6t3 4l6 3q12 -6 18 -20q7 -12 1 -26q16 -16 42 -29q24 -12 51 -21q14 -5 27 -8.5t27 -8.5
q1 0 2 -1q-1 -2 -1 -3t-1 -3q-7 2 -13 4.5t-12 4.5l-27 9.5t-26 9.5q-29 10 -63 29q-34 20 -58 44q-25 27 -39 56q-15 31 -12 69q0 2 1 3q0 1 0.5 1.5t0.5 1.5q4 15 16 30q12 13 27 21q16 8 32 11q8 1 17 0.5t17 -3.5l9 -3.5t8 -3.5q5 -2 9 -5t8 -5q19 10 39 12q20 0 41 -6
q10 -3 21 -9q9 -5 18 -16q8 -8 11 -20t-1 -23q-4 -19 -16 -26q-10 -7 -23 -9q-6 -1 -12 -1.5t-11 -0.5q-11 0 -17 -8v-1q-1 -3 0 -7q1 -3 3 -7h-1l3 -7q-11 4 -21 15q-9 12 -5 25t16 19q12 4 26 6q7 2 13 2.5t12 2.5q11 2 14 13q2 7 -1 12q-2 6 -8 11q-5 6 -12 9q-3 2 -6 3
t-5 2q-32 11 -63 -6q6 -10 8 -22q3 -12 0 -22q-3 -12 -12 -21q-6 -8 -18 -16q14 -18 35 -36q9 -8 19 -15.5t21 -14.5l21.5 -13.5t21.5 -12.5q10 -5 17 -9t18 -9l34 -15q-8 13 -13.5 25.5t-9.5 26.5q-15 45 -15 101q0 136 89 223q86 86 221 88q20 2 66 2t105 -12h2
q1 0 1.5 -0.5t1.5 -0.5q9 -4 18 -15.5t17 -24.5q9 -15 16 -32q2 -6 5 -11.5t5 -12.5l6 -20l6 -21q4 -21 9 -39q1 -2 1 -5t1 -6q-3 -1 -6.5 -1.5t-6.5 -1.5q4 10 3 22q-1 18 -9 38q-8 16 -21 34q-11 15 -24 25q-9 7 -16.5 10.5t-20.5 7.5t-29 6q-25 5 -55 8t-57 4h-14
q-71 0 -114 -55q-58 -74 -58 -208q0 -79 10 -110q17 -56 41 -87q11 -16 30 -28q12 -10 29.5 -15t34.5 -8q19 -4 40 -5l151 56l72 82l-6 45l30 -23l16 -4l-25 -76l1 -17l50 26zM146 296q1 -5 2 -9l2 -8q7 2 17 9q6 5 10 16q3 8 1 21q-3 9 -11 19q-7 -5 -12 -14
q-3 -5 -4.5 -8.5t-3.5 -7.5q-1 -5 -1.5 -9t0.5 -9zM770 42q-6 2 -50 4.5t-120 -8.5l22 -8l93 9zM820 79q11 14 18 33.5t15 31.5l-93 -73z" />
    <glyph glyph-name="quotedbl" unicode="&#x22;" horiz-adv-x="833" 
 />
    <glyph glyph-name="aacute" unicode="&#xe1;" horiz-adv-x="403" 
d="M366 61q-9 -34 -23 -46q-14 -13 -37 -13q-22 0 -37 12q-16 13 -27 38q-4 -13 -15.5 -22.5t-25.5 -16.5q-16 -8 -34 -13q-5 3 -11 8.5t-14 14.5q-8 8 -15.5 17.5t-14.5 20.5q-8 11 -15.5 22.5t-12.5 22.5v2v1q-2 6 0.5 15t6.5 17q4 10 10 20q1 2 3 5q2 2 2.5 4t2.5 4
q4 5 7.5 10.5t8.5 10.5t9 9.5t8 9.5q3 3 4 5q3 -2 6 -5q-8 -4 -12 -7q-9 -8 -15 -18q-6 -11 -10 -23q-3 -12 -3 -21q0 -12 3 -24h1l3.5 -9l3.5 -9l6 -10t7 -10q18 -21 35.5 -24.5t31.5 1t23.5 12.5t11.5 11q-1 9 -1.5 19t-1 18t-0.5 13v5v5l-2 43q0 8 -0.5 15.5t-0.5 15.5
v17t-1 16q-5 20 -19 27.5t-28 8.5q-17 1 -37 -6v-1l-26 -10l-20 -17l-35 -38l-14 -4l-4 4l20 29l42 42l-38 -22l-9 2l11 13l-4 3l-29 -18l-9 -24l-6 19l19 20l21 12l100 28l7 1q8 2 20 3t23 1h6q30 0 52 -11q22 -12 30 -33q9 -23 9 -79l-1 -63l1 -45v-12q0 -17 4 -22
q4 -6 11 -6q4 0 7 3l11 17l7 3l9 -6q2 -2 4 -6v-2zM322 592l-1 -11l-32 -73l-51 -64v1l-17 -22h-17q-8 0 -12 1q3 11 5.5 18.5t5.5 17.5l22 66l34 49l5 -4l-30 -55l27 34l4 2l-8 -24l6 -4l-5 -13l18 -4l40 82zM259 471l1 3l-1 -2v-1z" />
    <glyph glyph-name="eacute" unicode="&#xe9;" horiz-adv-x="402" 
d="M361 90l-2 -13l-9 -20l-22 -20q-5 -5 -10 -8.5t-11 -8.5q-39 -27 -99 -27q-39 0 -74 16q-38 15 -59 42q-16 18 -26 48q-4 15 -6 27t-2 23q0 26 10 55q11 32 36 59q11 12 24.5 22t30.5 18q13 7 30 13q12 3 22.5 4t23.5 2t21.5 1t19.5 -1q1 0 2 -0.5t3 -0.5q5 -1 9 -2t9 -3
q21 -8 35 -20.5t21 -21.5l4 -6l2 -2q3 -5 5.5 -13t2.5 -17v-1q-5 -10 -10 -18.5t-13 -20.5q-7 -11 -15.5 -22t-16.5 -20l-2 -2h-1q-5 -4 -14 -4.5t-18 0.5l-23 2q-9 0 -16 3q-15 3 -26 7q-6 2 -12 4.5l-11 4.5q-2 1 -15 5t-24 8q-4 1 -9 3t-5 3l-1 1q-1 1 -1.5 1t-1.5 2v-13
q0 -63 34 -100q17 -18 42 -25.5t47 -7.5l23 5l24 8l31 31l11 21l10 -9l12 14l-8 -24l-5 -8l18 2zM244 290q-16 1 -31 0q-32 -8 -48 -20.5t-18 -14.5q-9 -12 -17 -26.5t-11 -31.5q3 -6 15 -12t26.5 -10.5t27 -8t15.5 -3.5q7 -2 13 -2h13q10 1 21 5q6 2 12 5.5t11 7.5
q2 -4 3 -5q-1 1 -3 5q4 3 6.5 6t5.5 7q11 11 17 23t9 26q1 3 -1 9q-6 10 -21.5 24t-44.5 16zM352 611l-1 -11l-32 -73l-51 -64v1l-17 -22h-17q-8 0 -12 1q3 11 5.5 18.5t5.5 17.5l22 66l34 49l5 -4l-30 -55l27 34l4 2l-8 -24l6 -4l-5 -13l18 -4l40 82zM289 490l1 3l-1 -2v-1
z" />
    <glyph glyph-name="iacute" unicode="&#xed;" horiz-adv-x="246" 
d="M203 23q5 -1 9 -2t7 -2l-1 -21h-15h-7t-10 1q-20 1 -45.5 1.5t-57.5 0.5h-19t-17 -1q-9 -1 -15 -1.5t-9 -0.5l-1 24l44 6q9 3 13 8q3 4 3 20l-2 70l-4 138h9l11 -126l3 81q0 11 11 14l9 21l3 26l9 -2l9 8l9 29l14 -2v-256q0 -7 0.5 -13.5t1.5 -12.5q5 -2 14.5 -4t23.5 -4
zM221 611l-1 -11l-32 -73l-51 -64v1l-17 -22h-17q-8 0 -12 1q3 11 5.5 18.5t5.5 17.5l22 66l34 49l5 -4l-30 -55l27 34l4 2l-8 -24l6 -4l-5 -13l18 -4l40 82zM158 490l1 3l-1 -2v-1z" />
    <glyph glyph-name="oacute" unicode="&#xf3;" horiz-adv-x="429" 
d="M410 330q5 1 5 -6q0 -4 -1 -8q0 -1 -4.5 -7t-7.5 -9l-23.5 -25.5t-13.5 -15.5t-2 -2.5t-2 -2.5l5 -9l11 -19l6 -23l3 -29l-1 -29l-4 -26l-9 -19l-6 -9v-5l-9 -20l-34 -30l-19 -11l-17 -10l-21 -7h-9q-21 -6 -44 -6q-33 0 -64 16q-31 14 -51 42q-14 19 -22 48q-7 28 -7 50
q0 25 9 55q9 32 30 59q19 23 45 38l2 2q4 1 7 4l15.5 6t15.5 5q6 2 12 2.5t12 1.5h11q19 1 35 0h3q1 -1 5 -1q4 -1 7.5 -2t7.5 -2l1 -1q22 -8 36 -20.5t21 -21.5l4 -6l2 -2q1 -2 3 -8l7 -11q9 9 18.5 19.5t17 21t11.5 19.5t3 14zM342 233l2 -4l13 -35v12l-9 33
q-2 -2 -2.5 -3t-2.5 -3h-1zM341 238l-1 -1zM321 252l2 -1q0 1 0.5 1.5t0.5 1.5zM168 274q-8 -9 -12 -21q26 -29 64 -41q6 -2 11 -3.5t12 -2.5q8 -2 17.5 -2.5t17.5 1.5q11 1 28 9q6 3 12 6.5t12 7.5l-16 34q0 1 -1 2q-7 11 -22.5 22.5t-42.5 13.5q-16 2 -29 -1
q-17 -5 -29 -10.5t-20 -11.5q0 -1 -2 -3zM336 119l3 7l3 34l-4 36l-6 25l-14 -14q-4 -4 -8 -7t-9 -6h1q-13 -10 -25 -18q-11 -7 -22.5 -12t-19.5 -4q-2 0 -4 1q-15 5 -32.5 12t-33.5 15q-12 6 -21 12v-8q0 -63 30 -100q11 -16 27 -25l18 -7l21 -5h7l22 5l24 8l32 31zM353 94
l-12 -10l-2 -1l-1 -2l1 -1l4 3zM369 216q-2 6 -5 8l5 -19l7 -56l-2 50zM361 107l-7 -9l9 6l7 10l4 34zM362 611l-1 -11l-32 -73l-51 -64v1l-17 -22h-17q-8 0 -12 1q3 11 5.5 18.5t5.5 17.5l22 66l34 49l5 -4l-30 -55l27 34l4 2l-8 -24l6 -4l-5 -13l18 -4l40 82zM299 490l1 3
l-1 -2v-1z" />
    <glyph glyph-name="uacute" unicode="&#xfa;" horiz-adv-x="387" 
d="M356 41l-13 -23l-2 -7l-7 -9l-12 -5h-15l-10 2q-8 1 -13.5 1h-10.5h-12h-15.5t-14.5 -1q-1 8 -0.5 23t1.5 25q-1 0 -1 -1q-5 -17 -20.5 -28t-32.5 -19q-19 -9 -43 -14q-6 4 -14.5 11.5t-17.5 18.5l-18 23t-17 26q-7 10 -11.5 18t-7.5 15q-4 6 -4.5 7l-3.5 7q-3 9 -4 15
t-1 9q1 8 1.5 14.5t3.5 14.5q4 15 9 29l10 28l9 20.5t12 18.5q3 4 6 7.5t7 7.5q5 5 10.5 9.5t10.5 9.5t10 8.5t9 7.5l4 -3q-13 -9 -26 -27q-1 -2 -1.5 -2.5t-1.5 -2.5q-10 -14 -12.5 -23.5l-4.5 -17.5q-5 -18 -8.5 -40t-5.5 -41v-1q-1 -13 1.5 -23t4.5 -14h1q7 -15 15 -26
q20 -27 41.5 -33t40.5 -1v1q10 3 20 9q8 5 16.5 15t13.5 26v9v87l-2 46l8 44l10 -2l8 -13l14 2l4 -12l10 -73l3 71l-13 65l4 6l15 -13l3 -25l3 -90l-1 -15h1l-1 -124q0 -11 1 -20t3 -14l14 -11h11l20 13zM303 611l-1 -11l-32 -73l-51 -64v1l-17 -22h-17q-8 0 -12 1
q3 11 5.5 18.5t5.5 17.5l22 66l34 49l5 -4l-30 -55l27 34l4 2l-8 -24l6 -4l-5 -13l18 -4l40 82zM240 490l1 3l-1 -2v-1z" />
    <glyph glyph-name="quotedblright" unicode="&#x201d;" horiz-adv-x="449" 
d="M175 803l1 -160l-35 -138h-20l-37 138l-3 107h10l12 -127h1l2 79q0 12 12 15l10 22l3 29l10 -2l9 8l10 31zM363 643l-35 -138h-20l-37 138l-3 107h10l11 -127h2l2 79q0 12 12 15l10 22l3 29l10 -2l9 8l10 31l15 -2z" />
    <glyph glyph-name="perthousand" unicode="&#x2030;" horiz-adv-x="833" 
d="M232 267q-11 -7 -24.5 -8.5t-27.5 -1.5q-21 0 -42 13q-20 13 -34 36q-10 18 -14 41q-2 12 -3.5 22.5t-1.5 19.5q0 20 6 47q6 26 20 49q15 25 36 37q18 12 38 13h13h11q14 0 25 -5.5t19 -12t12.5 -13.5l6.5 -10l1 -1v-1l4 -7l9 -19l7 -16l5 -20l3 -24l-1 -25l-2 -21
l-5 -17l-4 -8v-3l-6 -18l-21 -25l-12 -10l-11 -9zM281 338l-8 -8l-1 -2l-1 -1v-1l3 2zM293 384l-8 -34l-4 -9l6 6l4 8zM288 442q0 4 -3 6l4 -16l5 -47l-2 42zM267 474q0 1 -1 1l-2 -4l2 -5l6 -14l9 -30v11l-7 28zM126 422q-1 -28 1 -55.5t11 -43.5q10 -16 19 -27.5t21 -11.5
l7 -1l28 -2l14 4l11 9l11 18l9 14l11 33v1l2 5l1 28l-3 31l-6 26l-11 29q-5 9 -16 22t-31 15q-17 2 -28 -4t-19 -14q-2 -2 -4 -5l-4 -6q-2 -2 -2.5 -4.5t-2.5 -4.5l-1 -1q-6 -11 -11.5 -24t-6.5 -31zM712 158v-24l-2 -22l-5 -16l-4 -8l-1 -4l-5 -17l-21 -26l-12 -10l-12 -8
l-7 -3q-11 -7 -24.5 -9t-27.5 -2q-20 0 -42 14t-33 35q-10 18 -14 41q-5 28 -5 42q0 21 6 47q6 28 20 50q13 22 35 36q16 11 38 13h13h11q14 0 25 -5t19 -12t13 -14l7 -10l1 -1v-1l4 -7l8 -19l8 -15l5 -20zM692 91l-8 -9l-1 -1l-1 -2l1 -1l3 3zM679 227l-2 1l-2 -5l3 -5
l6 -14l9 -29l-1 10l-6 29zM538 174q-2 -27 0 -55t12 -44q10 -15 18.5 -26.5t20.5 -11.5l7 -1l28 -2l15 4l11 8l11 18l9 15l10 32v1h1l1 5l2 29l-3 31l-6 25l-11 29q-5 10 -16.5 23t-30.5 14q-17 2 -28.5 -3.5t-18.5 -13.5q-2 -3 -4 -5.5t-4 -5.5q-2 -2 -3 -5t-3 -5v-1v1
q-7 -11 -12 -24.5t-6 -31.5zM705 136l-8 -34l-4 -9l5 6l5 9zM706 138l-2 42l-4 14q-1 3 -3 7l3 -16zM580 508l-329 -511l-22 -3l-17 -28l-4 -3l-1 3l27 46l-10 -4l-7 -9l-2 1l-7 -9v2l6 18l-12 -24l-3 1l10 26l326 502l5 8l15 8l14 27l4 2v-2l-23 -44l10 5l5 8l3 -1l5 8
l1 -1l-5 -17l10 22l3 -4z" />
    <glyph glyph-name="slash" unicode="/" horiz-adv-x="521" 
d="M171 0l-65 -149l-29 -10l-17 -41l-5 -5l-1 4l26 68l-13 -8l-6 -14l-4 1l-7 -12l-1 2l4 25l-11 -34l-4 1l8 36l51 115l225 524l97 224l5 12l18 16l14 39l4 5l2 -3l-22 -66l12 8l6 14l3 -1l6 12l1 -2l-2 -24l9 33l4 -5l4 -38l-52 -119z" />
    <glyph glyph-name="backslash" unicode="\" horiz-adv-x="502" 
d="M469 -177l-11 34l3 -25v-2l-7 13l-4 -1l-7 13l-13 9l26 -68l-1 -4l-4 5l-17 41l-30 9l-64 150l-261 607l-51 119l4 39l4 4l9 -32l-3 23l1 3l6 -13l4 1l6 -13l12 -9l-22 66l1 4l4 -5l15 -40l18 -15l5 -12l97 -225l225 -524l51 -115l7 -36z" />
    <glyph glyph-name="ampersand" unicode="&#x26;" horiz-adv-x="705" 
d="M677 109l-7 -24l-14 -34q-6 -7 -10 -11q-4 -5 -7.5 -8t-5.5 -5q-7 -5 -17 -10t-20 -8q-11 -4 -23 -7q-6 -1 -12 -1.5t-14 -0.5q-31 0 -62 13q-38 17 -83 57q-88 -71 -191 -71q-1 0 -1.5 0.5t-2.5 0.5l-62 3l-29 14l-49 30l-36 42l-9 27l2 11l24 -43l19 -21l20 -18l53 -26
l33 -6l-44 25l-29 13l-22 15l-17 22l-13 26l-4 32l6 30l10 27l24 45l18 21q5 1 15.5 4.5l23 8l26 9t23.5 6.5q12 3 15 3l-33 37t-22 26q-8 11 -15 31q-6 19 -6 38q0 40 26 72q27 33 77 46q4 1 21.5 4t34.5 2q20 -1 43.5 -7.5t41.5 -21.5t26 -40.5t-3 -64.5
q-8 -20 -19.5 -34.5t-23 -24t-20.5 -15.5l-12 -8l50 -58l44 -49.5t40 -42.5q27 26 42 55q14 22 13 33v13l-10 19l-12 5l-29 -5l-11 1l26 19l5 6l12 6l17 2q14 2 35 2.5t40 1.5l46 2q4 0 28 3q0 -3 -0.5 -6t-0.5 -7t-0.5 -7t-0.5 -6l-2 -8q-33 -16 -45 -25q-8 -5 -20 -16.5
t-30 -30.5q-22 -22 -76 -91q2 -7 11 -14l11 -13q11 -13 22 -22.5t21 -16.5q9 -6 18 -9l13 -4l27 1l20 24l14 37l15 14l2 -14l-4 -23l15 17l10 -8v-16zM102 89l-19 30l-7 18l2 16l7 -16l9 -7l-9 23l7 35l-13 -10l-12 -18l1 -16l15 -33l9 -14zM98 123q0 -7 4 -11zM240 502
q-9 -5 -12.5 -15.5t-3.5 -21.5q0 -17 12 -36q4 -6 14.5 -17.5l21.5 -23.5q13 -14 29 -29l16 -14q3 1 8.5 5t11 8.5t10.5 9.5t7 9q4 5 5 10.5t3 10.5q1 3 2 15.5t-1.5 28t-10 31.5t-23.5 27q-13 7 -27 11q-12 3 -28.5 2t-33.5 -11zM227 49q26 0 65 10.5t78 45.5q-3 7 -9 13
q-4 4 -10 12l-51 62l-44.5 51l-44.5 50q-3 -1 -6 -3t-7 -4q-10 -8 -25.5 -23.5t-29.5 -38.5q-5 -6 -9 -14t-7 -16q-4 -9 -6 -17l-6 -30l28 -46l16 -22l29 -16q0 -2 4 -4t12 -4.5t23 -5.5zM579 31q13 1 23 7zM640 78q-9 -6 -17 -16l-12 -19l16 12z" />
    <glyph glyph-name="equal" unicode="=" horiz-adv-x="585" 
d="M537 322l-8 -3l-62 2l-8 -6q-78 -1 -140 -2q-27 0 -53 -0.5t-47 -1t-35 -0.5h-17q1 -2 2 -2.5t2 -2.5q2 -2 2 -6h-4q-1 0 -2 0.5t-3 0.5q-4 2 -4 3q-13 10 -26 11l-14 2l-14 2q-7 2 -13 3.5t-12 3.5q-12 3 -20 18q20 10 33 14q16 7 33 10q10 2 23 2.5t30 1.5h63l213 1
l50 -11l-1 -5l-50 5l34 -9l3 -2l-20 -2l-1 -5l-21 -1l-18 -12l101 -6zM536 131l-8 -3l-62 2l-8 -6l-222 -2q-21 0 -39 -0.5t-31 -1.5q3 -3 4 -5q2 -2 2 -5h-4q-2 0 -5 1q-4 0 -4 2q-13 10 -26 11q-7 2 -14 2.5t-14 2.5q-13 1 -25 6q-13 5 -20 19l17 7.5t16 6.5q7 3 15.5 5.5
t17.5 4.5q10 2 23 2t30 1h12.5h18.5t18.5 0.5t13.5 0.5h213l50 -11l-1 -5l-50 6l34 -10l3 -2l-20 -2l-1 -5l-21 -1l-18 -12l101 -5z" />
    <glyph glyph-name="plus" unicode="+" horiz-adv-x="574" 
d="M449 261q14 -1 23.5 -2t18 -1.5t16 -1t18.5 -0.5l-1 -13q-15 2 -28 2t-26.5 -1.5t-30 -4.5t-40.5 -7q-12 -2 -24 -5.5l-23 -6.5q-1 0 -5 -2t-9 -4l-10 -4t-7 -3v-2q-1 -30 -2 -57l-2 -47t-2 -38t-2 -23.5t-1.5 -18l-1 -16.5t-0.5 -18l-13 2q2 15 2 27.5t-1.5 26t-5 30.5
t-7.5 40q-5 25 -12 47q0 1 -1.5 8t-3.5 15.5t-4 16t-3 9.5h-2l-144 6l-9 6l-61 -2l-9 3l5 4l100 6l-17 11l-21 1l-1 5l-20 2l2 2l34 10l-50 -6v5l50 11h138h4v39l9 97l6 8l-2 62l3 8l4 -4l5 -101l12 18l1 21l5 1l2 20l2 -3l9 -33l-5 49l5 1l11 -50l-1 -135l4 -1l35 -2
t34.5 -2.5t29.5 -2.5t20 -2z" />
    <glyph glyph-name="minus" unicode="&#x2212;" horiz-adv-x="359" 
d="M316 94q8 -3 15.5 -6.5t16.5 -8.5q-9 -15 -19 -18q-6 -2 -12.5 -3.5t-13.5 -3.5l-13.5 -2t-14.5 -2q-12 -1 -25 -11q-2 -2 -5 -3q-2 0 -3 -0.5t-2 -0.5h-4q0 2 2 6q2 2 2.5 3t2.5 2l-156 4l-8 6l-61 -2l-9 3l4 4l101 5l-18 12l-21 1l-1 5l-20 2l3 2l34 9l-50 -5l-1 5
l50 11h84q9 0 28 -0.5t28 -0.5h13h8q0 -1 -1 -1q20 0 32 -3q10 -2 18 -4.5t16 -4.5z" />
    <glyph glyph-name="endash" unicode="&#x2013;" horiz-adv-x="363" 
d="M316 94q8 -3 15.5 -6.5t16.5 -8.5q-9 -15 -19 -18q-6 -2 -12.5 -3.5t-13.5 -3.5l-13.5 -2t-14.5 -2q-12 -1 -25 -11q-2 -2 -5 -3q-2 0 -3 -0.5t-2 -0.5h-4q0 2 2 6q2 2 2.5 3t2.5 2l-156 4l-8 6l-61 -2l-9 3l4 4l101 5l-18 12l-21 1l-1 5l-20 2l3 2l34 9l-50 -5l-1 5
l50 11h84q9 0 28 -0.5t28 -0.5h13h8q0 -1 -1 -1q20 0 32 -3q10 -2 18 -4.5t16 -4.5z" />
    <glyph glyph-name="emdash" unicode="&#x2014;" horiz-adv-x="356" 
d="M316 94q8 -3 15.5 -6.5t16.5 -8.5q-9 -15 -19 -18q-6 -2 -12.5 -3.5t-13.5 -3.5l-13.5 -2t-14.5 -2q-12 -1 -25 -11q-2 -2 -5 -3q-2 0 -3 -0.5t-2 -0.5h-4q0 2 2 6q2 2 2.5 3t2.5 2l-156 4l-8 6l-61 -2l-9 3l4 4l101 5l-18 12l-21 1l-1 5l-20 2l3 2l34 9l-50 -5l-1 5
l50 11h84q9 0 28 -0.5t28 -0.5h13h8q0 -1 -1 -1q20 0 32 -3q10 -2 18 -4.5t16 -4.5z" />
    </font>
</defs>
</svg>
