<?xml version="1.0" standalone="no"?> <!DOCTYPE svg PUBLIC "-//W3C//DTD SVG 1.0//EN" "http://www.w3.org/TR/2001/REC-SVG-20010904/DTD/svg10.dtd" > <svg xmlns="http://www.w3.org/2000/svg" width="100%" height="100%">
<defs >
<font horiz-adv-x="466" ><font-face
    font-family="Lazy Dog"
    units-per-em="1250"
    panose-1="0 0 4 0 0 0 0 0 0 0"
    ascent="1000"
    descent="-250"
    alphabetic="0" />
<missing-glyph horiz-adv-x="625" d="M78 0V1000H547V0H78ZM156 78H469V922H156V78Z" />
<glyph unicode=" " glyph-name="space" horiz-adv-x="480" />
<glyph unicode="!" glyph-name="exclam" horiz-adv-x="229" d="M174 880Q174 804 164 634Q151 416 135 388Q131 393 110 393Q88 392 78 387Q55 443 55 613Q55 931 106 931Q132 931 153 917T174 880ZM121 103Q61 102 61 156Q61 179 77 197T121 215Q142 215 158
194T174 149Q174 104 121 103Z" />
<glyph unicode="&quot;" glyph-name="quotedbl" horiz-adv-x="316" d="M291 860Q291 833 246 707H217Q189 707 182 785Q178 831 178 844Q178 926 240 926Q291 926 291 860ZM26 879Q23 826 36 773Q52 710 82 710Q95 710 114 714Q134 814 134 862Q134 875 132 883Q122
933 79 933Q28 933 26 879Z" />
<glyph unicode="#" glyph-name="numbersign" horiz-adv-x="790" d="M775 418Q709 407 536 387Q536 331 532 209Q488 186 455 186Q440 186 424 191Q427 308 420 376Q375 380 337 360Q329 301 329 265Q329 250 330 232T332 206Q332 194 330 181Q301 161 270 161Q248
161 222 170Q223 242 225 340Q221 345 211 345Q206 345 160 335T93 325Q51 325 48 366Q45 419 129 442Q184 455 239 468V534Q235 538 225 538Q218 538 146 525T62 511Q41 511 27 535Q14 555 14 576Q14 585 17 589Q39 615 127 628Q185 637 244 646Q244 678 241 724T238
784Q238 822 252 838T305 855Q352 855 352 780Q352 769 349 722Q347 684 349 664Q352 661 431 661Q431 782 434 797Q444 847 496 844Q544 842 544 747Q544 736 544 710Q543 685 543 671Q580 671 724 679L754 597Q676 581 540 567V498Q592 499 666 504Q723 507 753
506Q778 505 778 459Q778 407 775 418ZM431 560L349 549V477L431 484V560Z" />
<glyph unicode="$" glyph-name="dollar" horiz-adv-x="615" d="M597 224Q589 137 388 105Q389 -81 356 -82Q308 -84 291 -64Q277 -47 277 1Q277 15 278 46Q280 84 280 102Q17 173 17 236Q20 267 25 276Q36 300 69 309Q79 311 157 266Q240 218 284 217Q288 230
291 342Q294 460 287 472T228 524Q174 566 148 600Q108 652 108 710Q107 768 169 806Q212 832 273 844Q273 882 273 919Q274 973 295 977Q311 980 324 980Q368 980 375 938Q377 900 378 862Q395 860 439 867T488 874Q530 874 560 859Q597 840 597 804Q597 784 580
770T551 755Q542 755 519 762T488 770H385Q379 765 385 538Q607 338 597 224ZM281 741Q213 723 213 700Q213 685 280 623L281 741ZM489 253Q486 283 450 328Q417 369 396 376Q396 352 393 294T389 211Q389 212 453 220Q492 225 489 253Z" />
<glyph unicode="%" glyph-name="percent" horiz-adv-x="752" d="M731 304Q731 205 575 205Q521 205 488 234T454 315Q454 367 503 421T604 476Q664 476 702 407Q731 353 731 304ZM118 619Q21 619 21 726Q21 766 54 819Q95 885 154 885Q204 885 246 844T289 749Q289
695 229 655Q175 619 118 619ZM660 859Q494 596 158 109Q82 143 82 170Q111 237 315 554Q540 902 591 920Q603 924 632 901T661 863Q661 861 660 859ZM634 329Q634 377 605 377Q584 377 564 355T545 307Q563 285 591 285Q634 285 634 329ZM201 748Q202 770 189
784T156 798Q110 798 110 736Q110 728 111 719Q123 712 136 712Q165 712 201 748Z" />
<glyph unicode="&amp;" glyph-name="ampersand" horiz-adv-x="644" d="M631 173Q631 149 610 134T565 121Q549 122 500 156T437 191Q435 191 406 170Q372 144 331 130Q270 108 190 108Q14 108 13 278Q13 358 43 408Q67 449 123 487Q106 501 75 574Q36 666 36 737Q36
896 229 897Q306 898 357 799Q401 715 396 646Q393 598 368 549Q337 490 285 455Q305 424 353 388Q392 359 431 330Q464 363 504 423Q543 418 558 409Q578 398 590 366Q570 345 514 276Q559 237 609 215Q631 206 631 173ZM224 783Q206 795 189 795Q144 795 144
724Q144 639 217 541Q238 549 264 584Q298 628 298 671Q298 735 224 783ZM349 258Q257 322 199 394Q154 358 143 344Q120 318 118 283Q112 205 204 205Q238 205 281 220T349 258Z" />
<glyph unicode="&apos;" glyph-name="quotesingle" horiz-adv-x="161" d="M29 859Q26 779 44 731Q59 691 78 691Q97 691 113 731Q132 779 132 857Q132 916 81 916Q31 916 29 859Z" />
<glyph unicode="(" glyph-name="parenleft" horiz-adv-x="273" d="M15 512Q15 653 61 776Q117 927 222 976Q235 983 246 962T258 912Q258 866 228 839Q183 800 148 684Q117 580 117 509Q117 414 147 313Q180 202 235 141Q245 129 245 107Q245 81 232 57T203 32Q199
32 196 33Q102 74 52 245Q15 374 15 512Z" />
<glyph unicode=")" glyph-name="parenright" horiz-adv-x="273" d="M246 512Q246 653 201 776Q144 927 40 976Q26 983 15 962T3 912Q3 866 33 839Q78 800 113 684Q144 580 144 509Q144 414 115 313Q82 202 26 141Q16 129 16 107Q16 81 29 57T59 32Q62 32 65 33Q160
74 209 245Q246 374 246 512Z" />
<glyph unicode="*" glyph-name="asterisk" horiz-adv-x="800" d="M784 613Q784 594 752 568Q731 551 536 429L628 240Q614 196 597 196Q588 196 512 256Q403 343 387 355L103 221Q92 228 79 246T65 275Q65 297 206 515L116 592L50 590Q16 618 16 633Q16 661 68
668L295 667Q331 737 405 871Q442 871 463 838Q462 800 476 662L722 655Q735 655 759 641T784 613ZM597 576L487 584L504 521L597 576ZM416 667L402 725L377 667H416ZM459 481L429 588L343 595L303 524L387 444L459 481ZM503 346L482 406L447 383L503 346ZM259
596L216 601L245 572L259 596ZM324 416L268 463L216 362L324 416Z" />
<glyph unicode="+" glyph-name="plus" horiz-adv-x="575" d="M54 358Q106 360 227 351L234 149Q262 119 292 119Q317 119 342 138L346 354H515Q528 387 528 408Q528 428 519 455L346 466L342 689Q315 679 290 679Q264 679 227 693Q230 636 234 470L47 462Q59 405
59 377Q59 360 54 358Z" />
<glyph unicode="," glyph-name="comma" horiz-adv-x="161" d="M28 175Q52 125 52 87Q52 70 47 53T42 35Q42 23 62 23Q88 23 113 63T138 154Q138 178 132 199Q117 248 78 248Q56 248 39 233T22 197Q22 186 28 175Z" />
<glyph unicode="-" glyph-name="hyphen" horiz-adv-x="676" d="M116 308Q323 302 552 290Q572 316 572 342Q572 364 556 398Q517 393 112 406Q103 387 103 363Q103 334 116 308Z" />
<glyph unicode="." glyph-name="period" horiz-adv-x="204" d="M106 103Q48 107 48 160Q48 182 63 198T106 215Q127 214 141 194T156 150Q156 99 106 103Z" />
<glyph unicode="/" glyph-name="slash" horiz-adv-x="460" d="M437 869Q436 829 281 467Q124 102 95 80Q93 87 64 107T23 127Q110 359 183 540Q327 899 358 916Q363 919 370 919Q391 919 414 904T437 869Z" />
<glyph unicode="0" glyph-name="zero" horiz-adv-x="628" d="M608 579Q610 557 610 534Q610 372 526 246Q435 109 297 109Q174 109 92 220Q18 321 18 449Q18 606 112 748Q213 902 350 902Q454 902 533 783Q598 684 608 579ZM488 604Q480 682 450 732Q412 797 345
797Q243 797 186 642Q142 526 142 401Q142 386 143 375Q159 215 295 215Q388 215 444 346Q489 453 489 572Q489 590 488 604Z" />
<glyph unicode="1" glyph-name="one" horiz-adv-x="255" d="M193 758L172 325L167 116Q145 122 74 111Q61 139 61 255Q61 332 69 522T77 783Q77 789 75 808T73 840Q73 898 118 897Q174 895 189 828Q193 811 193 758Z" />
<glyph unicode="2" glyph-name="two" horiz-adv-x="601" d="M594 105Q581 102 558 102Q521 102 457 109T394 117H79Q27 117 19 212Q32 230 44 245Q74 280 94 292Q171 336 255 479T340 713Q340 784 279 784Q230 785 179 739T107 693Q82 693 67 710T51 753Q51 819
155 867Q236 904 286 904Q366 904 414 829Q453 769 454 700Q457 572 362 426Q295 337 229 248Q268 233 348 233Q355 233 369 233T389 233Q477 233 518 214Q578 186 594 105Z" />
<glyph unicode="3" glyph-name="three" horiz-adv-x="522" d="M509 281Q509 180 400 132Q322 98 239 103Q158 107 134 113Q70 127 13 174Q18 193 59 261Q180 207 268 207Q377 207 390 298Q405 402 154 450L153 507Q237 534 293 590Q353 652 355 728Q357 793 273
793Q231 793 167 777T104 760Q83 760 67 790Q55 812 55 823Q55 863 134 887Q191 905 251 907Q339 909 401 847Q460 787 460 711Q460 648 422 571T358 490Q393 482 447 419Q509 346 509 281Z" />
<glyph unicode="4" glyph-name="four" horiz-adv-x="674" d="M666 402Q609 381 534 381Q493 381 432 388Q403 203 409 122Q381 106 354 106Q293 106 293 222Q293 250 296 295T300 353Q300 362 299 367Q280 370 243 370Q219 370 184 368T146 366Q81 366 53 379Q14
398 14 453Q14 470 60 668Q66 731 72 795Q87 886 135 886Q166 886 186 843Q201 810 201 785Q201 776 177 654T153 523V482Q167 476 320 488Q352 652 392 652Q448 652 448 569Q448 548 444 520Q442 506 440 492Q467 484 548 486Q650 489 664 488L666 402Z" />
<glyph unicode="5" glyph-name="five" horiz-adv-x="646" d="M640 828Q632 810 490 792Q301 769 202 741Q195 708 194 584Q285 601 294 601Q408 600 490 538Q586 464 587 334Q589 198 506 146Q445 107 318 107Q254 107 160 134Q24 173 24 239Q24 260 50 277Q83
298 90 312Q226 201 335 201Q388 201 427 234Q474 275 474 350Q474 421 419 459Q373 492 302 492Q295 492 253 478T202 464Q177 457 142 457Q92 457 72 476Q71 480 71 489Q71 512 85 600T99 714Q99 723 98 728Q95 739 86 757Q80 769 80 777Q80 791 94 814T307 861Q473
880 546 880Q580 880 587 878Q612 869 640 828Z" />
<glyph unicode="6" glyph-name="six" horiz-adv-x="590" d="M578 282Q578 192 499 144Q435 105 345 105Q203 105 108 189Q8 276 8 418Q8 537 123 702Q247 881 380 901Q399 904 412 883T426 836Q426 807 407 803Q329 788 236 686T137 503Q218 527 299 527Q420 527
492 474Q578 410 578 282ZM480 313Q480 369 419 399Q365 426 286 426Q162 426 130 377Q132 307 206 258Q274 214 354 214Q410 214 443 237Q480 264 480 313Z" />
<glyph unicode="7" glyph-name="seven" horiz-adv-x="687" d="M677 511Q677 470 590 444Q532 431 475 418Q458 240 468 127Q453 111 417 109Q356 106 356 281Q356 309 358 357Q360 394 359 400Q325 393 291 387Q235 376 201 376Q134 376 133 413Q130 479 374 513Q381
571 389 618Q407 729 424 761Q427 766 427 771Q427 790 395 790Q386 790 257 783T119 776Q7 776 7 829Q7 843 24 864T52 886Q138 885 306 890Q481 895 468 895Q520 895 539 865Q552 844 552 794Q552 791 526 695Q499 593 493 534Q498 534 540 539T609 545Q677 545
677 511Z" />
<glyph unicode="8" glyph-name="eight" horiz-adv-x="453" d="M440 275Q440 181 340 131Q268 95 186 95Q18 95 18 228Q18 379 155 536Q11 659 11 765Q11 831 86 871Q149 905 222 905Q286 905 310 886Q328 872 360 811Q384 804 412 777T440 725Q440 697 300 552Q440
404 440 275ZM324 753V801Q312 795 277 798Q225 802 229 802Q208 802 171 785Q125 763 125 736Q125 716 163 675T226 633Q243 633 324 753ZM340 309Q340 362 245 456H220Q133 294 133 214Q159 206 193 206Q251 206 292 230Q340 258 340 309Z" />
<glyph unicode="9" glyph-name="nine" horiz-adv-x="505" d="M474 180Q474 169 455 108Q417 108 388 132T359 195L361 498Q345 501 332 501Q313 501 287 494T238 487Q157 487 89 533Q11 586 11 669Q11 752 117 834Q214 909 283 909Q323 909 346 895Q359 887 375
866Q388 849 399 845Q437 838 442 836Q471 826 475 805L457 272Q474 204 474 180ZM374 745Q374 801 321 801Q262 801 186 747T109 650Q109 625 136 611T203 596Q269 596 317 631Q374 672 374 745Z" />
<glyph unicode=":" glyph-name="colon" horiz-adv-x="220" d="M113 179Q55 183 55 236Q55 258 70 274T113 291Q135 290 149 270T164 226Q164 175 113 179ZM114 502Q56 506 56 559Q56 581 71 597T114 614Q136 613 150 593T165 549Q165 498 114 502Z" />
<glyph unicode=";" glyph-name="semicolon" horiz-adv-x="220" d="M110 184Q55 184 55 236Q55 258 70 274T113 291Q163 290 163 217Q163 181 151 149T122 112Q126 114 123 149Q120 184 110 184ZM114 502Q56 506 56 559Q56 581 71 597T114 614Q136 613 150 593T165
549Q165 498 114 502Z" />
<glyph unicode="&lt;" glyph-name="less" horiz-adv-x="554" d="M434 634Q483 658 483 695Q483 700 482 709Q482 719 482 724Q482 755 458 755Q447 755 434 748Q264 674 70 532Q60 502 60 483Q60 463 70 443Q325 261 434 227Q445 220 454 220Q480 220 480 259Q480
265 481 274T482 286Q482 308 434 338L195 488L434 634Z" />
<glyph unicode="=" glyph-name="equal" horiz-adv-x="676" d="M119 264Q320 261 561 256Q569 282 569 300Q569 323 553 357Q336 372 115 362Q106 343 106 319Q106 290 119 264ZM121 549Q334 552 560 559Q570 524 570 507Q570 488 556 459Q259 448 117 451Q108
470 108 494Q108 523 121 549Z" />
<glyph unicode="&gt;" glyph-name="greater" horiz-adv-x="554" d="M126 634Q93 651 83 677Q79 690 79 724Q79 755 103 755Q111 755 126 748Q365 627 490 531Q508 518 508 495Q508 471 490 443Q329 331 126 226Q114 220 106 220Q80 220 80 259Q80 294 81 296Q87
313 126 338L365 488L126 634Z" />
<glyph unicode="?" glyph-name="question" horiz-adv-x="473" d="M457 738Q457 655 410 591Q366 543 322 496Q275 441 275 379Q275 346 286 308Q267 300 201 291Q193 305 188 320Q175 356 173 392Q169 456 220 517Q267 566 315 615Q367 674 367 731Q367 787 321
816Q287 838 241 839Q203 840 166 825Q140 815 72 778Q55 794 39 810T22 845Q22 884 135 912Q219 932 259 932Q347 932 400 884Q457 832 457 738ZM310 120Q275 100 247 100Q203 100 202 156Q201 175 220 192T262 210Q314 210 310 120Z" />
<glyph unicode="@" glyph-name="at" horiz-adv-x="750" d="M731 458Q731 417 710 369Q680 303 628 303Q619 303 559 317T490 331Q485 331 434 315T373 299Q312 299 271 324Q221 355 221 413Q221 482 289 541Q352 597 412 595Q475 593 500 545Q503 540 526 457Q540
411 574 411Q618 411 618 472Q618 546 559 615Q490 696 390 696Q257 696 186 584Q130 496 130 386Q130 297 220 251Q287 216 372 216Q409 216 439 223T481 230Q509 230 563 213L558 170Q523 151 467 132Q403 110 369 110Q268 110 159 174Q22 254 19 379Q15 532
100 652Q204 798 395 798Q551 798 649 674Q731 571 731 458ZM430 472Q424 488 402 488Q376 488 348 468T319 427Q319 391 363 391Q389 391 411 409T433 453Q433 462 430 472Z" />
<glyph unicode="A" glyph-name="A" horiz-adv-x="700" d="M657 417Q657 391 621 380Q562 362 559 360Q615 173 615 145Q615 113 603 108Q587 107 570 107Q547 106 512 144Q506 177 485 242T457 345Q403 346 348 336T239 316Q220 269 193 182Q164 89 145 40L80
25Q69 29 51 51T35 85Q111 345 177 530Q215 658 253 786Q297 911 370 911Q379 911 389 909Q418 917 470 732Q517 567 530 461Q572 461 657 454Q657 452 657 440T657 417ZM428 448Q403 624 363 759Q330 652 281 436Q323 439 367 445Q404 450 413 450Q421 450 428
448Z" />
<glyph unicode="B" glyph-name="B" horiz-adv-x="570" d="M517 239Q517 158 370 115Q255 82 195 90Q177 92 115 96Q82 98 50 110L70 553L91 818Q93 845 160 895Q201 925 268 925Q349 925 410 888Q448 865 474 799Q496 742 496 699Q496 609 355 475Q411 456 467
394Q486 373 503 311Q517 260 517 239ZM398 731Q398 798 294 818Q282 821 272 821Q181 821 181 638Q181 623 181 599Q182 573 182 566V494Q253 505 325 586T398 731ZM405 277Q405 327 312 364Q235 395 175 395Q175 369 169 311T163 226Q163 208 165 195Q240 195
307 210Q405 232 405 277Z" />
<glyph unicode="C" glyph-name="C" horiz-adv-x="825" d="M798 253Q788 240 765 206Q773 205 791 193Q784 187 760 166Q647 126 594 115Q522 100 405 100Q275 100 154 208Q28 320 28 451Q28 581 180 733Q328 882 441 882Q543 882 583 787Q558 764 545 764Q537
764 509 774T472 785Q377 785 255 653Q136 525 139 437Q143 325 281 253Q386 198 469 198Q487 198 600 220Q724 243 770 260L798 253Z" />
<glyph unicode="D" glyph-name="D" horiz-adv-x="690" d="M649 487Q649 343 492 203Q342 69 202 64Q178 63 148 75Q109 91 109 117Q109 125 113 134Q245 171 374 256Q552 373 552 497Q552 581 459 684Q363 792 255 815Q232 774 229 658Q230 727 230 494Q272 307
272 299V233Q269 233 260 229T241 225Q123 225 123 655Q123 781 130 825Q94 832 57 840Q25 848 21 885Q16 932 97 932Q107 932 123 931T143 930Q315 930 473 809Q649 675 649 487Z" />
<glyph unicode="E" glyph-name="E" horiz-adv-x="736" d="M733 838Q692 805 587 782Q407 743 393 738Q277 705 208 646Q206 590 192 546Q200 538 231 538Q273 538 385 556T520 575Q529 575 543 554T558 511Q558 502 555 495Q544 463 370 444Q192 424 176 394Q168
379 159 343T150 294Q150 240 208 226Q229 220 298 220Q305 220 360 223T425 227Q485 227 476 228Q507 226 545 210L533 123Q367 101 207 101Q28 101 28 294Q28 324 46 465Q67 635 89 705Q108 765 270 826Q419 883 516 883Q581 883 718 868Q718 844 733 838Z" />
<glyph unicode="F" glyph-name="F" horiz-adv-x="675" d="M632 476Q619 465 617 451Q617 445 617 438Q462 404 261 384Q232 384 170 370Q158 285 160 100Q142 104 125 103Q98 100 100 100Q47 100 47 222Q47 249 50 294T53 351Q53 366 50 370Q42 384 33 397Q21
416 21 427Q21 455 42 474T67 504Q84 574 84 704Q71 715 58 726Q42 740 42 750Q42 830 261 878Q410 910 504 910Q560 910 584 898Q618 882 618 833Q618 778 583 778Q575 778 539 785T493 792Q406 792 301 758Q218 732 187 710V519Q230 519 311 520T427 521Q502
521 531 516Q581 507 632 476Z" />
<glyph unicode="G" glyph-name="G" horiz-adv-x="665" d="M623 792Q588 795 547 802Q516 807 490 807Q400 807 279 709Q153 605 153 512Q153 466 214 439Q260 418 302 418Q311 418 394 442T486 467Q519 467 532 440Q539 423 542 380Q545 309 545 255Q545 188 540
144T534 101Q525 91 508 91Q498 91 480 94T455 99Q429 116 428 223Q427 321 392 321Q385 321 352 318T309 314Q222 314 141 358Q35 415 35 515Q35 666 190 793Q335 911 476 911Q510 911 561 895Q632 874 632 839Q632 808 623 792Z" />
<glyph unicode="H" glyph-name="H" horiz-adv-x="685" d="M639 885Q639 838 589 505Q583 470 576 315Q569 170 569 125Q564 118 547 107Q525 92 508 92Q483 92 474 125T464 212Q464 253 471 332T479 440Q210 452 184 425Q168 410 166 381Q165 357 163 333Q153
258 149 110Q136 97 118 97Q111 97 97 99T74 102Q66 102 59 100Q46 131 46 210Q46 315 72 569T99 880Q99 892 119 904T161 916Q221 916 214 830L187 537Q200 523 300 523Q457 523 479 545Q494 561 507 734Q519 897 559 905Q576 909 604 905Q639 900 639 885Z" />
<glyph unicode="I" glyph-name="I" horiz-adv-x="352" d="M273 829Q273 832 249 705Q228 603 206 501Q180 367 184 292Q186 248 204 202T223 142Q223 124 208 108L139 99Q110 139 100 186T79 281Q70 319 113 600Q159 899 203 901Q229 903 250 877T273 829Z" />
<glyph unicode="J" glyph-name="J" horiz-adv-x="709" d="M694 821Q680 803 618 784Q591 785 563 789Q539 792 522 792Q490 792 422 784Q431 655 473 516Q512 386 512 376Q512 232 449 172T242 112Q171 112 145 116Q101 123 68 146Q30 174 30 214Q30 262 48 289Q60
288 79 281Q92 296 93 296T120 297Q123 231 177 212Q200 204 262 204Q331 204 372 242Q409 277 409 333Q409 347 406 362Q323 682 330 756Q316 775 278 775Q260 775 214 769T143 762Q127 762 114 764T101 805Q101 841 119 852T287 879Q430 892 515 892Q520 892
540 893T575 894Q695 894 695 833Q695 827 694 821Z" />
<glyph unicode="K" glyph-name="K" horiz-adv-x="664" d="M584 814Q468 703 443 678Q362 593 300 502Q348 447 501 310Q603 218 624 154Q628 141 606 124T564 106Q557 106 552 110Q413 215 220 430Q180 402 152 354Q138 329 136 256Q135 161 131 141Q122 86 88
86Q55 86 39 125Q26 156 28 193Q29 209 38 621Q44 883 60 905Q84 915 108 915Q161 915 161 884Q161 878 162 791T163 648Q163 569 160 538Q177 544 339 722Q496 894 536 894Q563 894 574 863Q579 839 584 814Z" />
<glyph unicode="L" glyph-name="L" horiz-adv-x="658" d="M640 156Q630 132 607 115T558 98Q550 98 486 105T413 113Q405 113 282 104T150 95Q67 95 47 135Q35 158 35 257Q35 327 53 438Q70 542 88 602Q99 638 116 761Q115 808 118 893Q120 906 139 915Q155 923
170 923Q207 923 227 894Q243 870 243 837Q243 838 190 548Q139 268 146 213Q165 202 213 202Q248 202 314 208T396 215Q566 215 640 156Z" />
<glyph unicode="M" glyph-name="M" horiz-adv-x="857" d="M802 649Q792 565 782 481Q770 372 770 305Q770 260 775 227Q777 215 777 143Q767 132 743 128T704 126Q667 184 667 337Q667 346 681 469T695 601V730Q680 731 669 715Q664 705 659 696Q632 636 592 537Q576
485 560 433Q533 351 504 305Q463 243 417 243Q364 243 320 401Q298 500 276 599Q241 502 210 348Q183 214 162 170Q127 100 51 83Q37 98 26 129T14 184Q14 200 33 293Q54 396 71 449Q75 461 120 466Q142 499 167 590Q186 669 206 747T246 878Q276 889 304 883Q350
838 369 745Q375 716 391 570Q403 460 427 403Q461 461 524 609T619 811Q670 903 712 903Q760 903 787 792Q808 704 802 649Z" />
<glyph unicode="N" glyph-name="N" horiz-adv-x="834" d="M792 884Q765 706 754 494Q753 476 754 427Q756 363 756 335Q756 103 684 104Q457 182 230 645Q183 440 176 409Q146 261 146 173Q137 157 101 144Q78 137 54 129Q24 173 24 209Q24 227 59 437Q99 672
127 788Q138 834 184 832Q241 830 348 652Q404 551 459 450Q502 382 525 352Q582 276 641 240L689 897Q709 897 716 890Q735 901 767 926Q794 901 792 884Z" />
<glyph unicode="O" glyph-name="O" horiz-adv-x="777" d="M744 566Q744 359 652 242Q545 106 322 106Q198 106 111 199Q25 289 25 413Q25 516 164 686Q307 863 412 863Q421 863 449 849T485 835Q494 835 496 842T506 849Q628 849 692 757Q744 681 744 566ZM632
563Q632 641 600 694Q557 765 465 765Q362 765 250 623Q144 489 144 389Q144 314 208 266Q265 225 336 225Q491 225 568 329Q632 417 632 563Z" />
<glyph unicode="P" glyph-name="P" horiz-adv-x="709" d="M691 621Q691 540 570 485Q485 446 344 421Q281 411 218 402Q212 379 206 355Q198 319 198 267Q198 215 225 120Q199 97 159 97Q151 97 151 94T142 90Q110 90 92 193Q80 266 80 326Q80 404 102 574Q131
798 170 798Q238 798 238 693Q238 653 228 598Q223 572 218 546V498Q223 493 239 493Q312 493 432 535Q579 586 579 649Q579 733 413 791Q290 833 222 833Q157 833 139 816Q133 810 122 772Q112 738 77 715H54Q24 741 24 767Q24 884 119 912Q156 923 305 923Q412
923 545 832Q691 731 691 621Z" />
<glyph unicode="Q" glyph-name="Q" horiz-adv-x="810" d="M723 -36Q699 -36 532 152Q502 134 442 122Q388 111 348 111Q223 111 128 203Q28 298 28 434Q28 551 120 688Q220 835 340 862Q387 872 457 872Q565 872 608 843Q669 834 711 718Q744 623 744 541Q744
403 698 306Q671 260 644 214Q642 207 705 130Q780 38 800 3Q800 -25 776 -33Q764 -36 723 -36ZM639 559Q639 646 599 720Q551 808 472 808Q457 763 431 763Q427 763 416 764T397 766Q307 766 220 631Q140 509 140 419Q140 334 213 277Q280 223 369 223Q377 223
418 232T469 242Q462 252 431 288Q410 312 410 321Q410 352 425 375T470 399Q486 399 524 358Q568 311 573 308Q600 334 622 433Q639 513 639 559Z" />
<glyph unicode="R" glyph-name="R" horiz-adv-x="691" d="M663 623Q663 560 608 507Q566 468 488 430Q433 406 377 381Q443 320 509 258Q635 140 635 131Q635 122 630 112Q622 98 620 92H581Q520 103 435 166Q384 205 296 288Q217 363 193 378Q182 341 172 200Q167
122 119 116Q63 109 48 170Q42 193 42 270Q42 342 86 527Q124 688 133 706H194Q232 667 232 605Q232 574 222 530Q213 496 205 462Q262 462 392 516Q552 582 552 654Q552 734 440 782Q356 818 283 818Q242 818 168 787T91 755Q21 755 21 808Q21 860 127 896Q209
923 265 923Q393 923 511 856Q663 770 663 623Z" />
<glyph unicode="S" glyph-name="S" horiz-adv-x="597" d="M563 755Q563 748 559 728T555 696H511Q504 696 483 719Q457 749 432 764Q390 789 336 793Q279 798 225 780Q151 756 151 699Q151 655 250 585Q398 481 437 442Q538 341 542 224Q543 183 509 144T429 95Q408
90 352 90Q238 90 154 110Q43 136 43 188Q43 227 97 246Q91 244 166 220Q250 194 327 194Q344 194 360 195Q384 197 406 211Q432 228 432 252Q432 306 352 386Q294 443 215 495Q39 613 39 706Q39 814 153 865Q234 902 346 902Q418 902 484 866Q563 822 563 755Z"
/>
<glyph unicode="T" glyph-name="T" horiz-adv-x="843" d="M776 793L496 778Q464 682 464 391L467 124L363 119Q343 259 343 312Q343 570 342 507Q345 648 369 771Q313 774 233 767Q139 760 108 760Q69 760 35 765Q24 766 24 803Q24 846 40 853Q81 871 311 885Q495
897 589 897Q799 897 836 839Q836 810 822 801T776 793Z" />
<glyph unicode="U" glyph-name="U" horiz-adv-x="655" d="M633 736Q633 521 562 340Q467 98 286 98Q142 98 77 297Q36 420 36 552Q36 651 51 729Q75 854 130 854Q155 854 173 820Q187 795 187 779Q187 793 171 695T154 517Q154 421 175 346Q214 209 310 209Q413
209 480 428Q529 590 529 702Q529 766 512 799T494 847Q494 910 543 910Q588 910 613 843Q633 792 633 736Z" />
<glyph unicode="V" glyph-name="V" horiz-adv-x="707" d="M682 804Q646 707 582 528Q550 438 518 348Q478 231 467 151Q439 117 365 114Q309 192 213 343Q193 379 116 566Q30 779 32 815Q34 844 56 861Q74 875 96 873Q97 873 101 874T109 875Q135 875 149 832Q190
703 231 574Q289 410 372 309Q422 411 518 681Q591 888 613 886Q635 884 657 863Q685 838 682 804Z" />
<glyph unicode="W" glyph-name="W" horiz-adv-x="915" d="M889 795Q889 759 789 432Q687 101 675 119Q568 146 517 232Q474 323 431 414Q418 393 393 318Q366 237 348 200Q317 137 280 115Q198 123 152 216Q119 283 98 413Q68 598 67 600Q61 623 48 721T35 833Q35
857 52 878Q71 903 97 903Q149 903 162 773Q165 680 169 587Q179 439 250 271Q266 280 295 369Q334 491 350 526Q385 608 420 608Q451 608 520 473Q604 307 611 299Q644 333 697 502Q729 611 762 720Q771 772 781 824Q794 882 844 882Q889 882 889 795Z" />
<glyph unicode="X" glyph-name="X" horiz-adv-x="705" d="M681 134Q626 102 599 102Q590 102 490 212Q354 363 322 396Q261 340 201 284Q127 209 117 150Q103 125 89 125Q77 125 31 141Q31 147 28 164T24 193Q24 245 79 319Q111 363 181 436Q236 493 236 502Q236
510 194 576Q142 657 117 707Q76 789 79 840Q109 872 130 872Q154 872 239 738Q284 665 329 592Q393 641 502 756Q575 834 613 834Q624 834 635 812T647 773Q647 759 414 494Q414 493 544 353T681 159V134Z" />
<glyph unicode="Y" glyph-name="Y" horiz-adv-x="594" d="M582 821Q582 808 528 700Q472 586 441 543Q443 523 436 481Q399 472 327 337Q263 218 228 115Q226 115 221 118T205 121Q199 121 181 117T155 112Q132 112 132 141Q132 194 193 335Q262 494 266 516Q250
521 137 647Q16 781 16 819Q16 844 30 870Q48 902 78 902Q84 902 188 777Q300 643 332 618Q343 627 420 768Q491 898 516 898Q536 898 559 869T582 821Z" />
<glyph unicode="Z" glyph-name="Z" horiz-adv-x="756" d="M742 161Q731 143 731 136Q707 151 688 151Q682 151 682 148Q682 146 683 143T684 139Q684 136 678 136T653 132T624 128Q550 138 472 138Q407 138 285 128T94 118Q59 118 44 127V199Q44 213 256 441Q478
677 504 743Q517 740 128 761Q112 779 112 795Q112 845 137 864Q159 880 210 880Q229 880 288 876T387 872Q476 872 503 869Q582 859 630 822Q642 812 642 793Q642 716 455 486Q351 366 247 247Q267 247 347 251T480 255Q601 255 682 236Q697 233 720 210Q747 182
742 161Z" />
<glyph unicode="[" glyph-name="bracketleft" horiz-adv-x="367" d="M355 88Q355 57 232 42Q153 33 70 33Q58 68 37 232Q12 417 12 522Q12 558 34 747T64 945Q81 967 114 967Q149 967 234 949Q340 927 340 902V864Q304 850 279 850Q266 850 237 856T180 862Q117
862 117 501Q117 137 170 137Q178 137 228 137Q278 138 285 138Q324 138 336 132Q355 123 355 88Z" />
<glyph unicode="\" glyph-name="backslash" horiz-adv-x="460" d="M23 869Q24 829 179 467Q336 102 365 80Q367 87 396 107T437 127Q350 359 277 540Q133 899 102 916Q97 919 90 919Q69 919 46 904T23 869Z" />
<glyph unicode="]" glyph-name="bracketright" horiz-adv-x="367" d="M12 88Q12 57 135 42Q214 33 297 33Q309 68 330 232Q355 417 355 522Q355 558 333 747T303 945Q286 967 253 967Q218 967 133 949Q27 927 27 902V864Q63 850 88 850Q101 850 130 856T187 862Q250
862 250 501Q250 137 197 137Q189 137 139 137Q89 138 82 138Q43 138 31 132Q12 123 12 88Z" />
<glyph unicode="a" glyph-name="a" horiz-adv-x="522" d="M446 140Q418 147 393 175Q357 214 354 216Q311 178 267 140Q236 118 154 118Q105 118 58 175Q14 229 14 274Q14 334 92 424Q175 518 244 518Q266 518 306 506Q350 493 354 480Q364 435 374 390Q386 334
406 300Q417 282 457 253T514 200Q519 191 519 183Q519 162 489 148Q463 136 446 140ZM264 333Q264 348 248 395Q210 381 167 342Q118 299 118 270Q118 256 133 241T167 225Q205 225 234 258T264 333Z" />
<glyph unicode="b" glyph-name="b" horiz-adv-x="487" d="M458 316Q458 217 383 163Q320 118 233 118Q97 118 52 242Q28 309 28 449V659Q28 665 21 704T14 757Q14 823 66 823Q130 823 130 701Q130 695 127 639Q123 572 137 416Q233 500 326 500Q458 500 458 316ZM354
348Q352 361 349 375Q343 396 319 396Q267 396 217 358T166 276Q166 223 216 223Q258 223 308 262T359 333Q359 341 354 348Z" />
<glyph unicode="c" glyph-name="c" horiz-adv-x="522" d="M516 214Q504 210 488 182Q480 152 480 146Q478 146 466 147T443 148Q439 148 389 134T331 120Q248 120 155 152Q17 199 17 291Q17 369 107 433Q188 490 261 490Q293 490 343 466Q401 437 400 404V344H357Q349
344 329 357T296 371Q269 371 215 344Q157 316 143 291Q152 252 247 235Q304 225 370 225Q377 225 416 228T464 232Q474 232 487 226Q503 217 516 214Z" />
<glyph unicode="d" glyph-name="d" horiz-adv-x="640" d="M664 163Q625 163 617 145Q596 166 569 166Q560 166 554 159T539 151Q532 151 438 224Q355 159 341 151Q287 120 216 120Q140 120 82 154Q7 198 7 281Q7 354 93 427T263 500Q319 500 352 462Q356 486 359
626Q360 694 374 726Q394 770 444 775Q479 746 473 598Q466 420 474 388Q496 301 664 163ZM340 352Q327 386 279 386Q227 386 173 350T119 273Q119 259 126 246Q140 224 180 224Q233 224 288 258T344 333Q344 343 340 352Z" />
<glyph unicode="e" glyph-name="e" horiz-adv-x="462" d="M451 208Q454 202 453 183T454 154L425 160Q409 143 374 127T327 111Q228 111 143 149Q21 204 21 312Q21 395 92 459Q160 521 243 521Q378 521 368 364Q364 301 332 281Q272 260 212 239Q261 215 334 213Q437
210 451 208ZM266 396Q255 400 243 400Q214 400 152 358Q152 347 152 337Q153 325 166 325Q170 325 176 326Q191 325 231 353T266 396Z" />
<glyph unicode="f" glyph-name="f" horiz-adv-x="522" d="M518 250Q448 214 355 197Q246 177 202 160Q204 104 219 5Q237 -107 240 -145Q232 -145 203 -142T164 -139Q124 -139 110 -72Q102 -35 100 55Q99 126 90 130Q67 137 45 144Q14 153 14 185Q14 209 39 223T88
252Q85 268 102 362Q124 481 160 556Q209 660 279 660Q326 660 368 600Q405 549 405 518Q405 485 405 485Q402 464 384 464Q359 464 332 488Q311 507 290 527Q246 498 221 415Q202 348 202 278Q346 294 482 294Q482 287 498 272T518 250Z" />
<glyph unicode="g" glyph-name="g" horiz-adv-x="499" d="M489 102Q488 -41 435 -98T248 -156Q170 -156 108 -120Q38 -80 9 -4Q31 23 74 108Q110 59 145 10Q189 -44 226 -44Q387 -44 387 83Q387 97 385 113Q380 160 378 171Q371 203 349 240Q331 225 312 210Q283
191 239 191Q162 191 102 235Q34 284 34 361Q34 437 98 499T236 562Q306 562 371 460Q421 379 458 255Q490 150 489 102ZM254 436Q225 436 186 401Q144 365 144 332Q144 326 146 321Q179 301 211 301Q241 301 260 318T280 366Q280 399 254 436Z" />
<glyph unicode="h" glyph-name="h" horiz-adv-x="442" d="M430 140Q430 132 426 114T421 89Q377 111 368 111Q366 110 365 109Q341 126 320 227Q297 335 262 372Q212 352 181 268Q158 204 156 139Q148 131 128 130Q40 125 23 452Q16 588 16 694Q16 781 51 781Q104
781 120 722Q127 698 127 639V439L138 427Q197 490 256 490Q340 490 392 337Q430 225 430 140Z" />
<glyph unicode="i" glyph-name="i" horiz-adv-x="235" d="M223 498H186Q165 497 132 534T98 595Q98 616 122 631Q142 644 164 644Q187 644 205 580Q214 539 223 498ZM161 309Q161 225 137 120Q131 126 90 137Q53 146 44 164Q21 329 21 357Q21 388 44 411T98 434Q161
434 161 309Z" />
<glyph unicode="j" glyph-name="j" horiz-adv-x="386" d="M356 682Q329 685 288 705Q231 733 231 768Q231 811 274 811Q303 811 329 790Q356 766 356 734V682ZM207 -163Q148 -163 91 -131Q22 -93 12 -32Q53 -14 53 37Q53 43 51 46Q81 16 111 -14Q145 -44 165 -44Q261
-44 261 111Q261 194 232 331T203 473Q203 544 265 544Q306 544 312 516Q369 282 369 115Q369 -163 207 -163Z" />
<glyph unicode="k" glyph-name="k" horiz-adv-x="430" d="M419 479Q421 430 364 371Q304 308 304 308Q306 304 359 246Q405 196 405 163Q405 145 382 132Q364 121 353 121Q338 121 289 158Q246 190 219 218Q203 198 168 165Q124 123 106 118Q97 116 90 116Q45
116 33 198Q28 228 28 312Q28 337 62 736Q63 758 84 771Q101 782 119 782Q150 782 167 747Q182 719 178 697L148 346Q150 346 238 426Q322 501 343 501Q388 501 419 479Z" />
<glyph unicode="l" glyph-name="l" horiz-adv-x="296" d="M267 186Q291 142 291 136Q291 107 180 112Q68 117 38 207Q24 250 24 392Q24 388 23 426T22 500Q22 785 84 788Q133 790 134 790Q160 787 160 758Q160 761 148 605T136 396Q136 283 161 244Q176 221 215
216T267 186Z" />
<glyph unicode="m" glyph-name="m" horiz-adv-x="630" d="M607 292Q607 265 590 219Q586 227 555 244T519 269Q503 295 493 354Q479 442 477 448Q429 406 410 349Q398 311 392 235Q386 149 376 106Q326 106 306 120Q290 132 283 164Q276 203 270 241Q263 289 257
338Q248 394 226 427Q165 396 131 141Q21 141 21 225Q21 301 83 426Q153 567 223 567Q269 567 290 536Q311 499 332 462Q361 500 391 538Q438 595 468 595Q541 595 580 475Q607 388 607 292Z" />
<glyph unicode="n" glyph-name="n" horiz-adv-x="398" d="M382 246Q382 183 384 199Q382 181 358 120Q324 144 279 144Q280 178 280 201Q280 351 218 445Q185 434 166 375Q154 340 139 249T110 118Q80 118 49 137Q14 159 14 187Q14 272 65 408Q127 576 208 576Q301
576 350 420Q382 319 382 246Z" />
<glyph unicode="o" glyph-name="o" horiz-adv-x="491" d="M480 277Q480 199 380 155Q306 122 232 122Q149 122 88 159Q15 203 15 283Q15 354 84 429T220 505Q226 505 244 501T270 497Q277 497 300 507T331 518Q403 518 448 412Q480 334 480 277ZM364 312Q364 339
349 374T315 414Q312 413 298 400Q286 391 278 391Q271 391 261 397T244 403Q211 403 169 356T126 277Q126 255 170 231Q208 210 224 210Q265 210 311 239Q364 271 364 312Z" />
<glyph unicode="p" glyph-name="p" horiz-adv-x="404" d="M392 367Q392 251 298 150Q297 152 282 160T263 168Q256 168 245 161T225 154Q211 154 180 185Q291 311 291 392Q291 423 274 449T232 475Q206 475 172 449T138 399Q138 304 169 118T200 -166Q146 -166
137 -164Q104 -157 91 -123Q84 -106 52 128T19 399Q19 466 77 526T208 587Q392 587 392 367Z" />
<glyph unicode="q" glyph-name="q" horiz-adv-x="420" d="M394 384L286 -4Q292 -7 304 9T323 26Q323 29 326 29Q337 29 362 0Q390 -32 398 -66Q400 -74 346 -108Q285 -147 270 -169Q211 -169 187 -156Q152 -137 152 -84Q152 -7 184 82Q223 194 225 202Q215 207
195 204Q164 201 162 201Q106 201 53 245Q-3 292 -3 350Q-3 430 58 510Q125 599 210 599Q291 599 349 513Q399 440 394 384ZM230 483Q201 483 160 429T118 348Q118 343 120 340Q133 326 152 326Q188 326 223 363T259 438Q259 453 251 468T230 483Z" />
<glyph unicode="r" glyph-name="r" horiz-adv-x="442" d="M433 522Q426 509 426 494Q427 473 425 463Q144 463 144 229Q144 178 158 116L74 114Q49 135 33 201Q20 254 20 300Q20 384 111 473Q206 566 305 566Q319 566 364 551T433 522Z" />
<glyph unicode="s" glyph-name="s" horiz-adv-x="498" d="M480 156Q480 118 348 118Q293 118 177 143Q22 175 22 219Q39 244 46 250Q60 264 84 264Q115 264 184 246T293 228Q276 252 185 325Q119 377 119 424Q119 485 197 521Q258 548 320 548Q363 548 409 535Q473
516 473 483V430Q372 432 359 431Q304 428 258 405Q297 358 361 315Q430 270 445 253Q480 216 480 156Z" />
<glyph unicode="t" glyph-name="t" horiz-adv-x="494" d="M462 471T394 462Q309 450 266 429Q198 395 198 328Q198 291 221 255Q247 213 284 213Q292 213 313 227T343 241Q378 241 378 137Q356 108 302 108Q184 108 124 184Q70 254 75 373Q74 373 26 401Q7 411
7 434Q7 468 52 484Q105 502 116 523Q130 548 143 599Q162 674 163 677Q190 701 230 701Q237 701 243 699Q279 666 279 609Q279 583 272 551Q295 551 377 555Q430 557 483 553Q488 547 488 539Q488 527 475 505T462 477Z" />
<glyph unicode="u" glyph-name="u" horiz-adv-x="576" d="M578 200Q578 197 571 170T562 134Q556 132 550 132Q542 132 530 140T506 150Q459 182 412 213Q397 226 376 278Q351 159 278 130Q253 120 217 120Q21 120 21 305Q21 352 49 421Q85 510 136 510Q161 510
182 478Q199 452 199 435Q199 426 170 365T140 294Q140 270 156 253T192 236Q238 236 257 299Q271 357 285 416Q307 479 362 480Q392 480 410 444Q421 414 431 385Q458 313 578 200Z" />
<glyph unicode="v" glyph-name="v" horiz-adv-x="480" d="M469 479Q469 476 401 334Q325 177 300 110Q265 110 247 125Q223 145 220 146Q162 165 84 268Q11 362 11 396Q11 462 73 462Q91 462 154 374Q223 279 236 270Q271 321 304 405T351 509Q378 552 421 552Q431
552 441 552T454 552Q469 506 469 479Z" />
<glyph unicode="w" glyph-name="w" horiz-adv-x="574" d="M562 358Q562 153 413 153Q366 153 359 155Q338 162 295 205Q266 173 236 142T184 111Q129 111 78 142Q14 182 14 250Q14 311 54 418Q103 548 160 548Q193 548 213 511Q229 481 229 448Q229 437 182 360Q132
275 132 275Q127 264 127 256Q127 234 160 234Q195 234 239 306T313 378Q318 378 323 377Q347 371 352 325T382 271Q391 268 398 268Q425 268 439 297Q451 321 451 351Q451 359 424 470Q438 484 438 494Q442 494 447 485Q453 472 460 465Q460 467 463 478T466 499Q468
499 473 503T489 507Q522 507 545 443Q562 393 562 358Z" />
<glyph unicode="x" glyph-name="x" horiz-adv-x="447" d="M437 417Q437 380 408 363Q348 328 333 315Q342 297 377 251T424 178L415 118Q407 121 389 133T361 146Q352 146 352 143T344 139Q333 139 295 181Q267 212 239 243Q183 211 157 191Q106 151 95 111Q67
125 41 139T14 180Q14 220 65 271Q102 304 139 337Q132 349 93 399Q62 438 62 448Q62 468 81 491T122 514Q149 514 179 480T240 410Q354 486 378 486Q401 486 421 457Q437 432 437 417Z" />
<glyph unicode="y" glyph-name="y" horiz-adv-x="473" d="M461 63Q455 -165 234 -165Q183 -165 128 -147Q46 -120 46 -67Q46 18 107 49Q141 32 145 29Q159 17 183 -27Q223 -58 261 -58Q342 -58 342 71Q342 90 332 143Q322 202 320 233Q262 164 218 164Q128 164
77 211Q22 261 22 356Q22 438 43 535Q81 533 105 525T151 509Q152 493 149 454Q145 410 145 390Q145 288 216 283Q282 359 282 428Q282 445 278 476T273 524Q299 527 378 538Q464 182 461 63Z" />
<glyph unicode="z" glyph-name="z" horiz-adv-x="553" d="M544 181Q544 137 520 135Q395 127 206 127Q86 127 80 135Q66 154 66 164Q66 178 97 215Q148 275 205 332Q253 380 276 410Q237 414 176 413Q74 410 76 410Q49 410 39 415Q15 427 15 469Q15 518 99 518Q118
518 162 515T227 512Q339 513 382 504Q434 492 434 460Q434 438 413 403Q354 305 293 250Q365 244 437 239Q544 227 544 181Z" />
</font>
</defs>
</svg>
